<svg width="481" height="407" viewBox="0 0 481 407" fill="none" xmlns="http://www.w3.org/2000/svg">
<path d="M290.53 166.615C274.196 165.841 260.327 178.454 259.552 194.788C259.085 204.636 263.484 213.587 270.631 219.314C272.283 220.638 274.083 221.79 276.003 222.741C276.035 222.756 276.066 222.771 276.097 222.787C276.104 222.79 276.111 222.794 276.118 222.797C276.186 222.83 276.254 222.863 276.322 222.896C279.79 224.561 283.641 225.573 287.724 225.766C291.897 225.964 295.908 225.289 299.581 223.901C299.581 223.901 299.696 223.798 299.99 223.743C307.599 220.843 318.133 209.601 318.703 197.594C319.478 181.26 306.865 167.39 290.53 166.615Z" fill="white"/>
<path fill-rule="evenodd" clip-rule="evenodd" d="M276.097 222.787C276.097 222.787 276.065 222.771 276.003 222.741C274.083 221.79 272.283 220.638 270.631 219.314C267.424 216.851 263.701 213.137 262.126 208.356C256.232 196.887 254.656 193.799 251.901 179.312C250.461 173.373 249.907 166.892 249.315 161.269C248.639 157.363 247.653 153.645 243.649 153.684C239.018 153.729 235.769 156.008 235.144 160.597C233.163 175.135 235.7 185.154 238.564 197.34C243.772 211.881 248.956 223.224 255.87 231.729C262.395 241.507 262.233 244.941 262.233 244.941L260.031 291.353C260.031 291.353 250.201 346.17 250.72 365.715C250.846 370.459 256.081 374.645 260.408 374.85C264.307 374.591 269.164 373.713 270.849 368.116C274.693 348.055 276.854 332.974 283.618 312.329C286.416 303.786 293.372 304.839 295.159 312.876C299.182 334.757 298.429 350.626 304.066 368.968C304.968 371.903 310.493 376.197 315.334 375.287C322.581 374.908 323.822 369.183 323.713 366.286C319.688 329.223 316.713 268.217 314.168 245.684C314.168 245.684 318.337 239.428 321.996 234.866C328.967 224.008 329.71 220.562 333.503 210.022C336.813 194.686 336.873 184.36 335.111 167.062C334.959 163.547 334.093 159.179 331.762 157.144C330.948 156.434 329.954 156.008 328.75 156.002C325.181 155.986 322.231 157.413 321.594 161.688C319.413 180.519 323.193 182.42 319.924 196.897C318.232 204.392 319.128 204.606 314.386 213.849C310.665 219.697 301.496 223.462 299.99 223.743C299.857 223.796 299.723 223.847 299.589 223.898L299.581 223.901C295.908 225.289 291.897 225.964 287.724 225.766C283.641 225.573 279.79 224.561 276.322 222.896C276.254 222.863 276.186 222.83 276.118 222.797C276.111 222.794 276.104 222.79 276.097 222.787Z" fill="white"/>
<path d="M287.724 225.766C291.897 225.964 295.908 225.289 299.581 223.901M287.724 225.766C283.641 225.573 279.79 224.561 276.322 222.896C276.254 222.863 276.186 222.83 276.118 222.797M287.724 225.766C291.9 225.965 295.914 225.288 299.589 223.898M276.097 222.787C276.097 222.787 276.065 222.771 276.003 222.741M276.097 222.787C276.104 222.79 276.111 222.794 276.118 222.797M276.097 222.787C276.066 222.771 276.035 222.756 276.003 222.741M299.581 223.901C299.581 223.901 299.696 223.798 299.99 223.743M299.581 223.901L299.589 223.898M321.594 161.688C322.231 157.413 325.181 155.986 328.75 156.002C329.954 156.008 330.948 156.434 331.762 157.144M321.594 161.688C319.413 180.519 323.193 182.42 319.924 196.897C318.232 204.392 319.128 204.606 314.386 213.849C310.665 219.697 301.496 223.462 299.99 223.743M321.594 161.688L329.183 161.688L331.762 157.144M299.99 223.743C307.599 220.843 318.133 209.601 318.703 197.594C319.478 181.26 306.865 167.39 290.53 166.615C274.196 165.841 260.327 178.454 259.552 194.788C259.085 204.636 263.484 213.587 270.631 219.314M299.99 223.743C299.857 223.796 299.723 223.847 299.589 223.898M249.315 161.269C249.907 166.892 250.461 173.373 251.901 179.312C254.656 193.799 256.232 196.887 262.126 208.356C263.701 213.137 267.424 216.851 270.631 219.314M249.315 161.269C248.639 157.363 247.653 153.645 243.649 153.684C239.018 153.729 235.769 156.008 235.144 160.597C233.163 175.135 235.7 185.154 238.564 197.34C243.772 211.881 248.956 223.224 255.87 231.729C262.395 241.507 262.233 244.941 262.233 244.941L260.031 291.353C260.031 291.353 250.201 346.17 250.72 365.715C250.846 370.459 256.081 374.645 260.408 374.85C264.307 374.591 269.164 373.713 270.849 368.116C274.693 348.055 276.854 332.974 283.618 312.329C286.416 303.786 293.372 304.839 295.159 312.876C299.182 334.757 298.429 350.626 304.066 368.968C304.968 371.903 310.493 376.197 315.334 375.287C322.581 374.908 323.822 369.183 323.713 366.286C319.688 329.223 316.713 268.217 314.168 245.684C314.168 245.684 318.337 239.428 321.996 234.866C328.967 224.008 329.71 220.562 333.503 210.022C336.813 194.686 336.873 184.36 335.111 167.062C334.959 163.547 334.093 159.179 331.762 157.144M249.315 161.269L242.777 161.45L239.338 154.572M276.003 222.741C274.083 221.79 272.283 220.638 270.631 219.314M276.003 222.741C276.041 222.759 276.08 222.778 276.118 222.797M276.003 222.741C275.522 222.5 273.248 221.324 270.631 219.314" stroke="black" stroke-width="2"/>
<path d="M255.152 192.521C270.653 193.199 322.503 191.258 325.446 188.966C327.503 185.637 321.489 183.545 321.489 183.545C321.489 183.545 321.173 174.689 315.389 167.073C315.203 166.828 315.012 166.585 314.815 166.343C313.126 164.273 311.011 162.322 308.363 160.698C306.539 159.581 304.463 158.619 302.099 157.881C298.769 156.841 294.868 156.246 290.298 156.288C289.844 156.293 289.396 156.301 288.954 156.313C284.008 156.451 279.805 157.095 276.234 158.103C270.266 159.789 266.065 162.493 263.114 165.559C254.914 174.075 256.356 185.379 256.356 185.379L253.719 186.442C253.719 186.442 254.036 190.29 255.152 192.521Z" fill="white"/>
<path d="M263.114 165.559C254.914 174.075 256.356 185.379 256.356 185.379L253.719 186.442C253.719 186.442 254.036 190.29 255.152 192.521C270.653 193.199 322.503 191.258 325.446 188.966C327.503 185.637 321.489 183.545 321.489 183.545C321.489 183.545 321.173 174.689 315.389 167.073C315.203 166.828 315.012 166.585 314.815 166.343M263.114 165.559L269.608 184.458M263.114 165.559C266.065 162.493 270.266 159.789 276.234 158.103M314.815 166.343C313.126 164.273 311.011 162.322 308.363 160.698C306.539 159.581 304.463 158.619 302.099 157.881M314.815 166.343L310.663 183.031M276.234 158.103C279.805 157.095 284.008 156.451 288.954 156.313C289.396 156.301 289.844 156.293 290.298 156.288C294.868 156.246 298.769 156.841 302.099 157.881M276.234 158.103L280.398 183.626L301.245 183.271L302.099 157.881" stroke="black" stroke-width="2" stroke-linejoin="round"/>
<path d="M431.493 376.683L459.861 327.547L431.493 278.412L374.756 278.412L346.388 327.547L374.756 376.683L431.493 376.683Z" fill="#777E5C"/>
<mask id="path-6-inside-1_295_3201" fill="white">
<path fill-rule="evenodd" clip-rule="evenodd" d="M379.519 340.886C372.102 328.038 376.504 311.61 389.351 304.192C402.199 296.774 418.628 301.176 426.046 314.024C433.463 326.872 429.061 343.3 416.213 350.718C403.366 358.136 386.937 353.734 379.519 340.886ZM399.425 324.917C396.646 318.222 399.149 310.37 405.533 306.685C406.527 306.11 407.8 306.459 408.38 307.464L409.429 309.281C412.184 314.052 411.982 319.712 409.394 324.106C406.138 323.359 402.658 323.588 399.425 324.917ZM419.474 334.984C420.054 335.99 419.719 337.266 418.725 337.84C411.773 341.854 402.848 339.411 398.791 332.386L389.8 337.577C388.805 338.151 387.533 337.803 386.952 336.798C386.372 335.793 386.707 334.517 387.701 333.942L396.693 328.751L398.491 327.713C405.443 323.699 414.368 326.142 418.424 333.167L419.474 334.984Z"/>
</mask>
<path fill-rule="evenodd" clip-rule="evenodd" d="M379.519 340.886C372.102 328.038 376.504 311.61 389.351 304.192C402.199 296.774 418.628 301.176 426.046 314.024C433.463 326.872 429.061 343.3 416.213 350.718C403.366 358.136 386.937 353.734 379.519 340.886ZM399.425 324.917C396.646 318.222 399.149 310.37 405.533 306.685C406.527 306.11 407.8 306.459 408.38 307.464L409.429 309.281C412.184 314.052 411.982 319.712 409.394 324.106C406.138 323.359 402.658 323.588 399.425 324.917ZM419.474 334.984C420.054 335.99 419.719 337.266 418.725 337.84C411.773 341.854 402.848 339.411 398.791 332.386L389.8 337.577C388.805 338.151 387.533 337.803 386.952 336.798C386.372 335.793 386.707 334.517 387.701 333.942L396.693 328.751L398.491 327.713C405.443 323.699 414.368 326.142 418.424 333.167L419.474 334.984Z" fill="white"/>
<path d="M399.425 324.917L402.086 331.391L395.634 334.044L392.959 327.601L399.425 324.917ZM408.38 307.464L402.318 310.964L408.38 307.464ZM409.429 309.281L415.492 305.781L409.429 309.281ZM409.394 324.106L415.426 327.658L412.824 332.076L407.828 330.929L409.394 324.106ZM398.791 332.386L395.291 326.324L401.354 322.824L404.854 328.886L398.791 332.386ZM389.8 337.577L386.3 331.515L389.8 337.577ZM387.701 333.942L391.201 340.004L387.701 333.942ZM396.693 328.751L393.193 322.689L396.693 328.751ZM392.851 310.254C383.352 315.739 380.097 327.886 385.581 337.386L373.457 344.386C364.106 328.19 369.655 307.48 385.851 298.13L392.851 310.254ZM419.983 317.524C414.499 308.024 402.351 304.769 392.851 310.254L385.851 298.13C402.047 288.779 422.757 294.328 432.108 310.524L419.983 317.524ZM412.713 344.656C422.213 339.171 425.468 327.024 419.983 317.524L432.108 310.524C441.458 326.72 435.909 347.43 419.713 356.78L412.713 344.656ZM385.581 337.386C391.066 346.886 403.214 350.141 412.713 344.656L419.713 356.78C403.517 366.131 382.808 360.582 373.457 344.386L385.581 337.386ZM409.033 312.747C405.778 314.626 404.42 318.692 405.89 322.234L392.959 327.601C388.872 317.752 392.519 306.115 402.033 300.623L409.033 312.747ZM402.318 310.964C403.636 313.246 406.619 314.14 409.033 312.747L402.033 300.623C406.436 298.08 411.964 299.671 414.442 303.964L402.318 310.964ZM403.367 312.781L402.318 310.964L414.442 303.964L415.492 305.781L403.367 312.781ZM403.362 320.554C404.71 318.265 404.821 315.3 403.367 312.781L415.492 305.781C419.546 312.804 419.254 321.158 415.426 327.658L403.362 320.554ZM396.763 318.443C401.381 316.544 406.341 316.223 410.96 317.284L407.828 330.929C405.935 330.494 403.936 330.631 402.086 331.391L396.763 318.443ZM415.225 331.778C412.811 333.172 412.094 336.202 413.411 338.484L425.536 331.484C428.014 335.777 426.628 341.36 422.225 343.902L415.225 331.778ZM404.854 328.886C407.012 332.624 411.681 333.824 415.225 331.778L422.225 343.902C411.865 349.884 398.683 346.199 392.729 335.886L404.854 328.886ZM386.3 331.515L395.291 326.324L402.291 338.448L393.3 343.639L386.3 331.515ZM393.015 333.298C391.697 331.016 388.714 330.121 386.3 331.515L393.3 343.639C388.897 346.181 383.369 344.591 380.89 340.298L393.015 333.298ZM391.201 340.004C393.615 338.611 394.332 335.58 393.015 333.298L380.89 340.298C378.412 336.005 379.798 330.422 384.201 327.88L391.201 340.004ZM400.193 334.813L391.201 340.004L384.201 327.88L393.193 322.689L400.193 334.813ZM401.991 333.775L400.193 334.813L393.193 322.689L394.991 321.651L401.991 333.775ZM412.362 336.667C410.204 332.929 405.534 331.729 401.991 333.775L394.991 321.651C405.351 315.669 418.532 319.354 424.487 329.667L412.362 336.667ZM413.411 338.484L412.362 336.667L424.487 329.667L425.536 331.484L413.411 338.484Z" fill="white" mask="url(#path-6-inside-1_295_3201)"/>
<path d="M372.18 86.3607L329 11.5708L242.64 11.5708L199.46 86.3607L242.64 161.151L329 161.151L372.18 86.3607Z" fill="#777E5C"/>
<path d="M321.125 62.6204C321.125 60.5014 320.28 58.4693 318.775 56.9709C317.271 55.4726 315.231 54.6309 313.104 54.6309C310.976 54.6309 308.936 55.4726 307.432 56.9709C305.928 58.4693 305.083 60.5014 305.083 62.6204C305.083 64.7394 305.928 66.7715 307.432 68.2699C308.936 69.7682 310.976 70.6099 313.104 70.6099C315.231 70.6099 317.271 69.7682 318.775 68.2699C320.28 66.7715 321.125 64.7394 321.125 62.6204ZM322.271 85.1195C323.703 86.7174 324.562 88.8432 324.562 91.1545C324.562 93.4658 323.703 95.5915 322.271 97.1894V85.1195ZM301.588 78.0859C305.842 81.8381 308.52 87.3309 308.52 93.4372C308.52 98.3308 306.801 102.825 303.937 106.349V109.416C303.937 111.942 305.985 113.982 308.52 113.982H317.687C320.222 113.982 322.271 111.942 322.271 109.416V105.593C327.685 103.025 331.438 97.5319 331.438 91.1545C331.438 82.3232 324.261 75.1754 315.395 75.1754H310.812C307.374 75.1754 304.194 76.2454 301.588 78.0716V78.0859ZM267.269 109.416V106.349C264.404 102.825 262.685 98.3308 262.685 93.4372C262.685 87.3309 265.364 81.8381 269.618 78.0716C267.011 76.2454 263.831 75.1754 260.394 75.1754H255.81C246.944 75.1754 239.768 82.3232 239.768 91.1545C239.768 97.5319 243.521 103.025 248.935 105.593V109.416C248.935 111.942 250.983 113.982 253.518 113.982H262.685C265.221 113.982 267.269 111.942 267.269 109.416ZM266.123 62.6204C266.123 60.5014 265.278 58.4693 263.774 56.9709C262.269 55.4726 260.229 54.6309 258.102 54.6309C255.975 54.6309 253.934 55.4726 252.43 56.9709C250.926 58.4693 250.081 60.5014 250.081 62.6204C250.081 64.7394 250.926 66.7715 252.43 68.2699C253.934 69.7682 255.975 70.6099 258.102 70.6099C260.229 70.6099 262.269 69.7682 263.774 68.2699C265.278 66.7715 266.123 64.7394 266.123 62.6204ZM248.935 85.1195V97.2037C247.503 95.5915 246.643 93.48 246.643 91.1688C246.643 88.8575 247.503 86.7317 248.935 85.1338V85.1195ZM285.603 54.6309C283.172 54.6309 280.84 55.5929 279.121 57.3052C277.402 59.0176 276.436 61.3401 276.436 63.7618C276.436 66.1834 277.402 68.5059 279.121 70.2183C280.84 71.9307 283.172 72.8927 285.603 72.8927C288.034 72.8927 290.366 71.9307 292.085 70.2183C293.804 68.5059 294.77 66.1834 294.77 63.7618C294.77 61.3401 293.804 59.0176 292.085 57.3052C290.366 55.5929 288.034 54.6309 285.603 54.6309ZM297.061 93.4372C297.061 95.7485 296.202 97.86 294.77 99.4722V87.4023C296.202 89.0144 297.061 91.126 297.061 93.4372ZM276.436 87.4023V99.4864C275.003 97.8743 274.144 95.7627 274.144 93.4515C274.144 91.1402 275.003 89.0144 276.436 87.4165V87.4023ZM267.269 93.4372C267.269 99.8146 271.022 105.307 276.436 107.875V113.982C276.436 116.507 278.484 118.547 281.019 118.547H290.186C292.721 118.547 294.77 116.507 294.77 113.982V107.875C300.184 105.307 303.937 99.8146 303.937 93.4372C303.937 84.6059 296.761 77.4581 287.894 77.4581H283.311C274.445 77.4581 267.269 84.6059 267.269 93.4372Z" fill="white"/>
<path d="M178.622 370.759L213.988 309.504L178.622 248.249L107.891 248.249L72.5254 309.504L107.891 370.759L178.622 370.759Z" fill="#777E5C"/>
<path fill-rule="evenodd" clip-rule="evenodd" d="M170.624 311.226L173.957 309.302C175.8 308.238 176.427 305.885 175.36 304.037C174.292 302.189 171.941 301.555 170.098 302.619L166.766 304.543L159.05 291.177L162.382 289.254C164.225 288.19 164.852 285.837 163.785 283.988C162.718 282.14 160.366 281.507 158.523 282.571L155.191 284.495L152.298 279.483C150.7 276.715 147.165 275.763 144.406 277.356L139.407 280.242L166.416 327.021L171.414 324.136C174.173 322.542 175.116 319.005 173.518 316.238L170.624 311.226ZM163.084 328.945L136.075 282.166L107.752 298.518C104.993 300.111 104.05 303.649 105.648 306.416L126.869 343.171C128.466 345.938 132.001 346.891 134.761 345.297L163.084 328.945ZM133.5 336.386C133.014 336.29 132.641 336.018 132.383 335.57L125.756 324.093C125.191 323.113 125.424 322.326 126.455 321.731C127.506 321.124 128.315 321.31 128.88 322.289L133.566 330.406L135.769 321.333C136.233 319.383 136.803 317.848 137.477 316.728C138.152 315.608 139.025 314.739 140.096 314.12C142.118 312.953 144.036 312.632 145.848 313.156C147.681 313.669 149.206 314.98 150.423 317.088C151.276 318.565 151.739 320.068 151.813 321.597C151.887 323.125 151.578 324.598 150.887 326.016C150.605 326.555 150.262 326.941 149.857 327.174C149.271 327.513 148.666 327.563 148.044 327.325C147.677 327.204 147.408 326.995 147.236 326.696C146.967 326.231 147.031 325.641 147.427 324.926C147.948 323.961 148.191 322.98 148.154 321.983C148.128 320.958 147.823 319.939 147.239 318.926C146.625 317.864 145.853 317.204 144.922 316.945C144.011 316.674 143.039 316.836 142.008 317.432C141.24 317.875 140.68 318.376 140.327 318.933C139.975 319.491 139.65 320.398 139.351 321.655L136.303 334.236C136.214 334.642 136.046 335.004 135.799 335.324C135.572 335.632 135.297 335.879 134.974 336.066C134.489 336.346 133.997 336.453 133.5 336.386ZM122.717 317.709C122.231 317.613 121.858 317.342 121.6 316.894L114.973 305.416C114.408 304.437 114.641 303.649 115.672 303.054C116.723 302.447 117.532 302.633 118.097 303.612L122.783 311.729L124.986 302.656C125.45 300.706 126.02 299.171 126.694 298.051C127.369 296.932 128.242 296.062 129.313 295.444C131.335 294.276 133.253 293.955 135.065 294.48C136.898 294.993 138.423 296.303 139.64 298.411C140.493 299.888 140.956 301.391 141.03 302.92C141.104 304.449 140.795 305.922 140.104 307.339C139.822 307.878 139.479 308.264 139.074 308.498C138.488 308.836 137.883 308.886 137.261 308.648C136.895 308.528 136.625 308.318 136.453 308.019C136.184 307.555 136.248 306.965 136.644 306.249C137.165 305.284 137.408 304.303 137.371 303.306C137.345 302.281 137.04 301.262 136.456 300.25C135.842 299.188 135.07 298.527 134.139 298.268C133.228 297.997 132.256 298.16 131.225 298.755C130.457 299.199 129.897 299.699 129.544 300.256C129.192 300.814 128.867 301.721 128.568 302.978L125.52 315.559C125.431 315.965 125.263 316.328 125.016 316.647C124.789 316.955 124.514 317.203 124.191 317.389C123.706 317.669 123.214 317.776 122.717 317.709Z" fill="white"/>
<path d="M82.4703 275.145L55.8597 324.714L82.9722 371.045L109.583 371.045L135.691 325.855L106.069 275.143L82.4703 275.145Z" fill="black" fill-opacity="0.5"/>
<path d="M48.2656 277.454L20.3995 325.72L48.2656 373.985L103.998 373.985L131.864 325.72L103.998 277.454L48.2656 277.454Z" fill="#777E5C"/>
<path d="M69.7723 349.512C67.4439 348.888 66.0663 346.502 66.6902 344.173C67.1598 342.409 68.9722 341.361 70.7358 341.833L74.7494 342.909C76.5169 343.382 77.5657 345.199 77.0922 346.966C76.4683 349.295 74.0822 350.672 71.7537 350.049L69.7723 349.512ZM72.9576 320.783C73.1314 320.135 73.454 319.526 73.9084 319.021L78.742 313.57C79.2088 313.04 79.9386 312.825 80.6258 313.004C81.313 313.182 81.831 313.737 81.9741 314.436L83.4347 321.573C83.5718 322.231 83.5468 322.92 83.377 323.575L80.0012 336.158C79.2295 339.035 76.2726 340.741 73.396 339.971C70.5182 339.2 68.8107 336.241 69.5827 333.363L72.9576 320.783ZM58.0067 322.549C55.9442 318.976 57.1692 314.405 60.7416 312.342L77.9971 302.38C81.5695 300.317 86.1412 301.542 88.2038 305.114L98.1662 322.37C100.229 325.942 99.0038 330.514 95.4313 332.577L88.9605 336.313C87.7675 337.001 86.2471 336.594 85.5583 335.401C84.8695 334.208 85.2769 332.688 86.4699 331.999L92.9407 328.263C94.1338 327.574 94.5412 326.054 93.8524 324.861L83.8899 307.605C83.2011 306.412 81.6807 306.005 80.4877 306.693L63.2322 316.656C62.0392 317.345 61.6318 318.865 62.3206 320.058L66.0565 326.529C66.7453 327.722 66.3379 329.242 65.1449 329.931C63.9518 330.62 62.4315 330.213 61.7426 329.02L58.0067 322.549Z" fill="white"/>
</svg>
