<svg width="481" height="405" viewBox="0 0 481 405" fill="none" xmlns="http://www.w3.org/2000/svg">
<path d="M191.68 165.922C207.946 165.15 221.758 177.711 222.53 193.977C222.995 203.783 218.614 212.698 211.497 218.401C209.851 219.719 208.059 220.866 206.147 221.813C206.116 221.828 206.085 221.844 206.054 221.859C206.047 221.862 206.04 221.866 206.033 221.869C205.965 221.902 205.897 221.935 205.829 221.968C202.376 223.625 198.541 224.633 194.475 224.826C190.32 225.023 186.325 224.351 182.667 222.968C182.667 222.968 182.553 222.866 182.26 222.811C174.683 219.923 164.193 208.728 163.625 196.771C162.854 180.505 175.414 166.694 191.68 165.922Z" fill="white"/>
<path fill-rule="evenodd" clip-rule="evenodd" d="M206.054 221.859C206.054 221.859 206.086 221.844 206.147 221.813C208.059 220.866 209.851 219.719 211.497 218.401C214.691 215.948 218.398 212.249 219.966 207.488C225.836 196.067 227.405 192.992 230.149 178.565C231.583 172.651 232.134 166.197 232.724 160.598C233.397 156.708 234.379 153.006 238.367 153.044C242.978 153.089 246.213 155.359 246.836 159.929C248.808 174.406 246.282 184.383 243.43 196.518C238.244 210.998 233.081 222.294 226.196 230.764C219.698 240.501 219.86 243.921 219.86 243.921L222.053 290.14C222.053 290.14 231.842 344.728 231.325 364.191C231.2 368.916 225.987 373.084 221.677 373.288C217.795 373.03 212.957 372.156 211.28 366.582C207.452 346.605 205.299 331.587 198.564 311.028C195.777 302.52 188.851 303.569 187.071 311.573C183.065 333.362 183.815 349.166 178.201 367.431C177.303 370.354 171.801 374.63 166.981 373.723C159.763 373.346 158.527 367.645 158.636 364.76C162.644 327.851 165.607 267.1 168.142 244.66C168.142 244.66 163.99 238.43 160.346 233.888C153.405 223.076 152.665 219.644 148.887 209.147C145.591 193.875 145.531 183.592 147.286 166.366C147.437 162.866 148.299 158.516 150.621 156.49C151.432 155.782 152.421 155.358 153.62 155.353C157.174 155.337 160.112 156.758 160.746 161.015C162.918 179.768 159.154 181.66 162.409 196.077C164.095 203.541 163.202 203.754 167.924 212.958C171.629 218.782 180.761 222.532 182.26 222.811C182.393 222.864 182.526 222.915 182.659 222.965L182.667 222.968C186.325 224.351 190.32 225.023 194.475 224.826C198.541 224.633 202.376 223.625 205.829 221.968C205.897 221.935 205.965 221.902 206.033 221.869C206.04 221.866 206.047 221.862 206.054 221.859Z" fill="white"/>
<path d="M194.475 224.826C190.32 225.023 186.325 224.351 182.667 222.968M194.475 224.826C198.541 224.633 202.376 223.625 205.829 221.968C205.897 221.935 205.965 221.902 206.033 221.869M194.475 224.826C190.317 225.024 186.32 224.35 182.659 222.965M206.054 221.859C206.054 221.859 206.086 221.844 206.147 221.813M206.054 221.859C206.047 221.862 206.04 221.866 206.033 221.869M206.054 221.859C206.085 221.844 206.116 221.828 206.147 221.813M182.667 222.968C182.667 222.968 182.553 222.866 182.26 222.811M182.667 222.968L182.659 222.965M160.746 161.015C160.112 156.758 157.174 155.337 153.62 155.353C152.421 155.358 151.432 155.782 150.621 156.49M160.746 161.015C162.918 179.768 159.154 181.66 162.409 196.077C164.095 203.541 163.202 203.754 167.924 212.958C171.629 218.782 180.761 222.532 182.26 222.811M160.746 161.015L153.189 161.015L150.621 156.49M182.26 222.811C174.683 219.923 164.193 208.728 163.625 196.771C162.854 180.505 175.414 166.694 191.68 165.922C207.946 165.15 221.758 177.711 222.53 193.977C222.995 203.783 218.614 212.698 211.497 218.401M182.26 222.811C182.393 222.864 182.526 222.915 182.659 222.965M232.724 160.598C232.134 166.197 231.583 172.651 230.149 178.565C227.405 192.992 225.836 196.067 219.966 207.488C218.398 212.249 214.691 215.948 211.497 218.401M232.724 160.598C233.397 156.708 234.379 153.006 238.367 153.044C242.978 153.089 246.213 155.359 246.836 159.929C248.808 174.406 246.282 184.383 243.43 196.518C238.244 210.998 233.081 222.294 226.196 230.764C219.698 240.501 219.86 243.921 219.86 243.921L222.053 290.14C222.053 290.14 231.842 344.728 231.325 364.191C231.2 368.916 225.987 373.084 221.677 373.288C217.795 373.03 212.957 372.156 211.28 366.582C207.452 346.605 205.299 331.587 198.564 311.028C195.777 302.52 188.851 303.569 187.071 311.573C183.065 333.362 183.815 349.166 178.201 367.431C177.303 370.354 171.801 374.63 166.981 373.723C159.763 373.346 158.527 367.645 158.636 364.76C162.644 327.851 165.607 267.1 168.142 244.66C168.142 244.66 163.99 238.43 160.346 233.888C153.405 223.076 152.665 219.644 148.887 209.147C145.591 193.875 145.531 183.592 147.286 166.366C147.437 162.866 148.299 158.516 150.621 156.49M232.724 160.598L239.235 160.778L242.659 153.928M206.147 221.813C208.059 220.866 209.851 219.719 211.497 218.401M206.147 221.813C206.109 221.832 206.071 221.851 206.033 221.869M206.147 221.813C206.626 221.574 208.89 220.403 211.497 218.401" stroke="black" stroke-width="2"/>
<path d="M226.911 191.718C211.475 192.393 159.84 190.459 156.91 188.178C154.862 184.862 160.85 182.779 160.85 182.779C160.85 182.779 161.165 173.96 166.925 166.376C167.11 166.132 167.3 165.89 167.497 165.649C169.179 163.588 171.285 161.644 173.922 160.028C175.738 158.915 177.805 157.956 180.159 157.222C183.476 156.186 187.361 155.594 191.912 155.636C192.364 155.64 192.809 155.648 193.249 155.661C198.175 155.798 202.361 156.439 205.917 157.443C211.86 159.122 216.043 161.815 218.982 164.868C227.148 173.348 225.712 184.606 225.712 184.606L228.338 185.664C228.338 185.664 228.023 189.496 226.911 191.718Z" fill="white"/>
<path d="M218.982 164.868C227.148 173.348 225.712 184.606 225.712 184.606L228.338 185.664C228.338 185.664 228.023 189.496 226.911 191.718C211.475 192.393 159.84 190.459 156.91 188.178C154.862 184.862 160.85 182.779 160.85 182.779C160.85 182.779 161.165 173.96 166.925 166.376C167.11 166.132 167.3 165.89 167.497 165.649M218.982 164.868L212.515 183.688M218.982 164.868C216.043 161.815 211.86 159.122 205.917 157.443M167.497 165.649C169.179 163.588 171.285 161.644 173.922 160.028C175.738 158.915 177.805 157.956 180.159 157.222M167.497 165.649L171.631 182.267M205.917 157.443C202.361 156.439 198.175 155.798 193.249 155.661C192.809 155.648 192.364 155.64 191.912 155.636C187.361 155.594 183.476 156.186 180.159 157.222M205.917 157.443L201.77 182.86L181.01 182.507L180.159 157.222" stroke="black" stroke-width="2" stroke-linejoin="round"/>
<path d="M110.373 86.3818L153.564 11.5729H239.946L283.137 86.3818L239.946 161.191H153.564L110.373 86.3818Z" fill="#777E5C"/>
<mask id="path-6-inside-1_295_3174" fill="white">
<path fill-rule="evenodd" clip-rule="evenodd" d="M197.136 127.66C219.723 127.66 238.034 109.35 238.034 86.7629C238.034 64.1757 219.723 45.8652 197.136 45.8652C174.549 45.8652 156.238 64.1757 156.238 86.7629C156.238 109.35 174.549 127.66 197.136 127.66ZM203.038 89.2565C213.982 87.8239 222.429 78.5469 222.429 67.3236C222.429 65.5749 221.001 64.1621 219.234 64.1621H216.038C207.651 64.1621 200.342 68.7364 196.518 75.4941C199.983 79.2187 202.329 83.9807 203.038 89.2565ZM174.502 70.4851C172.734 70.4851 171.307 71.8979 171.307 73.6466C171.307 85.8677 181.321 95.777 193.673 95.777V111.585C193.673 113.333 195.1 114.746 196.868 114.746C198.635 114.746 200.063 113.333 200.063 111.585V95.777V92.6156C200.063 80.3944 190.048 70.4851 177.697 70.4851H174.502Z"/>
</mask>
<path fill-rule="evenodd" clip-rule="evenodd" d="M197.136 127.66C219.723 127.66 238.034 109.35 238.034 86.7629C238.034 64.1757 219.723 45.8652 197.136 45.8652C174.549 45.8652 156.238 64.1757 156.238 86.7629C156.238 109.35 174.549 127.66 197.136 127.66ZM203.038 89.2565C213.982 87.8239 222.429 78.5469 222.429 67.3236C222.429 65.5749 221.001 64.1621 219.234 64.1621H216.038C207.651 64.1621 200.342 68.7364 196.518 75.4941C199.983 79.2187 202.329 83.9807 203.038 89.2565ZM174.502 70.4851C172.734 70.4851 171.307 71.8979 171.307 73.6466C171.307 85.8677 181.321 95.777 193.673 95.777V111.585C193.673 113.333 195.1 114.746 196.868 114.746C198.635 114.746 200.063 113.333 200.063 111.585V95.777V92.6156C200.063 80.3944 190.048 70.4851 177.697 70.4851H174.502Z" fill="white"/>
<path d="M203.038 89.2565L196.101 90.1887L197.03 97.1028L203.947 96.1972L203.038 89.2565ZM196.518 75.4941L190.426 72.0465L187.901 76.5082L191.393 80.2618L196.518 75.4941ZM193.673 95.777H200.673V88.777H193.673V95.777ZM231.034 86.7629C231.034 105.484 215.857 120.66 197.136 120.66V134.66C223.589 134.66 245.034 113.216 245.034 86.7629H231.034ZM197.136 52.8652C215.857 52.8652 231.034 68.0417 231.034 86.7629H245.034C245.034 60.3097 223.589 38.8652 197.136 38.8652V52.8652ZM163.238 86.7629C163.238 68.0417 178.415 52.8652 197.136 52.8652V38.8652C170.683 38.8652 149.238 60.3097 149.238 86.7629H163.238ZM197.136 120.66C178.415 120.66 163.238 105.484 163.238 86.7629H149.238C149.238 113.216 170.683 134.66 197.136 134.66V120.66ZM215.429 67.3236C215.429 74.9328 209.687 81.3263 202.13 82.3157L203.947 96.1972C218.276 94.3215 229.429 82.161 229.429 67.3236H215.429ZM219.234 71.1621C217.205 71.1621 215.429 69.5105 215.429 67.3236H229.429C229.429 61.6393 224.797 57.1621 219.234 57.1621V71.1621ZM216.038 71.1621H219.234V57.1621H216.038V71.1621ZM202.61 78.9416C205.231 74.3107 210.251 71.1621 216.038 71.1621V57.1621C205.051 57.1621 195.454 63.1621 190.426 72.0465L202.61 78.9416ZM209.976 88.3242C209.068 81.5652 206.061 75.4752 201.644 70.7264L191.393 80.2618C193.905 82.9623 195.591 86.3962 196.101 90.1887L209.976 88.3242ZM178.307 73.6466C178.307 75.8335 176.53 77.4851 174.502 77.4851V63.4851C168.938 63.4851 164.307 67.9622 164.307 73.6466H178.307ZM193.673 88.777C185.117 88.777 178.307 81.9321 178.307 73.6466H164.307C164.307 89.8034 177.525 102.777 193.673 102.777V88.777ZM200.673 111.585V95.777H186.673V111.585H200.673ZM196.868 107.746C198.896 107.746 200.673 109.398 200.673 111.585H186.673C186.673 117.269 191.304 121.746 196.868 121.746V107.746ZM193.063 111.585C193.063 109.398 194.839 107.746 196.868 107.746V121.746C202.431 121.746 207.063 117.269 207.063 111.585H193.063ZM193.063 95.777V111.585H207.063V95.777H193.063ZM193.063 92.6156V95.777H207.063V92.6156H193.063ZM177.697 77.4851C186.252 77.4851 193.063 84.3301 193.063 92.6156H207.063C207.063 76.4588 193.844 63.4851 177.697 63.4851V77.4851ZM174.502 77.4851H177.697V63.4851H174.502V77.4851Z" fill="white" mask="url(#path-6-inside-1_295_3174)"/>
<path d="M49.3035 277.25L105.803 277.25L134.053 326.18L105.803 375.111L49.3035 375.111L21.0535 326.18L49.3035 277.25Z" fill="#777E5C"/>
<path d="M79.4542 298.412C80.6547 297.719 82.0826 297.533 83.4236 297.895C84.7646 298.257 85.9089 299.138 86.6048 300.343C87.3007 301.548 87.4911 302.979 87.1343 304.322C86.7774 305.664 85.9024 306.808 84.7019 307.501C83.5013 308.194 82.0735 308.38 80.7325 308.018C79.3915 307.656 78.2471 306.775 77.5512 305.57C76.8554 304.365 76.6649 302.933 77.0218 301.591C77.3786 300.248 78.2536 299.105 79.4542 298.412ZM66.3316 305.122C64.9577 304.834 63.4722 305.042 62.1626 305.798C60.8531 306.554 59.9298 307.736 59.493 309.071L66.3316 305.122ZM77.0826 314.54C73.565 313.357 69.5767 313.637 66.117 315.634C63.3443 317.235 61.3603 319.679 60.3007 322.455L58.5628 323.458C57.132 324.284 55.306 323.791 54.4767 322.355L51.478 317.161C50.6487 315.724 51.1346 313.896 52.5654 313.07L54.7318 311.82C54.4157 307.912 56.3003 303.989 59.9136 301.903C64.9173 299.014 71.3146 300.741 74.2149 305.765L75.7142 308.362C76.8387 310.31 77.2726 312.461 77.0907 314.536L77.0826 314.54ZM70.5575 344.234L72.2955 343.23C75.2292 343.7 78.3377 343.204 81.1104 341.603C84.5701 339.606 86.8061 336.292 87.5486 332.649C89.436 333.529 91.0825 334.98 92.207 336.928L93.7063 339.525C96.6066 344.549 94.9042 350.953 89.9005 353.841C86.2871 355.928 81.9474 355.598 78.7213 353.371L76.5549 354.621C75.1241 355.447 73.2981 354.954 72.4688 353.518L69.4701 348.324C68.6408 346.888 69.1267 345.06 70.5575 344.234ZM97.4463 329.575C98.6469 328.882 100.075 328.696 101.416 329.058C102.757 329.42 103.901 330.301 104.597 331.506C105.293 332.711 105.483 334.143 105.126 335.485C104.77 336.828 103.895 337.971 102.694 338.664C101.493 339.357 100.066 339.543 98.7246 339.181C97.3836 338.819 96.2392 337.938 95.5434 336.733C94.8475 335.528 94.657 334.097 95.0139 332.754C95.3707 331.412 96.2457 330.268 97.4463 329.575ZM90.3211 346.673L83.4744 350.626C84.8563 350.911 86.3338 350.707 87.6434 349.951C88.9529 349.195 89.8762 348.012 90.313 346.678L90.3211 346.673ZM95.6008 315.924C96.3961 317.302 96.6138 318.938 96.206 320.472C95.7981 322.006 94.7982 323.313 93.4261 324.105C92.054 324.897 90.4222 325.11 88.8896 324.696C87.357 324.282 86.0492 323.276 85.2539 321.898C84.4586 320.521 84.241 318.885 84.6488 317.351C85.0567 315.817 86.0566 314.51 87.4287 313.717C88.8008 312.925 90.4326 312.713 91.9652 313.127C93.4978 313.541 94.8055 314.547 95.6008 315.924ZM69.8653 322.126C68.5558 322.882 67.6406 324.06 67.1957 325.399L74.0343 321.451C72.6523 321.167 71.1748 321.37 69.8653 322.126ZM80.0317 331.838L73.1849 335.791C74.5669 336.076 76.0444 335.872 77.3539 335.116C78.6635 334.36 79.5868 333.177 80.0236 331.843L80.0317 331.838ZM79.611 339.006C75.9977 341.093 71.658 340.763 68.4318 338.536L64.9721 340.533C63.5413 341.359 61.7153 340.866 60.886 339.43L57.8873 334.236C57.058 332.799 57.5439 330.971 58.9747 330.145L62.4345 328.148C62.1184 324.24 64.003 320.317 67.6163 318.231C72.62 315.342 79.0173 317.07 81.9175 322.093L83.4169 324.69C86.3172 329.714 84.6147 336.118 79.611 339.006Z" fill="white"/>
<path d="M303.123 369.217L267.905 308.218L303.123 247.218L373.56 247.218L408.778 308.218L373.56 369.217L303.123 369.217Z" fill="#777E5C"/>
<path fill-rule="evenodd" clip-rule="evenodd" d="M311.087 309.929L307.769 308.013C305.934 306.954 305.309 304.611 306.372 302.77C307.435 300.93 309.776 300.299 311.611 301.359L314.93 303.274L322.614 289.964L319.296 288.049C317.46 286.989 316.836 284.646 317.899 282.805C318.961 280.965 321.303 280.334 323.138 281.394L326.456 283.31L329.338 278.318C330.929 275.563 334.449 274.614 337.197 276.201L342.174 279.074L315.279 325.659L310.301 322.785C307.553 321.199 306.615 317.676 308.206 314.92L311.087 309.929ZM318.597 327.575L345.492 280.99L373.697 297.274C376.445 298.861 377.384 302.384 375.793 305.139L354.661 341.741C353.07 344.497 349.55 345.445 346.802 343.859L318.597 327.575ZM348.057 334.984C348.541 334.889 348.912 334.618 349.17 334.172L355.769 322.743C356.332 321.767 356.1 320.983 355.073 320.39C354.026 319.786 353.221 319.971 352.658 320.946L347.991 329.029L345.798 319.994C345.335 318.052 344.768 316.524 344.096 315.409C343.425 314.293 342.555 313.428 341.488 312.812C339.475 311.649 337.565 311.329 335.76 311.852C333.935 312.363 332.416 313.668 331.204 315.767C330.355 317.238 329.894 318.735 329.82 320.257C329.747 321.779 330.054 323.246 330.743 324.657C331.024 325.194 331.365 325.579 331.768 325.811C332.352 326.148 332.954 326.198 333.574 325.961C333.939 325.841 334.207 325.633 334.379 325.335C334.646 324.872 334.582 324.285 334.188 323.572C333.669 322.611 333.428 321.635 333.464 320.642C333.49 319.621 333.794 318.606 334.376 317.598C334.986 316.54 335.756 315.882 336.683 315.624C337.59 315.355 338.557 315.516 339.584 316.109C340.349 316.551 340.907 317.049 341.258 317.604C341.609 318.16 341.933 319.063 342.23 320.315L345.265 332.844C345.354 333.248 345.522 333.609 345.768 333.927C345.993 334.234 346.267 334.48 346.589 334.666C347.073 334.945 347.562 335.051 348.057 334.984ZM358.795 316.385C359.279 316.29 359.65 316.02 359.908 315.573L366.507 304.144C367.07 303.169 366.838 302.385 365.811 301.792C364.764 301.187 363.959 301.372 363.396 302.348L358.729 310.43L356.536 301.395C356.073 299.453 355.506 297.925 354.834 296.81C354.163 295.695 353.293 294.829 352.226 294.213C350.213 293.05 348.303 292.73 346.498 293.253C344.673 293.764 343.154 295.069 341.942 297.168C341.093 298.639 340.632 300.136 340.558 301.658C340.485 303.18 340.792 304.647 341.481 306.059C341.762 306.595 342.103 306.98 342.506 307.212C343.09 307.55 343.692 307.6 344.312 307.363C344.677 307.243 344.945 307.034 345.117 306.736C345.384 306.273 345.32 305.686 344.926 304.973C344.407 304.013 344.166 303.036 344.202 302.043C344.228 301.022 344.532 300.007 345.114 298.999C345.724 297.941 346.494 297.283 347.421 297.025C348.328 296.756 349.295 296.918 350.322 297.51C351.087 297.952 351.645 298.451 351.996 299.006C352.347 299.561 352.671 300.464 352.968 301.716L356.003 314.245C356.092 314.649 356.26 315.01 356.506 315.328C356.731 315.635 357.005 315.881 357.327 316.067C357.811 316.346 358.3 316.452 358.795 316.385Z" fill="white"/>
<path d="M398.873 274L425.372 323.363L398.373 369.5L371.873 369.5L345.874 324.499L375.373 273.999L398.873 274Z" fill="black" fill-opacity="0.5"/>
<path d="M432.936 276.299L460.686 324.363L432.936 372.428L377.436 372.428L349.686 324.363L377.436 276.299L432.936 276.299Z" fill="#777E5C"/>
<path d="M411.52 348.056C413.838 347.435 415.21 345.058 414.589 342.74C414.121 340.983 412.317 339.939 410.56 340.409L406.563 341.48C404.803 341.952 403.759 343.761 404.23 345.521C404.852 347.84 407.228 349.212 409.547 348.59L411.52 348.056ZM408.348 319.447C408.175 318.801 407.853 318.195 407.401 317.692L402.587 312.264C402.123 311.736 401.396 311.522 400.711 311.7C400.027 311.877 399.511 312.43 399.369 313.126L397.914 320.234C397.778 320.889 397.803 321.574 397.972 322.227L401.334 334.758C402.102 337.623 405.047 339.322 407.911 338.554C410.777 337.787 412.477 334.84 411.709 331.975L408.348 319.447ZM423.236 321.205C425.29 317.648 424.07 313.095 420.513 311.041L403.329 301.12C399.772 299.066 395.219 300.286 393.165 303.844L383.244 321.027C381.19 324.585 382.41 329.137 385.968 331.191L392.412 334.912C393.6 335.598 395.114 335.192 395.8 334.004C396.485 332.816 396.08 331.302 394.892 330.616L388.448 326.895C387.26 326.209 386.854 324.695 387.54 323.507L397.461 306.324C398.147 305.136 399.661 304.73 400.849 305.416L418.033 315.337C419.221 316.023 419.626 317.537 418.94 318.725L415.22 325.169C414.534 326.357 414.94 327.871 416.128 328.557C417.316 329.243 418.83 328.837 419.516 327.649L423.236 321.205Z" fill="white"/>
</svg>
