<svg width="39" height="82" viewBox="0 0 39 82" fill="none" xmlns="http://www.w3.org/2000/svg">
<path d="M0 19.5161C0 8.73767 8.73045 0 19.5 0C30.2696 0 39 8.73767 39 19.5161V35.4839C39 46.2623 30.2696 55 19.5 55C8.73045 55 0 46.2623 0 35.4839V19.5161Z" fill="#777E5C"/>
<path d="M17.1364 9.46237C17.1364 8.15589 18.1946 7.09678 19.5 7.09678C20.8054 7.09678 21.8636 8.15589 21.8636 9.46237V15.3763C21.8636 16.6828 20.8054 17.7419 19.5 17.7419C18.1946 17.7419 17.1364 16.6828 17.1364 15.3763V9.46237Z" fill="#1E1E1E"/>
<path d="M7.41421 64.5858C6.63317 63.8047 5.36683 63.8047 4.58579 64.5858C3.80474 65.3668 3.80474 66.6332 4.58579 67.4142L7.41421 64.5858ZM18.5858 81.4142C19.3668 82.1953 20.6332 82.1953 21.4142 81.4142C22.1953 80.6332 22.1953 79.3668 21.4142 78.5858L18.5858 81.4142ZM4.58579 67.4142L18.5858 81.4142L21.4142 78.5858L7.41421 64.5858L4.58579 67.4142Z" fill="#777E5C"/>
<path d="M32.5858 64.5858C33.3668 63.8047 34.6332 63.8047 35.4142 64.5858C36.1953 65.3668 36.1953 66.6332 35.4142 67.4142L32.5858 64.5858ZM21.4142 81.4142C20.6332 82.1953 19.3668 82.1953 18.5858 81.4142C17.8047 80.6332 17.8047 79.3668 18.5858 78.5858L21.4142 81.4142ZM35.4142 67.4142L21.4142 81.4142L18.5858 78.5858L32.5858 64.5858L35.4142 67.4142Z" fill="#777E5C"/>
</svg>
