<svg width="36" height="36" viewBox="0 0 36 36" fill="none" xmlns="http://www.w3.org/2000/svg">
<path d="M5.23477 0.847656C2.48967 0.847656 0.257812 3.07176 0.257812 5.80733V30.6057C0.257812 33.3413 2.48967 35.5654 5.23477 35.5654H12.8713V24.2666H8.7653V18.2065H12.8713V15.5949C12.8713 8.84514 15.9352 5.71434 22.5919 5.71434C23.8517 5.71434 26.0291 5.96232 26.9234 6.21031V11.697C26.4568 11.6505 25.6403 11.6195 24.6216 11.6195C21.3555 11.6195 20.0957 12.8516 20.0957 16.0522V18.2065H26.5968L25.477 24.2666H20.0879V35.5654H30.1196C32.8647 35.5654 35.0965 33.3413 35.0965 30.6057V5.80733C35.0965 3.07176 32.8647 0.847656 30.1196 0.847656H5.23477Z" fill="white"/>
</svg>
