<svg width="37" height="37" viewBox="0 0 37 37" fill="none" xmlns="http://www.w3.org/2000/svg">
<path d="M16.3662 14.6052C15.8923 14.9216 15.4855 15.3282 15.1689 15.8017C14.8524 16.2752 14.6323 16.8064 14.5212 17.3649C14.2969 18.4928 14.5303 19.6635 15.1702 20.6195C15.81 21.5755 16.8038 22.2385 17.933 22.4625C19.0621 22.6866 20.2341 22.4534 21.1912 21.8143C22.1482 21.1751 22.8119 20.1824 23.0362 19.0545C23.2605 17.9266 23.0271 16.7559 22.3873 15.7999C21.7474 14.8439 20.7536 14.181 19.6245 13.9569C18.4953 13.7329 17.3233 13.966 16.3662 14.6052ZM27.9445 9.04593C27.5214 8.6233 27.0088 8.29007 26.4474 8.07063C24.9747 7.49357 21.7607 7.51796 19.6859 7.54234C19.3523 7.54234 19.0431 7.55047 18.7746 7.55047C18.5061 7.55047 18.1888 7.55047 17.8471 7.54234C15.7723 7.51796 12.5746 7.48545 11.1019 8.07063C10.5405 8.29007 10.036 8.6233 9.60478 9.04593C9.17354 9.46856 8.84808 9.98059 8.62839 10.5414C8.0507 12.0125 8.08325 15.231 8.09952 17.3035C8.09952 17.6367 8.10766 17.9456 8.10766 18.2056C8.10766 18.4657 8.10766 18.7746 8.09952 19.1078C8.08325 21.1803 8.0507 24.3988 8.62839 25.8699C8.84808 26.4307 9.18168 26.9346 9.60478 27.3654C10.0279 27.7961 10.5405 28.1212 11.1019 28.3407C12.5746 28.9177 15.7885 28.8933 17.8633 28.869C18.1969 28.869 18.5061 28.8608 18.7746 28.8608C19.0431 28.8608 19.3605 28.8608 19.7022 28.869C21.777 28.8933 24.9747 28.9258 26.4474 28.3407C27.0088 28.1212 27.5133 27.788 27.9445 27.3654C28.3757 26.9427 28.7012 26.4307 28.9209 25.8699C29.5067 24.4069 29.4742 21.2047 29.4498 19.1241C29.4498 18.7827 29.4416 18.4657 29.4416 18.1975C29.4416 17.9293 29.4416 17.6205 29.4498 17.271C29.4742 15.1985 29.5067 11.9962 28.9209 10.5251C28.7012 9.96434 28.3676 9.46043 27.9445 9.02968V9.04593ZM22.4849 12.6627C23.9566 13.6456 24.9771 15.1723 25.322 16.9068C25.6668 18.6414 25.3078 20.4417 24.3237 21.9118C23.8365 22.6397 23.2105 23.2646 22.4815 23.7509C21.7525 24.2371 20.9347 24.5752 20.0749 24.7458C18.3384 25.0902 16.5361 24.7315 15.0644 23.7486C13.5927 22.7668 12.5717 21.2411 12.2261 19.5073C11.8805 17.7736 12.2385 15.9736 13.2215 14.5036C14.2044 13.0335 15.7317 12.0136 17.4674 11.6684C19.2031 11.3232 21.005 11.6808 22.4768 12.6627H22.4849ZM24.8608 12.557C24.6085 12.3863 24.4051 12.1425 24.2831 11.8581C24.161 11.5736 24.1366 11.2647 24.1936 10.9559C24.2505 10.6471 24.4051 10.3788 24.6167 10.1594C24.8282 9.93996 25.113 9.79366 25.414 9.73677C25.7151 9.67988 26.0324 9.70426 26.3172 9.82617C26.602 9.94808 26.8461 10.1431 27.0169 10.3951C27.1878 10.6471 27.2773 10.9478 27.2773 11.2566C27.2773 11.4598 27.2366 11.663 27.1634 11.8499C27.0902 12.0369 26.9681 12.2075 26.8298 12.3538C26.6915 12.5001 26.5125 12.6139 26.3253 12.6952C26.1382 12.7765 25.9348 12.8171 25.7314 12.8171C25.4222 12.8171 25.1211 12.7277 24.8689 12.557H24.8608ZM37.0004 5.20161C37.0004 2.3326 34.6653 0 31.7931 0H5.7562C2.88401 0 0.548828 2.3326 0.548828 5.20161V31.2097C0.548828 34.0787 2.88401 36.4113 5.7562 36.4113H31.7931C34.6653 36.4113 37.0004 34.0787 37.0004 31.2097V5.20161ZM29.5962 29.0152C28.0747 30.5351 26.2277 31.0146 24.1447 31.1203C21.9967 31.2422 15.5526 31.2422 13.4045 31.1203C11.3216 31.0146 9.47459 30.5351 7.95306 29.0152C6.43153 27.4954 5.95148 25.6505 5.85384 23.5698C5.73179 21.4241 5.73179 14.9871 5.85384 12.8415C5.95961 10.7608 6.43153 8.91589 7.95306 7.39604C9.47459 5.8762 11.3297 5.39667 13.4045 5.29914C15.5526 5.17723 21.9967 5.17723 24.1447 5.29914C26.2277 5.4048 28.0747 5.8762 29.5962 7.39604C31.1177 8.91589 31.5978 10.7608 31.6954 12.8415C31.8175 14.979 31.8175 21.4079 31.6954 23.5617C31.5897 25.6423 31.1177 27.4873 29.5962 29.0071V29.0152Z" fill="white"/>
</svg>
