<svg width="35" height="36" viewBox="0 0 35 36" fill="none" xmlns="http://www.w3.org/2000/svg">
<path d="M32.3502 0.847656H2.4807C1.11204 0.847656 0 1.97133 0 3.35074V33.0623C0 34.4417 1.11204 35.5654 2.4807 35.5654H32.3502C33.7189 35.5654 34.8387 34.4417 34.8387 33.0623V3.35074C34.8387 1.97133 33.7189 0.847656 32.3502 0.847656ZM10.5294 30.6057H5.36578V14.0373H10.5372V30.6057H10.5294ZM7.94758 11.7744C6.29119 11.7744 4.95363 10.4338 4.95363 8.79089C4.95363 7.148 6.29119 5.80733 7.94758 5.80733C9.5962 5.80733 10.9415 7.148 10.9415 8.79089C10.9415 10.4415 9.60397 11.7744 7.94758 11.7744ZM29.8851 30.6057H24.7215V22.5462C24.7215 20.6244 24.6826 18.1523 22.0386 18.1523C19.3479 18.1523 18.9358 20.2446 18.9358 22.4068V30.6057H13.7722V14.0373H18.7258V16.3002H18.7958C19.4879 14.9982 21.1754 13.6266 23.6872 13.6266C28.913 13.6266 29.8851 17.0596 29.8851 21.5233V30.6057Z" fill="white"/>
</svg>
