<svg width="205" height="145" viewBox="0 0 205 145" fill="none" xmlns="http://www.w3.org/2000/svg">
<mask id="mask0_73_8917" style="mask-type:alpha" maskUnits="userSpaceOnUse" x="40" y="0" width="126" height="145">
<path d="M40.1963 0H165.608V45.0196H40.1963V0Z" fill="#614343"/>
<path d="M40.1963 99.6863H165.608V144.706H40.1963V99.6863Z" fill="#614343"/>
</mask>
<g mask="url(#mask0_73_8917)">
<path fill-rule="evenodd" clip-rule="evenodd" d="M102.902 7.42631L46.6736 39.8896V104.816L102.902 137.28L159.13 104.816V39.8896L102.902 7.42631ZM165.561 36.1765L102.902 0L40.2422 36.1765V108.529L102.902 144.706L165.561 108.529V36.1765Z" fill="white"/>
</g>
<path d="M75.6212 51.7893L80.1689 47.2416L134.741 100.677L129.056 106.361L75.6212 51.7893Z" fill="white"/>
<path d="M70.3945 53.6128L81.2905 42.7168L87.7542 49.1805L76.8582 60.0765L70.3945 53.6128Z" fill="white"/>
<path d="M83.7836 40.2236L81.2905 42.7168L84.43 45.8563L90.8937 39.3926L83.7836 40.2236Z" fill="white"/>
<path d="M68.7322 55.2749L65.7773 58.2297L72.2411 64.6934L75.1959 61.7386L68.7322 55.2749Z" fill="white"/>
<path d="M72.2412 54.3515L69.471 57.1217L73.5339 61.1846L76.3041 58.4144L72.2412 54.3515Z" fill="white"/>
<path d="M85.0198 97.6083L79.9037 92.4922L122.538 49.8578L127.654 54.974L85.0198 97.6083Z" fill="white"/>
<path d="M134.191 55.2582C130.895 58.5547 125.55 58.5547 122.254 55.2582C118.957 51.9617 118.957 46.617 122.254 43.3206C124.156 41.4181 126.741 40.6136 129.221 40.907L124.302 45.8254L125.436 52.0757L131.687 53.2099L136.605 48.2915C136.898 50.771 136.094 53.3557 134.191 55.2582Z" fill="white"/>
<path d="M85.3041 104.146C88.6006 100.849 88.6006 95.5044 85.3041 92.2079C82.0076 88.9115 76.663 88.9115 73.3665 92.2079C71.464 94.1104 70.6595 96.6951 70.9529 99.1746L75.8713 94.2562L82.1216 95.3904L83.2558 101.641L78.3374 106.559C80.8169 106.853 83.4016 106.048 85.3041 104.146Z" fill="white"/>
<path d="M5.53076 91.4961H0V53.8123H5.53076V70.4936H24.989V53.8123H30.5197V91.4961H24.989V75.3423H5.53076V91.4961Z" fill="white"/>
<path d="M59.155 88.5065C56.0376 90.8345 52.6102 91.9985 48.8728 91.9985C46.208 91.9985 43.8197 91.4124 41.7079 90.24C39.5962 89.0676 37.9286 87.4681 36.7051 85.4416C35.4816 83.415 34.8699 81.1289 34.8699 78.5831C34.8699 76.1546 35.4314 73.9857 36.5543 72.0764C37.6772 70.1503 39.2107 68.6346 41.1549 67.5292C43.099 66.4238 45.3029 65.8711 47.7666 65.8711C50.3141 65.8711 52.5516 66.474 54.479 67.6799C56.4231 68.8858 57.9315 70.569 59.0041 72.7295C60.0935 74.8733 60.6382 77.3605 60.6382 80.1909V80.9949H40.4509C40.7526 82.3012 41.3225 83.4485 42.1605 84.4367C42.9984 85.4081 44.0376 86.1701 45.2778 86.7228C46.518 87.2588 47.9175 87.5267 49.4761 87.5267C52.2583 87.5267 54.8142 86.6223 57.1438 84.8135L59.155 88.5065ZM40.2247 77.4275H55.8365C55.6689 76.0206 55.2332 74.798 54.5292 73.7596C53.8253 72.7044 52.9119 71.8838 51.789 71.2976C50.6828 70.6946 49.4342 70.3932 48.0432 70.3932C46.6353 70.3932 45.37 70.6946 44.2471 71.2976C43.1241 71.8838 42.2107 72.7044 41.5068 73.7596C40.8197 74.8147 40.3923 76.0374 40.2247 77.4275Z" fill="white"/>
<path d="M175.837 86.6977C174.094 88.4395 172.016 89.8045 169.602 90.7927C167.205 91.7641 164.591 92.2498 161.759 92.2498C158.926 92.2498 156.312 91.7641 153.915 90.7927C151.518 89.8213 149.432 88.4563 147.655 86.6977C145.895 84.9224 144.521 82.8456 143.532 80.4673C142.56 78.0723 142.074 75.4679 142.074 72.6542C142.074 69.8237 142.56 67.2193 143.532 64.8411C144.521 62.4461 145.895 60.3693 147.655 58.6107C149.432 56.8521 151.518 55.4871 153.915 54.5157C156.312 53.5443 158.926 53.0586 161.759 53.0586C164.574 53.0586 167.18 53.5527 169.577 54.5408C171.99 55.5122 174.06 56.8605 175.787 58.5856L171.94 62.5047C170.683 61.0811 169.175 59.9673 167.415 59.1634C165.672 58.3427 163.761 57.9324 161.683 57.9324C159.672 57.9324 157.82 58.3008 156.127 59.0378C154.434 59.7579 152.96 60.788 151.703 62.1278C150.446 63.451 149.465 65.0086 148.761 66.8006C148.074 68.5927 147.731 70.5439 147.731 72.6542C147.731 74.7645 148.074 76.7157 148.761 78.5077C149.465 80.2998 150.446 81.8658 151.703 83.2057C152.96 84.5288 154.434 85.5588 156.127 86.2957C157.82 87.0159 159.672 87.376 161.683 87.376C163.761 87.376 165.672 86.974 167.415 86.1701C169.175 85.3494 170.675 84.2273 171.915 82.8037L175.837 86.6977Z" fill="white"/>
<path d="M191.776 91.9985C189.262 91.9985 187 91.4291 184.989 90.2902C182.978 89.1513 181.394 87.6021 180.237 85.6425C179.081 83.6662 178.503 81.4303 178.503 78.9348C178.503 76.4561 179.081 74.2369 180.237 72.2773C181.394 70.301 182.978 68.7434 184.989 67.6045C187 66.4489 189.262 65.8711 191.776 65.8711C194.307 65.8711 196.57 66.4489 198.564 67.6045C200.559 68.7434 202.126 70.301 203.265 72.2773C204.422 74.2369 205 76.4561 205 78.9348C205 81.4303 204.422 83.6662 203.265 85.6425C202.126 87.6021 200.559 89.1513 198.564 90.2902C196.57 91.4291 194.307 91.9985 191.776 91.9985ZM191.751 87.376C193.276 87.376 194.634 87.0075 195.824 86.2706C197.031 85.5169 197.978 84.512 198.665 83.2559C199.369 81.983 199.721 80.5343 199.721 78.9097C199.721 77.3186 199.369 75.895 198.665 74.6389C197.978 73.366 197.031 72.3611 195.824 71.6242C194.634 70.8705 193.276 70.4936 191.751 70.4936C190.243 70.4936 188.885 70.8705 187.679 71.6242C186.472 72.3611 185.517 73.366 184.813 74.6389C184.126 75.895 183.782 77.3186 183.782 78.9097C183.782 80.5343 184.126 81.983 184.813 83.2559C185.517 84.512 186.472 85.5169 187.679 86.2706C188.885 87.0075 190.243 87.376 191.751 87.376Z" fill="white"/>
</svg>
