<svg width="93" height="155" viewBox="0 0 93 155" fill="none" xmlns="http://www.w3.org/2000/svg">
<path d="M34.7419 9C23.4201 9 14.2419 18.1782 14.2419 29.5C14.2419 37.9299 19.3302 45.1714 26.6029 48.3207C26.656 48.3437 26.7091 48.3665 26.7624 48.389C29.215 49.4264 31.9115 50 34.7419 50C37.6339 50 40.386 49.4012 42.881 48.3207C42.881 48.3207 42.9571 48.2457 43.1582 48.1982C50.2827 44.9864 55.2419 37.8224 55.2419 29.5C55.2419 18.1782 46.0638 9 34.7419 9Z" fill="white"/>
<path d="M26.6029 48.3207C26.6029 48.3207 17.2434 47.5011 1.74139 73.5005C-1.23942 78.4998 5.24122 88.5005 12.7414 94.5005C14.4907 95.9 16.1755 96.4479 17.7414 96.2674C18.9933 96.1231 20.1692 95.5132 21.2414 94.5005C23.7967 92.0873 24 88.5 22.5 85.5C21.8604 84.4767 20 82.106 19.2414 81.606C17.5 80.287 16 78.5 15.5 77C15 74.5 15.7414 73.0005 17.7414 71.5005C19.2414 70.5005 19.2414 75.5005 19.2414 75.5005V81.606C20 82.106 21.8604 84.4767 22.5 85.5C24 88.5 23.7967 92.0873 21.2414 94.5005C20.1692 95.5132 18.9933 96.1231 17.7414 96.2674C17.7414 96.2674 12.7419 134.5 13.7419 148C13.9847 151.277 17.7425 154 20.7419 154L20.8938 153.983C23.5814 153.675 26.7604 152.926 27.7419 149C29.7419 135 30.7419 124.5 34.7419 110C36.3971 104 41.2419 104.5 42.7419 110C46.2419 125 46.2419 136 50.7419 148.5C51.462 150.5 55.4242 153.288 58.7419 152.5C63.7419 152 64.4122 148 64.2419 146C60.2419 120.5 57.5 89 55 73.5C55 73.5 57.5 76 60 77C62.5 78 68.5 80.5 73.5 78.5C76.5 77 88.2419 66.0002 90.7419 62.5C91.7419 59.5 92.0006 56.9544 89.7419 54.9998C87.5222 53.079 84.7419 53.5 81.7419 54.9998C79.2419 57 76 60.1 70.5 64.5C68 66.5 63.8611 64 61.5 61.5C47.2727 46.4359 44.1903 47.9545 43.1582 48.1982C43.0679 48.2389 42.9773 48.279 42.8864 48.3184L42.881 48.3207C40.386 49.4012 37.6339 50 34.7419 50C31.9115 50 29.215 49.4264 26.7624 48.389C26.7091 48.3665 26.656 48.3437 26.6029 48.3207Z" fill="white"/>
<path d="M34.7419 50C37.6339 50 40.386 49.4012 42.881 48.3207M34.7419 50C31.9115 50 29.215 49.4264 26.7624 48.389M34.7419 50C37.636 50 40.3899 49.4003 42.8864 48.3184M14.2419 29.5C14.2419 18.1782 23.4201 9 34.7419 9C46.0638 9 55.2419 18.1782 55.2419 29.5C55.2419 37.8224 50.2827 44.9864 43.1582 48.1982M14.2419 29.5C14.2419 37.9299 19.3302 45.1714 26.6029 48.3207M14.2419 29.5C14.2419 37.9914 19.4047 45.2769 26.7624 48.389M26.6029 48.3207C26.6029 48.3207 17.2434 47.5011 1.74139 73.5005C-1.23942 78.4998 5.24122 88.5005 12.7414 94.5005C14.4907 95.9 16.1755 96.4479 17.7414 96.2674M26.6029 48.3207C26.656 48.3437 26.7091 48.3665 26.7624 48.389M19.2414 81.606C20 82.106 21.8604 84.4767 22.5 85.5C24 88.5 23.7967 92.0873 21.2414 94.5005C20.1692 95.5132 18.9933 96.1231 17.7414 96.2674M19.2414 81.606C17.5 80.287 16 78.5 15.5 77C15 74.5 15.7414 73.0005 17.7414 71.5005C19.2414 70.5005 19.2414 75.5005 19.2414 75.5005V81.606ZM42.881 48.3207C42.881 48.3207 42.9571 48.2457 43.1582 48.1982M42.881 48.3207L42.8864 48.3184M55 73.5C57.5 89 60.2419 120.5 64.2419 146C64.4122 148 63.7419 152 58.7419 152.5C55.4242 153.288 51.462 150.5 50.7419 148.5C46.2419 136 46.2419 125 42.7419 110C41.2419 104.5 36.3971 104 34.7419 110C30.7419 124.5 29.7419 135 27.7419 149C26.7604 152.926 23.5814 153.675 20.8938 153.983M55 73.5L54.5 70.5M55 73.5C55 73.5 57.5 76 60 77C62.5 78 68.5 80.5 73.5 78.5C76.5 77 88.2419 66.0002 90.7419 62.5C91.7419 59.5 92.0006 56.9544 89.7419 54.9998C87.5222 53.079 84.7419 53.5 81.7419 54.9998C79.2419 57 76 60.1 70.5 64.5C68 66.5 63.8611 64 61.5 61.5C47.2727 46.4359 44.1903 47.9545 43.1582 48.1982M20.7419 154C17.7425 154 13.9847 151.277 13.7419 148C12.7419 134.5 17.7414 96.2674 17.7414 96.2674M20.7419 154L20.8938 153.983M20.7419 154C20.7927 153.994 20.8434 153.988 20.8938 153.983M43.1582 48.1982C43.0679 48.2389 42.9773 48.279 42.8864 48.3184" stroke="black" stroke-width="2"/>
<path d="M8.16415 27.8682C10.1666 28.995 57.3604 25.2477 59.6187 23.3102C60.9321 20.9403 56.7047 19.6906 56.7047 19.6906C56.7047 19.6906 56.1954 13.5766 51.9454 8.49916C51.8089 8.33606 51.6685 8.17404 51.5242 8.01331C50.2883 6.63723 48.7617 5.35691 46.877 4.32113C45.5793 3.60793 44.1118 3.01066 42.4527 2.57788C40.1155 1.96825 37.3979 1.68503 34.2386 1.86397C33.925 1.88173 33.6157 1.90216 33.3106 1.92517C29.8942 2.18293 27.0084 2.76599 24.572 3.58059C20.5003 4.94195 17.6836 6.94997 15.7429 9.16694C10.3517 15.3255 11.7199 23.0963 11.7199 23.0963C11.7199 23.0963 6.44902 24.8128 8.16415 27.8682Z" fill="white"/>
<path d="M15.7429 9.16694C10.3517 15.3255 11.7199 23.0963 11.7199 23.0963C11.7199 23.0963 6.44902 24.8128 8.16415 27.8682C10.1666 28.995 57.3604 25.2477 59.6187 23.3102C60.9321 20.9403 56.7047 19.6906 56.7047 19.6906C56.7047 19.6906 56.1954 13.5766 51.9454 8.49916C51.8089 8.33606 51.6685 8.17404 51.5242 8.01331M15.7429 9.16694L20.8545 22.0246M15.7429 9.16694C17.6836 6.94997 20.5003 4.94195 24.572 3.58059M51.5242 8.01331C50.2883 6.63723 48.7617 5.35691 46.877 4.32113C45.5793 3.60793 44.1118 3.01066 42.4527 2.57788M51.5242 8.01331L49.2007 19.6906M24.572 3.58059C27.0084 2.76599 29.8942 2.18293 33.3106 1.92517C33.6157 1.90216 33.925 1.88173 34.2386 1.86397C37.3979 1.68503 40.1155 1.96825 42.4527 2.57788M24.572 3.58059L28.2896 21.0952L42.695 20.1658L42.4527 2.57788" stroke="black" stroke-width="2" stroke-linejoin="round"/>
</svg>
