<svg width="71" height="163" viewBox="0 0 71 163" fill="none" xmlns="http://www.w3.org/2000/svg">
<path d="M9.22598 109.423C7.72417 103.422 13.7247 61.9224 26.726 55.9229C37.7241 58.9199 40.2241 57.9194 49.7241 55.4199C68.2241 66.4199 65.7241 77.4194 69.2241 100.419C69.7241 106.919 68.2241 112.922 64.226 113.923C62.1508 113.878 60.7241 112.922 60.226 110.423C59.2241 95.9224 56.726 79.9229 56.726 79.9229C56.726 79.9229 62.226 115.923 62.226 156.423C61.7241 159.922 59.0818 161.423 54.726 161.423C50.2241 161.422 47.2241 159.922 46.226 156.423C45.2241 142.422 45.2241 142.922 43.226 115.923C41.7241 110.922 42.2241 109.922 38.226 109.423C35.1425 109.578 34.3694 111.422 33.726 115.923C31.2241 133.422 31.7241 128.922 28.226 156.423C27.2241 159.422 27.7241 161.922 18.726 161.423C15.393 160.29 14.7241 159.922 13.726 153.923C13.9621 142.31 15.547 125.306 17.149 110.63C15.1233 115.959 11.2028 117.321 9.22598 109.423Z" fill="white" stroke="black" stroke-width="2" stroke-linejoin="round"/>
<path d="M57.8804 30.5694C61.6153 42.1314 55.2703 54.532 43.7083 58.267C32.1464 62.0019 19.7458 55.6569 16.0108 44.0949C12.2758 32.533 18.6209 20.1324 30.1828 16.3974C41.7448 12.6624 54.1454 19.0075 57.8804 30.5694Z" fill="white"/>
<path d="M56.9288 30.8768C60.494 41.9132 54.4374 53.7502 43.4009 57.3154L44.0157 59.2185C56.1032 55.3138 62.7367 42.3495 58.832 30.262L56.9288 30.8768ZM43.4009 57.3154C32.3645 60.8806 20.5276 54.824 16.9624 43.7875L15.0592 44.4023C18.964 56.4898 31.9282 63.1233 44.0157 59.2185L43.4009 57.3154ZM16.9624 43.7875C13.3972 32.7511 19.4538 20.9142 30.4902 17.349L29.8754 15.4458C17.7879 19.3506 11.1545 32.3148 15.0592 44.4023L16.9624 43.7875ZM30.4902 17.349C41.5266 13.7838 53.3636 19.8404 56.9288 30.8768L58.832 30.262C54.9272 18.1745 41.9629 11.5411 29.8754 15.4458L30.4902 17.349Z" fill="black"/>
<path d="M54.36 18.0466C50.2164 21.4866 19.3411 43.0203 13.1414 46.5996C8.06094 48.766 9.83987 44.5132 10.8061 42.6247C3.36979 26.1113 8.18647 18.25 17.578 11.5381C23.5532 8.35737 28.9796 6.42542 34.1056 6.51176C36.0903 6.5452 38.0301 6.88122 39.9392 7.5645C43.4584 8.82402 46.8737 11.2635 50.2754 15.1627C54.8791 13.1498 56.7532 15.6969 54.36 18.0466Z" fill="white"/>
<path d="M20.5277 17.4162L34.6986 23.8727M34.1056 6.51176C28.9796 6.42542 23.5532 8.35737 17.578 11.5381C8.18647 18.25 3.36979 26.1113 10.8061 42.6247C9.83987 44.5132 8.06094 48.766 13.1414 46.5996C19.3411 43.0203 50.2164 21.4866 54.36 18.0466C56.7532 15.6969 54.8791 13.1498 50.2754 15.1627C46.8737 11.2635 43.4584 8.82402 39.9392 7.5645M34.1056 6.51176L26.1129 11.9339L39.4712 20.7547L46.6374 15.287L34.1056 6.51176ZM34.1056 6.51176C36.0903 6.5452 38.0301 6.88122 39.9392 7.5645M39.9392 7.5645L45.7152 12.4323" stroke="black" stroke-width="2" stroke-linejoin="round"/>
</svg>
