<svg width="70" height="70" viewBox="0 0 70 70" fill="none" xmlns="http://www.w3.org/2000/svg">
<rect x="0.5" y="0.5" width="69" height="69" rx="14.5" fill="white" stroke="black"/>
<path d="M7.34375 30H5.28125V18.2812H7.34375V23.3203H12.8984V18.2812H14.9609V30H12.8984V25.1328H7.34375V30ZM24.5234 30H22.9375L22.875 28.7422C22.5938 29.2005 22.224 29.5521 21.7656 29.7969C21.3073 30.0365 20.7656 30.1562 20.1406 30.1562C19.1354 30.1562 18.3411 29.849 17.7578 29.2344C17.1797 28.6146 16.8906 27.763 16.8906 26.6797V22.1875H18.8125V26.3125C18.8125 26.9635 18.9766 27.4792 19.3047 27.8594C19.638 28.2344 20.0885 28.4219 20.6562 28.4219C21.2448 28.4219 21.7161 28.2214 22.0703 27.8203C22.4245 27.4193 22.6016 26.8854 22.6016 26.2188V22.1875H24.5234V30ZM28.5312 30H26.6094V22.1875H28.2812L28.3516 23.6094C28.6224 23.1094 28.987 22.7214 29.4453 22.4453C29.9089 22.1693 30.4401 22.0312 31.0391 22.0312C31.1953 22.0312 31.3542 22.0417 31.5156 22.0625C31.6823 22.0833 31.8464 22.1146 32.0078 22.1562L31.7734 23.8906C31.4505 23.7969 31.138 23.75 30.8359 23.75C30.3776 23.75 29.974 23.8568 29.625 24.0703C29.2812 24.2839 29.013 24.5807 28.8203 24.9609C28.6276 25.3359 28.5312 25.7734 28.5312 26.2734V30ZM38.2891 29.7969C37.7161 30.0365 37.1615 30.1562 36.625 30.1562C36.0781 30.1562 35.5964 30.0391 35.1797 29.8047C34.7682 29.5703 34.4453 29.2448 34.2109 28.8281C33.9818 28.4062 33.8672 27.9167 33.8672 27.3594V23.9062H32.5V22.1875H33.9688V20.2344H35.7891V22.1875H38.0156V23.9062H35.7891V27.0078C35.7891 27.4505 35.9089 27.7995 36.1484 28.0547C36.3932 28.3099 36.6979 28.4375 37.0625 28.4375C37.3854 28.4375 37.7057 28.3385 38.0234 28.1406L38.2891 29.7969ZM40.4766 20.1172C40.2057 20.1172 39.9766 20.0234 39.7891 19.8359C39.6068 19.6432 39.5156 19.4115 39.5156 19.1406C39.5156 18.875 39.6068 18.6484 39.7891 18.4609C39.9766 18.2682 40.2057 18.1719 40.4766 18.1719C40.7526 18.1719 40.9844 18.2682 41.1719 18.4609C41.3594 18.6484 41.4531 18.875 41.4531 19.1406C41.4531 19.4115 41.3594 19.6432 41.1719 19.8359C40.9844 20.0234 40.7526 20.1172 40.4766 20.1172ZM41.4375 30H39.5156V22.1875H41.4375V30ZM46.7891 30.0625C46.0651 30.0625 45.4193 29.888 44.8516 29.5391C44.2839 29.1901 43.8359 28.7135 43.5078 28.1094C43.1797 27.5 43.0156 26.8125 43.0156 26.0469C43.0156 25.276 43.1797 24.5885 43.5078 23.9844C43.8359 23.3802 44.2839 22.9036 44.8516 22.5547C45.4193 22.2057 46.0651 22.0312 46.7891 22.0312C47.3568 22.0312 47.8802 22.1406 48.3594 22.3594C48.8385 22.5781 49.2448 22.8828 49.5781 23.2734L49.6719 22.1875H51.3594V29.7891C51.3594 30.6536 51.1745 31.4062 50.8047 32.0469C50.4401 32.6875 49.9245 33.1823 49.2578 33.5312C48.5911 33.8854 47.8021 34.0625 46.8906 34.0625C45.625 34.0625 44.4922 33.6589 43.4922 32.8516L44.2812 31.2812C44.9792 31.9844 45.8073 32.3359 46.7656 32.3359C47.3073 32.3359 47.776 32.2266 48.1719 32.0078C48.5729 31.7943 48.8828 31.4896 49.1016 31.0938C49.3255 30.7031 49.4375 30.2448 49.4375 29.7188V28.9688C49.1042 29.3125 48.7109 29.5807 48.2578 29.7734C47.8047 29.9661 47.3151 30.0625 46.7891 30.0625ZM47.2109 28.3516C47.6224 28.3516 47.9948 28.2604 48.3281 28.0781C48.6667 27.8906 48.9349 27.6354 49.1328 27.3125C49.3359 26.9896 49.4375 26.6224 49.4375 26.2109V25.8672C49.4375 25.4557 49.3359 25.0911 49.1328 24.7734C48.9349 24.4557 48.6667 24.2057 48.3281 24.0234C47.9896 23.8359 47.6172 23.7422 47.2109 23.7422C46.7839 23.7422 46.401 23.8438 46.0625 24.0469C45.724 24.2448 45.4557 24.5182 45.2578 24.8672C45.0651 25.2161 44.9688 25.6094 44.9688 26.0469C44.9688 26.4844 45.0651 26.8776 45.2578 27.2266C45.4557 27.5755 45.724 27.8516 46.0625 28.0547C46.401 28.2526 46.7839 28.3516 47.2109 28.3516ZM52.8125 29.3281L53.25 27.6562C53.4219 27.8281 53.6354 27.9844 53.8906 28.125C54.1458 28.2656 54.4167 28.3776 54.7031 28.4609C54.9948 28.5391 55.2786 28.5781 55.5547 28.5781C55.9245 28.5781 56.2214 28.5026 56.4453 28.3516C56.6693 28.1953 56.7812 27.9922 56.7812 27.7422C56.7812 27.5443 56.7135 27.3802 56.5781 27.25C56.4427 27.1146 56.2656 26.9974 56.0469 26.8984C55.8281 26.7943 55.5885 26.6927 55.3281 26.5938C54.9844 26.4688 54.6354 26.3203 54.2812 26.1484C53.9271 25.9714 53.6302 25.7396 53.3906 25.4531C53.1562 25.1615 53.0391 24.776 53.0391 24.2969C53.0391 23.8333 53.1562 23.4323 53.3906 23.0938C53.6302 22.7552 53.9635 22.4948 54.3906 22.3125C54.8177 22.125 55.3151 22.0312 55.8828 22.0312C56.7786 22.0312 57.6719 22.2552 58.5625 22.7031L58.0078 24.2812C57.8411 24.1562 57.638 24.0417 57.3984 23.9375C57.1589 23.8333 56.9141 23.75 56.6641 23.6875C56.4141 23.625 56.1875 23.5938 55.9844 23.5938C55.6875 23.5938 55.4505 23.6589 55.2734 23.7891C55.0964 23.9193 55.0078 24.0911 55.0078 24.3047C55.0078 24.4505 55.0573 24.5833 55.1562 24.7031C55.2552 24.8177 55.4089 24.9297 55.6172 25.0391C55.8255 25.1484 56.0938 25.2708 56.4219 25.4062C56.776 25.5417 57.1302 25.7005 57.4844 25.8828C57.8438 26.0599 58.1432 26.2969 58.3828 26.5938C58.6276 26.8854 58.75 27.2734 58.75 27.7578C58.75 28.237 58.6198 28.6562 58.3594 29.0156C58.1042 29.375 57.7448 29.6562 57.2812 29.8594C56.8229 30.0573 56.2865 30.1562 55.6719 30.1562C54.651 30.1562 53.6979 29.8802 52.8125 29.3281ZM65.3516 29.7969C64.7786 30.0365 64.224 30.1562 63.6875 30.1562C63.1406 30.1562 62.6589 30.0391 62.2422 29.8047C61.8307 29.5703 61.5078 29.2448 61.2734 28.8281C61.0443 28.4062 60.9297 27.9167 60.9297 27.3594V23.9062H59.5625V22.1875H61.0312V20.2344H62.8516V22.1875H65.0781V23.9062H62.8516V27.0078C62.8516 27.4505 62.9714 27.7995 63.2109 28.0547C63.4557 28.3099 63.7604 28.4375 64.125 28.4375C64.4479 28.4375 64.7682 28.3385 65.0859 28.1406L65.3516 29.7969ZM24.3359 50H22.4141V45.9922C22.4141 45.2839 22.2656 44.7344 21.9688 44.3438C21.6771 43.9479 21.263 43.75 20.7266 43.75C20.1849 43.75 19.7604 43.9479 19.4531 44.3438C19.151 44.7396 19 45.2891 19 45.9922V50H17.0781V45.9922C17.0781 45.2839 16.9297 44.7344 16.6328 44.3438C16.3359 43.9479 15.9219 43.75 15.3906 43.75C14.8438 43.75 14.4167 43.9479 14.1094 44.3438C13.8073 44.7396 13.6562 45.2891 13.6562 45.9922V50H11.7344V42.1875H13.2734L13.3438 43.5156C13.6094 43.0312 13.9609 42.6641 14.3984 42.4141C14.8411 42.1589 15.362 42.0312 15.9609 42.0312C16.5807 42.0312 17.1146 42.1667 17.5625 42.4375C18.0156 42.7031 18.362 43.0859 18.6016 43.5859C18.862 43.0755 19.2188 42.6901 19.6719 42.4297C20.125 42.1641 20.6589 42.0312 21.2734 42.0312C22.237 42.0312 22.987 42.3385 23.5234 42.9531C24.0651 43.5625 24.3359 44.4115 24.3359 45.5V50ZM33.6641 50H32.0781L32.0156 48.7422C31.7344 49.2005 31.3646 49.5521 30.9062 49.7969C30.4479 50.0365 29.9062 50.1562 29.2812 50.1562C28.276 50.1562 27.4818 49.849 26.8984 49.2344C26.3203 48.6146 26.0312 47.763 26.0312 46.6797V42.1875H27.9531V46.3125C27.9531 46.9635 28.1172 47.4792 28.4453 47.8594C28.7786 48.2344 29.2292 48.4219 29.7969 48.4219C30.3854 48.4219 30.8568 48.2214 31.2109 47.8203C31.5651 47.4193 31.7422 46.8854 31.7422 46.2188V42.1875H33.6641V50ZM37.8047 50H35.75V37.9688H37.8047V50ZM40.8672 40.1172C40.5964 40.1172 40.3672 40.0234 40.1797 39.8359C39.9974 39.6432 39.9062 39.4115 39.9062 39.1406C39.9062 38.875 39.9974 38.6484 40.1797 38.4609C40.3672 38.2682 40.5964 38.1719 40.8672 38.1719C41.1432 38.1719 41.375 38.2682 41.5625 38.4609C41.75 38.6484 41.8438 38.875 41.8438 39.1406C41.8438 39.4115 41.75 39.6432 41.5625 39.8359C41.375 40.0234 41.1432 40.1172 40.8672 40.1172ZM41.8281 50H39.9062V42.1875H41.8281V50ZM47.1797 50.0625C46.4557 50.0625 45.8099 49.888 45.2422 49.5391C44.6745 49.1901 44.2266 48.7135 43.8984 48.1094C43.5703 47.5 43.4062 46.8125 43.4062 46.0469C43.4062 45.276 43.5703 44.5885 43.8984 43.9844C44.2266 43.3802 44.6745 42.9036 45.2422 42.5547C45.8099 42.2057 46.4557 42.0312 47.1797 42.0312C47.7474 42.0312 48.2708 42.1406 48.75 42.3594C49.2292 42.5781 49.6354 42.8828 49.9688 43.2734L50.0625 42.1875H51.75V49.7891C51.75 50.6536 51.5651 51.4062 51.1953 52.0469C50.8307 52.6875 50.3151 53.1823 49.6484 53.5312C48.9818 53.8854 48.1927 54.0625 47.2812 54.0625C46.0156 54.0625 44.8828 53.6589 43.8828 52.8516L44.6719 51.2812C45.3698 51.9844 46.1979 52.3359 47.1562 52.3359C47.6979 52.3359 48.1667 52.2266 48.5625 52.0078C48.9635 51.7943 49.2734 51.4896 49.4922 51.0938C49.7161 50.7031 49.8281 50.2448 49.8281 49.7188V48.9688C49.4948 49.3125 49.1016 49.5807 48.6484 49.7734C48.1953 49.9661 47.7057 50.0625 47.1797 50.0625ZM47.6016 48.3516C48.013 48.3516 48.3854 48.2604 48.7188 48.0781C49.0573 47.8906 49.3255 47.6354 49.5234 47.3125C49.7266 46.9896 49.8281 46.6224 49.8281 46.2109V45.8672C49.8281 45.4557 49.7266 45.0911 49.5234 44.7734C49.3255 44.4557 49.0573 44.2057 48.7188 44.0234C48.3802 43.8359 48.0078 43.7422 47.6016 43.7422C47.1745 43.7422 46.7917 43.8438 46.4531 44.0469C46.1146 44.2448 45.8464 44.5182 45.6484 44.8672C45.4557 45.2161 45.3594 45.6094 45.3594 46.0469C45.3594 46.4844 45.4557 46.8776 45.6484 47.2266C45.8464 47.5755 46.1146 47.8516 46.4531 48.0547C46.7917 48.2526 47.1745 48.3516 47.6016 48.3516ZM58.8984 49.7969C58.3255 50.0365 57.7708 50.1562 57.2344 50.1562C56.6875 50.1562 56.2057 50.0391 55.7891 49.8047C55.3776 49.5703 55.0547 49.2448 54.8203 48.8281C54.5911 48.4062 54.4766 47.9167 54.4766 47.3594V43.9062H53.1094V42.1875H54.5781V40.2344H56.3984V42.1875H58.625V43.9062H56.3984V47.0078C56.3984 47.4505 56.5182 47.7995 56.7578 48.0547C57.0026 48.3099 57.3073 48.4375 57.6719 48.4375C57.9948 48.4375 58.3151 48.3385 58.6328 48.1406L58.8984 49.7969Z" fill="black"/>
</svg>
