<svg width="70" height="70" viewBox="0 0 70 70" fill="none" xmlns="http://www.w3.org/2000/svg">
<rect x="0.5" y="0.5" width="69" height="69" rx="14.5" fill="white" stroke="black"/>
<path d="M22.8418 45.5156L22.7148 43.2598C23.8672 43.2598 24.7266 42.9831 25.293 42.4297C25.8594 41.8828 26.1426 41.0527 26.1426 39.9395V27.3516H28.7207V39.9004C28.7207 41.222 28.5189 42.2962 28.1152 43.123C27.7116 43.9499 27.0768 44.5553 26.2109 44.9395C25.3516 45.3236 24.2285 45.5156 22.8418 45.5156ZM33.0371 42H30.332L36.2305 27.3516H38.9746L44.8633 42H42.1582L40.8203 38.582H34.375L33.0371 42ZM35.2246 36.3262H39.9707L37.5977 30.2617L35.2246 36.3262Z" fill="black"/>
</svg>
