<svg width="25" height="29" viewBox="0 0 25 29" fill="none" xmlns="http://www.w3.org/2000/svg">
<path fill-rule="evenodd" clip-rule="evenodd" d="M5.35714 3.56151V1.78075C5.35714 0.795774 6.15513 0 7.14286 0C8.13058 0 8.92857 0.795774 8.92857 1.78075V3.56151H16.0714V1.78075C16.0714 0.795774 16.8694 0 17.8571 0C18.8449 0 19.6429 0.795774 19.6429 1.78075V3.56151H22.3214C23.8002 3.56151 25 4.75795 25 6.23264V8.90377H0V6.23264C0 4.75795 1.19978 3.56151 2.67857 3.56151H5.35714ZM0 10.6845H25V25.8209C25 27.2956 23.8002 28.4921 22.3214 28.4921H2.67857C1.19978 28.4921 0 27.2956 0 25.8209V10.6845ZM3.86378 24.2643C4.01458 24.4372 4.20973 24.5236 4.44923 24.5236H10.5831C11.1064 24.5236 11.3681 24.2481 11.3681 23.697C11.3681 23.1351 11.1064 22.8542 10.5831 22.8542H6.24547L9.37227 19.8718C10.0464 19.2343 10.5298 18.6508 10.8226 18.1213C11.1153 17.5919 11.2616 17.0408 11.2616 16.4681C11.2616 15.3875 10.9468 14.5447 10.317 13.9396C9.68716 13.3236 8.809 13.0157 7.68247 13.0157C6.89301 13.0157 6.18338 13.1778 5.55358 13.5019C4.92379 13.8261 4.40487 14.2907 3.99684 14.8959C3.84604 15.1336 3.77064 15.3605 3.77064 15.5766C3.77064 15.89 3.89039 16.1439 4.12989 16.3384C4.26295 16.4573 4.40931 16.5167 4.56898 16.5167C4.81735 16.5167 5.0391 16.3546 5.23425 16.0304C5.50036 15.5982 5.83743 15.2741 6.24547 15.0579C6.66238 14.831 7.14138 14.7176 7.68247 14.7176C8.25017 14.7176 8.69368 14.8742 9.01302 15.1876C9.33235 15.4902 9.49202 15.917 9.49202 16.4681C9.49202 16.8787 9.42105 17.2191 9.27913 17.4892C9.1372 17.7593 8.84892 18.0997 8.41427 18.5103L4.07667 22.6435C3.93475 22.7731 3.8283 22.9244 3.75734 23.0973C3.68638 23.2594 3.65089 23.4269 3.65089 23.5998C3.65089 23.8591 3.72186 24.0806 3.86378 24.2643ZM13.845 24.2643C13.9958 24.4372 14.1909 24.5236 14.4304 24.5236H20.5643C21.0876 24.5236 21.3493 24.2481 21.3493 23.697C21.3493 23.1351 21.0876 22.8542 20.5643 22.8542H16.2267L19.3535 19.8718C20.0276 19.2343 20.5111 18.6508 20.8038 18.1213C21.0965 17.5919 21.2429 17.0408 21.2429 16.4681C21.2429 15.3875 20.928 14.5447 20.2982 13.9396C19.6684 13.3236 18.7902 13.0157 17.6637 13.0157C16.8742 13.0157 16.1646 13.1778 15.5348 13.5019C14.905 13.8261 14.3861 14.2907 13.9781 14.8959C13.8273 15.1336 13.7519 15.3605 13.7519 15.5766C13.7519 15.89 13.8716 16.1439 14.1111 16.3384C14.2442 16.4573 14.3905 16.5167 14.5502 16.5167C14.7986 16.5167 15.0203 16.3546 15.2155 16.0304C15.4816 15.5982 15.8186 15.2741 16.2267 15.0579C16.6436 14.831 17.1226 14.7176 17.6637 14.7176C18.2314 14.7176 18.6749 14.8742 18.9942 15.1876C19.3136 15.4902 19.4732 15.917 19.4732 16.4681C19.4732 16.8787 19.4023 17.2191 19.2603 17.4892C19.1184 17.7593 18.8301 18.0997 18.3955 18.5103L14.0579 22.6435C13.916 22.7731 13.8095 22.9244 13.7386 23.0973C13.6676 23.2594 13.6321 23.4269 13.6321 23.5998C13.6321 23.8591 13.7031 24.0806 13.845 24.2643Z" fill="white"/>
</svg>
