<svg width="70" height="70" viewBox="0 0 70 70" fill="none" xmlns="http://www.w3.org/2000/svg">
<rect x="0.5" y="0.5" width="69" height="69" rx="14.5" fill="white" stroke="black"/>
<path d="M33.0176 42H30.1074L22.4707 31.3457V42H19.8926V27.3516H22.8027L30.4395 38.0156V27.3516H33.0176V42ZM35.6152 42V27.3516H44.9023V29.6172H38.1934V33.4746H44.5117V35.7305H38.1934V39.7344H45V42H35.6152ZM44.2188 45.5156L44.0918 43.2598C45.2441 43.2598 46.1035 42.9831 46.6699 42.4297C47.2363 41.8828 47.5195 41.0527 47.5195 39.9395V27.3516H50.0977V39.9004C50.0977 41.222 49.8958 42.2962 49.4922 43.123C49.0885 43.9499 48.4538 44.5553 47.5879 44.9395C46.7285 45.3236 45.6055 45.5156 44.2188 45.5156Z" fill="black"/>
</svg>
