<svg width="70" height="70" viewBox="0 0 70 70" fill="none" xmlns="http://www.w3.org/2000/svg">
<rect x="0.5" y="0.5" width="69" height="69" rx="14.5" fill="white" stroke="black"/>
<path d="M24 12.75C24 10.6816 25.7111 9 27.8158 9H37.3553V16.5C37.3553 17.5371 38.2079 18.375 39.2632 18.375H46.8947V35.25C46.8947 37.3184 45.1836 39 43.0789 39H27.8158C25.7111 39 24 37.3184 24 35.25V12.75ZM46.8947 16.5H39.2632V9L46.8947 16.5Z" fill="black"/>
<path d="M13.1133 62H10.5352V49.8906L7.99609 50.8086L7.18555 48.7578L11.0527 47.3516H13.1133V62ZM22 62H19.4219V49.8906L16.8828 50.8086L16.0723 48.7578L19.9395 47.3516H22V62ZM35.6738 58.0254H27.8613V56.1699H35.6738V58.0254ZM50.1875 62H41.0273V60.4668C42.1992 59.4316 43.1855 58.5104 43.9863 57.7031C44.7936 56.8958 45.4414 56.1667 45.9297 55.5156C46.4245 54.8581 46.7826 54.2493 47.0039 53.6895C47.2253 53.1296 47.3359 52.5859 47.3359 52.0586C47.3359 51.5052 47.2318 51.0234 47.0234 50.6133C46.8216 50.1966 46.5384 49.8743 46.1738 49.6465C45.8092 49.4186 45.3861 49.3047 44.9043 49.3047C44.3444 49.3047 43.8073 49.4642 43.293 49.7832C42.7852 50.0957 42.362 50.5319 42.0234 51.0918L40.6855 49.4512C41.2324 48.696 41.9193 48.11 42.7461 47.6934C43.5794 47.2702 44.4551 47.0586 45.373 47.0586C46.2389 47.0586 47.0169 47.2474 47.707 47.625C48.4036 47.9961 48.9538 48.5169 49.3574 49.1875C49.7676 49.8581 49.9727 50.6491 49.9727 51.5605C49.9727 52.2311 49.8555 52.9082 49.6211 53.5918C49.3867 54.2754 49.0384 54.9622 48.5762 55.6523C48.1204 56.3424 47.5605 57.0293 46.8965 57.7129C46.2324 58.3965 45.474 59.0736 44.6211 59.7441H50.1875V62ZM57.3652 62.293C56.291 62.293 55.36 61.9967 54.5723 61.4043C53.791 60.8053 53.1888 59.9395 52.7656 58.8066C52.3424 57.6673 52.1309 56.2871 52.1309 54.666C52.1309 53.0514 52.3424 51.6777 52.7656 50.5449C53.1888 49.4121 53.791 48.5495 54.5723 47.957C55.36 47.3581 56.291 47.0586 57.3652 47.0586C58.4395 47.0586 59.3672 47.3581 60.1484 47.957C60.9297 48.5495 61.5319 49.4121 61.9551 50.5449C62.3783 51.6777 62.5898 53.0514 62.5898 54.666C62.5898 56.2871 62.3783 57.6673 61.9551 58.8066C61.5319 59.9395 60.9297 60.8053 60.1484 61.4043C59.3672 61.9967 58.4395 62.293 57.3652 62.293ZM57.3652 60.0273C58.1855 60.0273 58.8203 59.5586 59.2695 58.6211C59.7253 57.6836 59.9531 56.3652 59.9531 54.666C59.9531 52.9733 59.7253 51.6615 59.2695 50.7305C58.8203 49.793 58.1855 49.3242 57.3652 49.3242C56.5449 49.3242 55.9069 49.793 55.4512 50.7305C54.9954 51.6615 54.7676 52.9733 54.7676 54.666C54.7676 56.3652 54.9954 57.6836 55.4512 58.6211C55.9069 59.5586 56.5449 60.0273 57.3652 60.0273Z" fill="black"/>
</svg>
