<svg width="70" height="70" viewBox="0 0 70 70" fill="none" xmlns="http://www.w3.org/2000/svg">
<rect x="0.5" y="0.5" width="69" height="69" rx="14.5" fill="white" stroke="black"/>
<path d="M23 12.75C23 10.6816 24.719 9 26.8333 9H36.4167V16.5C36.4167 17.5371 37.2732 18.375 38.3333 18.375H46V35.25C46 37.3184 44.281 39 42.1667 39H26.8333C24.719 39 23 37.3184 23 35.25V12.75ZM46 16.5H38.3333V9L46 16.5Z" fill="black"/>
<path d="M18.9727 62H16.3945V49.8906L13.8555 50.8086L13.0449 48.7578L16.9121 47.3516H18.9727V62ZM32.6465 58.0254H24.834V56.1699H32.6465V58.0254ZM43.3906 62H40.8125V49.8906L38.2734 50.8086L37.4629 48.7578L41.3301 47.3516H43.3906V62ZM51.5059 62.293C50.4316 62.293 49.5007 61.9967 48.7129 61.4043C47.9316 60.8053 47.3294 59.9395 46.9062 58.8066C46.4831 57.6673 46.2715 56.2871 46.2715 54.666C46.2715 53.0514 46.4831 51.6777 46.9062 50.5449C47.3294 49.4121 47.9316 48.5495 48.7129 47.957C49.5007 47.3581 50.4316 47.0586 51.5059 47.0586C52.5801 47.0586 53.5078 47.3581 54.2891 47.957C55.0703 48.5495 55.6725 49.4121 56.0957 50.5449C56.5189 51.6777 56.7305 53.0514 56.7305 54.666C56.7305 56.2871 56.5189 57.6673 56.0957 58.8066C55.6725 59.9395 55.0703 60.8053 54.2891 61.4043C53.5078 61.9967 52.5801 62.293 51.5059 62.293ZM51.5059 60.0273C52.3262 60.0273 52.9609 59.5586 53.4102 58.6211C53.8659 57.6836 54.0938 56.3652 54.0938 54.666C54.0938 52.9733 53.8659 51.6615 53.4102 50.7305C52.9609 49.793 52.3262 49.3242 51.5059 49.3242C50.6855 49.3242 50.0475 49.793 49.5918 50.7305C49.1361 51.6615 48.9082 52.9733 48.9082 54.666C48.9082 56.3652 49.1361 57.6836 49.5918 58.6211C50.0475 59.5586 50.6855 60.0273 51.5059 60.0273Z" fill="black"/>
</svg>
