<svg width="70" height="70" viewBox="0 0 70 70" fill="none" xmlns="http://www.w3.org/2000/svg">
<rect x="0.5" y="0.5" width="69" height="69" rx="14.5" fill="white" stroke="black"/>
<path d="M24 12.75C24 10.6816 25.7111 9 27.8158 9H37.3553V16.5C37.3553 17.5371 38.2079 18.375 39.2632 18.375H46.8947V35.25C46.8947 37.3184 45.1836 39 43.0789 39H27.8158C25.7111 39 24 37.3184 24 35.25V12.75ZM46.8947 16.5H39.2632V9L46.8947 16.5Z" fill="black"/>
<path d="M27.2363 58.1621H24.0723V61.3066H21.9727V58.1621H18.8086V56.2578H21.9727V53.1133H24.0723V56.2578H27.2363V58.1621ZM39.3457 62H30.1855V60.4668C31.3574 59.4316 32.3438 58.5104 33.1445 57.7031C33.9518 56.8958 34.5996 56.1667 35.0879 55.5156C35.5827 54.8581 35.9408 54.2493 36.1621 53.6895C36.3835 53.1296 36.4941 52.5859 36.4941 52.0586C36.4941 51.5052 36.39 51.0234 36.1816 50.6133C35.9798 50.1966 35.6966 49.8743 35.332 49.6465C34.9674 49.4186 34.5443 49.3047 34.0625 49.3047C33.5026 49.3047 32.9655 49.4642 32.4512 49.7832C31.9434 50.0957 31.5202 50.5319 31.1816 51.0918L29.8438 49.4512C30.3906 48.696 31.0775 48.11 31.9043 47.6934C32.7376 47.2702 33.6133 47.0586 34.5312 47.0586C35.3971 47.0586 36.1751 47.2474 36.8652 47.625C37.5618 47.9961 38.112 48.5169 38.5156 49.1875C38.9258 49.8581 39.1309 50.6491 39.1309 51.5605C39.1309 52.2311 39.0137 52.9082 38.7793 53.5918C38.5449 54.2754 38.1966 54.9622 37.7344 55.6523C37.2786 56.3424 36.7188 57.0293 36.0547 57.7129C35.3906 58.3965 34.6322 59.0736 33.7793 59.7441H39.3457V62ZM46.5234 62.293C45.4492 62.293 44.5182 61.9967 43.7305 61.4043C42.9492 60.8053 42.347 59.9395 41.9238 58.8066C41.5007 57.6673 41.2891 56.2871 41.2891 54.666C41.2891 53.0514 41.5007 51.6777 41.9238 50.5449C42.347 49.4121 42.9492 48.5495 43.7305 47.957C44.5182 47.3581 45.4492 47.0586 46.5234 47.0586C47.5977 47.0586 48.5254 47.3581 49.3066 47.957C50.0879 48.5495 50.6901 49.4121 51.1133 50.5449C51.5365 51.6777 51.748 53.0514 51.748 54.666C51.748 56.2871 51.5365 57.6673 51.1133 58.8066C50.6901 59.9395 50.0879 60.8053 49.3066 61.4043C48.5254 61.9967 47.5977 62.293 46.5234 62.293ZM46.5234 60.0273C47.3438 60.0273 47.9785 59.5586 48.4277 58.6211C48.8835 57.6836 49.1113 56.3652 49.1113 54.666C49.1113 52.9733 48.8835 51.6615 48.4277 50.7305C47.9785 49.793 47.3438 49.3242 46.5234 49.3242C45.7031 49.3242 45.0651 49.793 44.6094 50.7305C44.1536 51.6615 43.9258 52.9733 43.9258 54.666C43.9258 56.3652 44.1536 57.6836 44.6094 58.6211C45.0651 59.5586 45.7031 60.0273 46.5234 60.0273Z" fill="black"/>
</svg>
