<svg width="70" height="70" viewBox="0 0 70 70" fill="none" xmlns="http://www.w3.org/2000/svg">
<rect x="0.5" y="0.5" width="69" height="69" rx="14.5" fill="white" stroke="black"/>
<path d="M29.0844 25.9297H26.5531V28.4453H24.8734V25.9297H22.3422V24.4062H24.8734V21.8906H26.5531V24.4062H29.0844V25.9297ZM40.7344 29H38.6719V26.4766H32.9453V24.8828L38.6797 17.2812H40.7344V24.6719H42.1641V26.4766H40.7344V29ZM34.9453 24.6719H38.6719V19.7188L34.9453 24.6719ZM27.3203 37.2812V43.7422C27.3203 44.8776 27.1172 45.8568 26.7109 46.6797C26.3099 47.5026 25.7318 48.1354 24.9766 48.5781C24.2214 49.0156 23.3177 49.2344 22.2656 49.2344C21.2188 49.2344 20.3177 49.0156 19.5625 48.5781C18.8073 48.1354 18.2266 47.5026 17.8203 46.6797C17.4193 45.8568 17.2188 44.8776 17.2188 43.7422V37.2812H19.2812V43.5078C19.2812 44.3568 19.3958 45.0729 19.625 45.6562C19.8542 46.2396 20.1901 46.6797 20.6328 46.9766C21.0807 47.2734 21.625 47.4219 22.2656 47.4219C22.9115 47.4219 23.4557 47.2734 23.8984 46.9766C24.3464 46.6797 24.6849 46.2396 24.9141 45.6562C25.1432 45.0729 25.2578 44.3568 25.2578 43.5078V37.2812H27.3203ZM32.6484 49.0625C31.9245 49.0625 31.2786 48.888 30.7109 48.5391C30.1432 48.1901 29.6953 47.7135 29.3672 47.1094C29.0391 46.5 28.875 45.8125 28.875 45.0469C28.875 44.276 29.0391 43.5885 29.3672 42.9844C29.6953 42.3802 30.1432 41.9036 30.7109 41.5547C31.2786 41.2057 31.9245 41.0312 32.6484 41.0312C33.2161 41.0312 33.7396 41.1406 34.2188 41.3594C34.6979 41.5781 35.1042 41.8828 35.4375 42.2734L35.5312 41.1875H37.2188V48.7891C37.2188 49.6536 37.0339 50.4062 36.6641 51.0469C36.2995 51.6875 35.7839 52.1823 35.1172 52.5312C34.4505 52.8854 33.6615 53.0625 32.75 53.0625C31.4844 53.0625 30.3516 52.6589 29.3516 51.8516L30.1406 50.2812C30.8385 50.9844 31.6667 51.3359 32.625 51.3359C33.1667 51.3359 33.6354 51.2266 34.0312 51.0078C34.4323 50.7943 34.7422 50.4896 34.9609 50.0938C35.1849 49.7031 35.2969 49.2448 35.2969 48.7188V47.9688C34.9635 48.3125 34.5703 48.5807 34.1172 48.7734C33.6641 48.9661 33.1745 49.0625 32.6484 49.0625ZM33.0703 47.3516C33.4818 47.3516 33.8542 47.2604 34.1875 47.0781C34.526 46.8906 34.7943 46.6354 34.9922 46.3125C35.1953 45.9896 35.2969 45.6224 35.2969 45.2109V44.8672C35.2969 44.4557 35.1953 44.0911 34.9922 43.7734C34.7943 43.4557 34.526 43.2057 34.1875 43.0234C33.849 42.8359 33.4766 42.7422 33.0703 42.7422C32.6432 42.7422 32.2604 42.8438 31.9219 43.0469C31.5833 43.2448 31.3151 43.5182 31.1172 43.8672C30.9245 44.2161 30.8281 44.6094 30.8281 45.0469C30.8281 45.4844 30.9245 45.8776 31.1172 46.2266C31.3151 46.5755 31.5833 46.8516 31.9219 47.0547C32.2604 47.2526 32.6432 47.3516 33.0703 47.3516ZM46.3047 48.0938C45.3307 48.8021 44.2656 49.1562 43.1094 49.1562C42.2708 49.1562 41.5182 48.974 40.8516 48.6094C40.1849 48.2448 39.6562 47.7474 39.2656 47.1172C38.8802 46.4818 38.6875 45.7682 38.6875 44.9766C38.6875 44.2214 38.862 43.5469 39.2109 42.9531C39.5651 42.3594 40.0469 41.8906 40.6562 41.5469C41.2708 41.2031 41.9635 41.0312 42.7344 41.0312C43.5365 41.0312 44.2396 41.2214 44.8438 41.6016C45.4531 41.9766 45.9271 42.5 46.2656 43.1719C46.6042 43.8385 46.7734 44.6146 46.7734 45.5V45.75H40.7578C40.8516 46.1042 41.0156 46.4167 41.25 46.6875C41.4896 46.9583 41.7865 47.1693 42.1406 47.3203C42.4948 47.4714 42.8932 47.5469 43.3359 47.5469C44.1693 47.5469 44.9401 47.276 45.6484 46.7344L46.3047 48.0938ZM40.6797 44.625H44.9922C44.9505 44.2344 44.8307 43.8932 44.6328 43.6016C44.4401 43.3099 44.1875 43.0833 43.875 42.9219C43.5677 42.7552 43.2214 42.6719 42.8359 42.6719C42.4453 42.6719 42.0964 42.7552 41.7891 42.9219C41.4818 43.0885 41.2318 43.3203 41.0391 43.6172C40.8464 43.9089 40.7266 44.2448 40.6797 44.625ZM50.25 49H48.3281V41.1875H50L50.0703 42.6094C50.3411 42.1094 50.7057 41.7214 51.1641 41.4453C51.6276 41.1693 52.1589 41.0312 52.7578 41.0312C52.9141 41.0312 53.0729 41.0417 53.2344 41.0625C53.401 41.0833 53.5651 41.1146 53.7266 41.1562L53.4922 42.8906C53.1693 42.7969 52.8568 42.75 52.5547 42.75C52.0964 42.75 51.6927 42.8568 51.3438 43.0703C51 43.2839 50.7318 43.5807 50.5391 43.9609C50.3464 44.3359 50.25 44.7734 50.25 45.2734V49Z" fill="black"/>
</svg>
