<svg width="145" height="145" viewBox="0 0 145 145" fill="none" xmlns="http://www.w3.org/2000/svg">
<path d="M40.76 58.5679C40.76 72.7768 51.4316 84.4854 65.2008 86.2016V100.311C65.2008 104.181 68.3403 107.29 72.1923 107.29C76.0443 107.29 79.1839 104.181 79.1839 100.311V79.4396C79.1839 79.3734 79.1836 79.3072 79.1832 79.2411L79.3928 79.2135C93.0612 77.4119 103.625 65.7473 103.625 51.6106C103.625 47.7413 100.485 44.632 96.6331 44.632H93.1416C82.9856 44.632 74.0959 50.0416 69.2109 58.1118C64.3514 54.0405 58.082 51.5892 51.2431 51.5892H47.7515C43.8995 51.5892 40.76 54.6985 40.76 58.5679ZM114.5 73C114.5 95.9198 95.9198 114.5 73 114.5C50.0802 114.5 31.5 95.9198 31.5 73C31.5 50.0802 50.0802 31.5 73 31.5C95.9198 31.5 114.5 50.0802 114.5 73Z" fill="#777E5C" stroke="#777E5C" stroke-width="7"/>
</svg>
