<svg width="515" height="539" viewBox="0 0 515 539" fill="none" xmlns="http://www.w3.org/2000/svg">
<g clip-path="url(#clip0_256_2310)">
<path d="M315 86.605L365 0H465L515 86.605L465 173.21H365L315 86.605Z" fill="white"/>
<path d="M383.76 72.5679C383.76 86.7768 394.432 98.4854 408.201 100.202V114.311C408.201 118.181 411.34 121.29 415.192 121.29C419.044 121.29 422.184 118.181 422.184 114.311V93.4396C422.184 93.3734 422.184 93.3072 422.183 93.2411L422.393 93.2135C436.061 91.4119 446.625 79.7473 446.625 65.6106C446.625 61.7413 443.485 58.632 439.633 58.632H436.142C425.986 58.632 417.096 64.0416 412.211 72.1118C407.351 68.0405 401.082 65.5892 394.243 65.5892H390.752C386.9 65.5892 383.76 68.6985 383.76 72.5679ZM457.5 87C457.5 109.92 438.92 128.5 416 128.5C393.08 128.5 374.5 109.92 374.5 87C374.5 64.0802 393.08 45.5 416 45.5C438.92 45.5 457.5 64.0802 457.5 87Z" fill="#777E5C" stroke="#777E5C" stroke-width="7"/>
</g>
<g clip-path="url(#clip1_256_2310)">
<path d="M157 178.605L207 92H307L357 178.605L307 265.21H207L157 178.605Z" fill="white"/>
<path d="M296.108 137.755C292.434 134.082 286.496 134.082 282.823 137.755L277.774 142.788L294.196 159.21L299.245 154.161C302.918 150.487 302.918 144.549 299.245 140.875L296.108 137.755ZM245.919 174.659C244.896 175.682 244.107 176.94 243.654 178.332L238.689 193.228C238.203 194.671 238.589 196.264 239.662 197.355C240.736 198.445 242.329 198.814 243.789 198.327L258.684 193.362C260.06 192.909 261.318 192.121 262.358 191.098L290.421 163.017L273.983 146.579L245.919 174.659ZM233.103 144.851C224.213 144.851 217 152.064 217 160.954V203.897C217 212.787 224.213 220 233.103 220H276.046C284.936 220 292.149 212.787 292.149 203.897V187.793C292.149 184.824 289.751 182.425 286.781 182.425C283.812 182.425 281.414 184.824 281.414 187.793V203.897C281.414 206.866 279.015 209.264 276.046 209.264H233.103C230.134 209.264 227.736 206.866 227.736 203.897V160.954C227.736 157.985 230.134 155.586 233.103 155.586H249.207C252.176 155.586 254.575 153.188 254.575 150.219C254.575 147.249 252.176 144.851 249.207 144.851H233.103Z" fill="#777E5C"/>
</g>
<g clip-path="url(#clip2_256_2310)">
<path d="M315 268.816L365 182.211H465L515 268.816L465 355.421H365L315 268.816Z" fill="white"/>
<path d="M379.178 290.052C379.178 285.285 380.131 280.564 381.981 276.16C383.831 271.755 386.544 267.753 389.963 264.382C393.382 261.011 397.441 258.337 401.909 256.512C406.376 254.688 411.164 253.749 416 253.749C420.836 253.749 425.624 254.688 430.091 256.512C434.559 258.337 438.618 261.011 442.037 264.382C442.749 265.084 443.43 265.813 444.079 266.568L421.94 276.65C421.82 276.597 421.699 276.544 421.578 276.494C419.809 275.756 417.914 275.376 416 275.376C414.086 275.376 412.191 275.756 410.422 276.494C408.654 277.231 407.047 278.312 405.694 279.675C404.34 281.038 403.267 282.656 402.534 284.436C401.802 286.217 401.425 288.125 401.425 290.052H379.178Z" fill="#777E5C"/>
<path d="M429.985 285.917C430.376 287.257 430.575 288.65 430.575 290.052H452.822C452.822 285.285 451.869 280.564 450.019 276.16C449.204 274.22 448.222 272.359 447.086 270.595L429.985 285.917Z" fill="#777E5C"/>
<path d="M360 290.052C360 282.85 361.448 275.719 364.263 269.065C367.077 262.412 371.202 256.366 376.402 251.274C378.884 248.843 381.587 246.653 384.474 244.727L391.737 255.297C389.753 256.701 387.889 258.278 386.166 260.012C382.248 263.957 379.14 268.641 377.02 273.795C374.9 278.949 373.808 284.473 373.808 290.052H360Z" fill="#777E5C"/>
<path d="M396.288 252.491L389.06 241.974C390.844 241.015 392.683 240.151 394.57 239.385C401.364 236.629 408.646 235.211 416 235.211C423.354 235.211 430.636 236.629 437.43 239.385C439.317 240.151 441.156 241.015 442.94 241.974L435.712 252.491C434.552 251.874 433.362 251.311 432.146 250.803C427.027 248.668 421.541 247.57 416 247.57C410.459 247.57 404.973 248.668 399.854 250.803C398.638 251.311 397.448 251.874 396.288 252.491Z" fill="#777E5C"/>
<path d="M440.263 255.297C442.247 256.701 444.111 258.278 445.834 260.012C447.122 261.309 448.322 262.685 449.428 264.132L459.337 259.619L451.315 266.806C452.746 269.011 453.974 271.35 454.98 273.795C457.1 278.949 458.192 284.473 458.192 290.052H472C472 282.85 470.552 275.719 467.737 269.065C464.923 262.412 460.798 256.366 455.598 251.274C453.116 248.843 450.413 246.653 447.526 244.727L440.263 255.297Z" fill="#777E5C"/>
</g>
<g clip-path="url(#clip3_256_2310)">
<path d="M157 359.605L207 273H307L357 359.605L307 446.21H207L157 359.605Z" fill="white"/>
<path d="M258.058 331.525L242.177 344.56C239.535 346.722 239.027 350.612 241.028 353.389C243.145 356.348 247.263 356.93 250.101 354.686L266.392 341.85C267.541 340.952 269.181 341.152 270.084 342.316C270.986 343.479 270.773 345.142 269.624 346.056L266.195 348.75L289 370.032V338.641H288.885L288.245 338.225L276.334 330.494C273.824 328.865 270.887 328 267.902 328C264.325 328 260.847 329.247 258.058 331.525ZM261.798 352.208L253.316 358.892C248.148 362.982 240.651 361.918 236.779 356.531C233.137 351.46 234.055 344.377 238.862 340.437L252.513 329.247C250.609 328.432 248.559 328.017 246.475 328.017C243.391 328 240.388 328.931 237.812 330.66L226 338.641V375.885H230.627L245.622 389.751C248.838 392.727 253.809 392.495 256.745 389.236C257.648 388.222 258.255 387.041 258.566 385.811L261.355 388.404C264.555 391.381 269.542 391.164 272.479 387.922C273.217 387.108 273.759 386.16 274.103 385.179C277.286 387.34 281.617 386.891 284.291 383.932C287.228 380.69 287.015 375.635 283.816 372.659L261.798 352.208ZM207.625 338.641C206.181 338.641 205 339.838 205 341.301V375.885C205 378.828 207.346 381.205 210.25 381.205H215.5C218.404 381.205 220.75 378.828 220.75 375.885V338.641H207.625ZM212.875 370.564C213.571 370.564 214.239 370.844 214.731 371.343C215.223 371.842 215.5 372.519 215.5 373.224C215.5 373.93 215.223 374.607 214.731 375.105C214.239 375.604 213.571 375.885 212.875 375.885C212.179 375.885 211.511 375.604 211.019 375.105C210.527 374.607 210.25 373.93 210.25 373.224C210.25 372.519 210.527 371.842 211.019 371.343C211.511 370.844 212.179 370.564 212.875 370.564ZM294.25 338.641V375.885C294.25 378.828 296.596 381.205 299.5 381.205H304.75C307.654 381.205 310 378.828 310 375.885V341.301C310 339.838 308.819 338.641 307.375 338.641H294.25ZM299.5 373.224C299.5 372.519 299.777 371.842 300.269 371.343C300.761 370.844 301.429 370.564 302.125 370.564C302.821 370.564 303.489 370.844 303.981 371.343C304.473 371.842 304.75 372.519 304.75 373.224C304.75 373.93 304.473 374.607 303.981 375.105C303.489 375.604 302.821 375.885 302.125 375.885C301.429 375.885 300.761 375.604 300.269 375.105C299.777 374.607 299.5 373.93 299.5 373.224Z" fill="#777E5C"/>
</g>
<g clip-path="url(#clip4_256_2310)">
<path d="M0 451.605L50 365H150L200 451.605L150 538.21H50L0 451.605Z" fill="white"/>
<path fill-rule="evenodd" clip-rule="evenodd" d="M77.546 419V413.5C77.546 410.458 80.0106 408 83.0613 408C86.1119 408 88.5766 410.458 88.5766 413.5V419H110.638V413.5C110.638 410.458 113.103 408 116.153 408C119.204 408 121.669 410.458 121.669 413.5V419H129.942C134.509 419 138.214 422.695 138.214 427.25V435.5H61V427.25C61 422.695 64.7056 419 69.273 419H77.546ZM61 441H138.214V487.75C138.214 492.305 134.509 496 129.942 496H69.273C64.7056 496 61 492.305 61 487.75V441ZM72.9336 482.943C73.3993 483.477 74.002 483.744 74.7418 483.744H93.6866C95.303 483.744 96.1112 482.893 96.1112 481.191C96.1112 479.455 95.303 478.587 93.6866 478.587H80.2896L89.947 469.376C92.0291 467.407 93.5222 465.605 94.4263 463.97C95.3304 462.334 95.7825 460.632 95.7825 458.864C95.7825 455.526 94.8099 452.923 92.8647 451.054C90.9195 449.152 88.2073 448.201 84.7279 448.201C82.2896 448.201 80.0978 448.701 78.1527 449.702C76.2075 450.704 74.6048 452.139 73.3445 454.008C72.8788 454.742 72.6459 455.443 72.6459 456.11C72.6459 457.078 73.0158 457.862 73.7555 458.463C74.1664 458.83 74.6185 459.014 75.1116 459.014C75.8787 459.014 76.5636 458.513 77.1664 457.512C77.9883 456.177 79.0294 455.176 80.2896 454.508C81.5773 453.807 83.0567 453.457 84.7279 453.457C86.4813 453.457 87.8511 453.941 88.8374 454.909C89.8237 455.843 90.3168 457.161 90.3168 458.864C90.3168 460.132 90.0976 461.183 89.6593 462.017C89.2209 462.852 88.3306 463.903 86.9881 465.171L73.5911 477.937C73.1528 478.337 72.824 478.804 72.6048 479.338C72.3856 479.839 72.2761 480.356 72.2761 480.89C72.2761 481.691 72.4952 482.375 72.9336 482.943ZM103.761 482.943C104.227 483.477 104.83 483.744 105.57 483.744H124.514C126.131 483.744 126.939 482.893 126.939 481.191C126.939 479.455 126.131 478.587 124.514 478.587H111.117L120.775 469.376C122.857 467.407 124.35 465.605 125.254 463.97C126.158 462.334 126.61 460.632 126.61 458.864C126.61 455.526 125.638 452.923 123.692 451.054C121.747 449.152 119.035 448.201 115.556 448.201C113.117 448.201 110.926 448.701 108.98 449.702C107.035 450.704 105.433 452.139 104.172 454.008C103.707 454.742 103.474 455.443 103.474 456.11C103.474 457.078 103.844 457.862 104.583 458.463C104.994 458.83 105.446 459.014 105.939 459.014C106.707 459.014 107.391 458.513 107.994 457.512C108.816 456.177 109.857 455.176 111.117 454.508C112.405 453.807 113.884 453.457 115.556 453.457C117.309 453.457 118.679 453.941 119.665 454.909C120.651 455.843 121.145 457.161 121.145 458.864C121.145 460.132 120.925 461.183 120.487 462.017C120.049 462.852 119.158 463.903 117.816 465.171L104.419 477.937C103.981 478.337 103.652 478.804 103.433 479.338C103.213 479.839 103.104 480.356 103.104 480.89C103.104 481.691 103.323 482.375 103.761 482.943Z" fill="#777E5C"/>
</g>
<g clip-path="url(#clip5_256_2310)">
<path d="M315 451.605L365 365H465L515 451.605L465 538.21H365L315 451.605Z" fill="white"/>
<path d="M377.25 424.75C377.25 422.429 378.172 420.204 379.813 418.563C381.454 416.922 383.679 416 386 416C388.321 416 390.546 416.922 392.187 418.563C393.828 420.204 394.75 422.429 394.75 424.75C394.75 427.071 393.828 429.296 392.187 430.937C390.546 432.578 388.321 433.5 386 433.5C383.679 433.5 381.454 432.578 379.813 430.937C378.172 429.296 377.25 427.071 377.25 424.75ZM376 449.391C374.438 451.141 373.5 453.469 373.5 456C373.5 458.531 374.438 460.859 376 462.609V449.391ZM398.562 441.688C393.922 445.797 391 451.813 391 458.5C391 463.859 392.875 468.781 396 472.641V476C396 478.766 393.766 481 391 481H381C378.234 481 376 478.766 376 476V471.813C370.094 469 366 462.984 366 456C366 446.328 373.828 438.5 383.5 438.5H388.5C392.25 438.5 395.719 439.672 398.562 441.672V441.688ZM436 476V472.641C439.125 468.781 441 463.859 441 458.5C441 451.813 438.078 445.797 433.438 441.672C436.281 439.672 439.75 438.5 443.5 438.5H448.5C458.172 438.5 466 446.328 466 456C466 462.984 461.906 469 456 471.813V476C456 478.766 453.766 481 451 481H441C438.234 481 436 478.766 436 476ZM437.25 424.75C437.25 422.429 438.172 420.204 439.813 418.563C441.454 416.922 443.679 416 446 416C448.321 416 450.546 416.922 452.187 418.563C453.828 420.204 454.75 422.429 454.75 424.75C454.75 427.071 453.828 429.296 452.187 430.937C450.546 432.578 448.321 433.5 446 433.5C443.679 433.5 441.454 432.578 439.813 430.937C438.172 429.296 437.25 427.071 437.25 424.75ZM456 449.391V462.625C457.562 460.859 458.5 458.547 458.5 456.016C458.5 453.484 457.562 451.156 456 449.406V449.391ZM416 416C418.652 416 421.196 417.054 423.071 418.929C424.946 420.804 426 423.348 426 426C426 428.652 424.946 431.196 423.071 433.071C421.196 434.946 418.652 436 416 436C413.348 436 410.804 434.946 408.929 433.071C407.054 431.196 406 428.652 406 426C406 423.348 407.054 420.804 408.929 418.929C410.804 417.054 413.348 416 416 416ZM403.5 458.5C403.5 461.031 404.438 463.344 406 465.109V451.891C404.438 453.656 403.5 455.969 403.5 458.5ZM426 451.891V465.125C427.562 463.359 428.5 461.047 428.5 458.516C428.5 455.984 427.562 453.656 426 451.906V451.891ZM436 458.5C436 465.484 431.906 471.5 426 474.313V481C426 483.766 423.766 486 421 486H411C408.234 486 406 483.766 406 481V474.313C400.094 471.5 396 465.484 396 458.5C396 448.828 403.828 441 413.5 441H418.5C428.172 441 436 448.828 436 458.5Z" fill="#777E5C"/>
</g>
<defs>
<clipPath id="clip0_256_2310">
<rect width="200" height="173.21" fill="white" transform="translate(315)"/>
</clipPath>
<clipPath id="clip1_256_2310">
<rect width="200" height="173.21" fill="white" transform="translate(157 92)"/>
</clipPath>
<clipPath id="clip2_256_2310">
<rect width="200" height="173.21" fill="white" transform="translate(315 182.211)"/>
</clipPath>
<clipPath id="clip3_256_2310">
<rect width="200" height="173.21" fill="white" transform="translate(157 273)"/>
</clipPath>
<clipPath id="clip4_256_2310">
<rect width="200" height="173.21" fill="white" transform="translate(0 365)"/>
</clipPath>
<clipPath id="clip5_256_2310">
<rect width="200" height="173.21" fill="white" transform="translate(315 365)"/>
</clipPath>
</defs>
</svg>
