<svg width="915" height="792" viewBox="0 0 915 792" fill="none" xmlns="http://www.w3.org/2000/svg">
<mask id="mask0_73_6217" style="mask-type:alpha" maskUnits="userSpaceOnUse" x="2" y="482" width="358" height="310">
<path d="M2 637L91.5 482H270.5L360 637L270.5 792H91.5L2 637Z" fill="white"/>
</mask>
<g mask="url(#mask0_73_6217)">
<rect x="65" y="468" width="297" height="317" fill="white"/>
<rect x="16" y="502" width="70" height="269" fill="#777E5C"/>
<rect x="43" y="402" width="58" height="269" fill="#777E5C"/>
<rect x="87.9766" y="478.264" width="13" height="27" rx="2" transform="rotate(-8.64675 87.9766 478.264)" fill="#777E5C"/>
<rect x="90.2812" y="520.312" width="6.91892" height="27" rx="2" transform="rotate(-25.427 90.2812 520.312)" fill="#777E5C"/>
<rect x="96" y="565.086" width="6.91892" height="27" rx="2" transform="rotate(-0.715207 96 565.086)" fill="#777E5C"/>
<rect x="83" y="645.086" width="6.91892" height="27" rx="2" transform="rotate(-0.715207 83 645.086)" fill="#777E5C"/>
<rect x="95" y="638.086" width="6.91892" height="27" rx="3" transform="rotate(-0.715207 95 638.086)" fill="#777E5C"/>
<rect x="78" y="681.736" width="6.91892" height="27" rx="3" transform="rotate(-6.1112 78 681.736)" fill="#777E5C"/>
<rect x="78.8018" y="728.549" width="6.91892" height="38.2519" rx="3" transform="rotate(-6.1112 78.8018 728.549)" fill="#777E5C"/>
</g>
<path d="M2 317L91.5 162H270.5L360 317L270.5 472H91.5L2 317Z" fill="white"/>
<path d="M279 477L368.5 322H547.5L637 477L547.5 632H368.5L279 477Z" fill="white"/>
<path d="M557 317L646.5 162H825.5L915 317L825.5 472H646.5L557 317Z" fill="white"/>
<path d="M279 155L368.5 0H547.5L637 155L547.5 310H368.5L279 155Z" fill="#777E5C"/>
<path d="M1.22598 733.423C-0.275831 727.422 5.7247 685.922 18.726 679.923C29.7241 682.92 32.2241 681.919 41.7241 679.42C60.2241 690.42 57.7241 701.419 61.2241 724.419C61.7241 730.919 60.2241 736.922 56.226 737.923C54.1508 737.878 52.7241 736.922 52.226 734.423C51.2241 719.922 48.726 703.923 48.726 703.923C48.726 703.923 54.226 739.923 54.226 780.423C53.7241 783.922 51.0818 785.423 46.726 785.423C42.2241 785.422 39.2241 783.922 38.226 780.423C37.2241 766.422 37.2241 766.922 35.226 739.923C33.7241 734.922 34.2241 733.922 30.226 733.423C27.1425 733.578 26.3694 735.422 25.726 739.923C23.2241 757.422 23.7241 752.922 20.226 780.423C19.2241 783.422 19.7241 785.922 10.726 785.423C7.39303 784.29 6.72412 783.922 5.72598 777.923C5.96209 766.31 7.54698 749.306 9.14902 734.63C7.12334 739.959 3.20279 741.321 1.22598 733.423Z" fill="white" stroke="black" stroke-width="2" stroke-linejoin="round"/>
<path d="M51.7246 660.42C51.7246 672.57 41.8749 682.42 29.7246 682.42C17.5743 682.42 7.72461 672.57 7.72461 660.42C7.72461 648.27 17.5743 638.42 29.7246 638.42C41.8749 638.42 51.7246 648.27 51.7246 660.42Z" fill="white"/>
<path d="M50.7246 660.42C50.7246 672.018 41.3226 681.42 29.7246 681.42V683.42C42.4272 683.42 52.7246 673.122 52.7246 660.42H50.7246ZM29.7246 681.42C18.1266 681.42 8.72461 672.018 8.72461 660.42H6.72461C6.72461 673.122 17.0221 683.42 29.7246 683.42V681.42ZM8.72461 660.42C8.72461 648.822 18.1266 639.42 29.7246 639.42V637.42C17.0221 637.42 6.72461 647.717 6.72461 660.42H8.72461ZM29.7246 639.42C41.3226 639.42 50.7246 648.822 50.7246 660.42H52.7246C52.7246 647.717 42.4272 637.42 29.7246 637.42V639.42Z" fill="black"/>
<path d="M52.2245 647.42C47.2241 649.419 11.2243 660.419 4.2245 661.92C-1.27588 662.419 1.72421 658.919 3.22418 657.419C1.22412 639.42 8.22412 633.42 19.2241 629.92C25.8878 628.73 31.6453 628.559 36.4965 630.217C38.3749 630.859 40.1175 631.775 41.7241 633.012C44.6858 635.293 47.1858 638.664 49.2241 643.42C54.2238 642.92 55.2241 645.919 52.2245 647.42Z" fill="white"/>
<path d="M20.2241 636.42L31.7241 646.92M36.4965 630.217C31.6453 628.559 25.8878 628.73 19.2241 629.92C8.22412 633.42 1.22412 639.42 3.22418 657.419C1.72421 658.919 -1.27588 662.419 4.2245 661.92C11.2243 660.419 47.2241 649.419 52.2245 647.42C55.2241 645.919 54.2238 642.92 49.2241 643.42C47.1858 638.664 44.6858 635.293 41.7241 633.012M36.4965 630.217L27.2241 632.92L37.2241 645.42L45.7241 642.42L36.4965 630.217ZM36.4965 630.217C38.3749 630.859 40.1175 631.775 41.7241 633.012M41.7241 633.012L45.7241 639.42" stroke="black" stroke-width="2" stroke-linejoin="round"/>
<path d="M51.332 727.725L66.9985 733.895L65.1662 738.547L51.7236 732.377L51.332 727.725Z" fill="black"/>
<path d="M65.673 729.074C66.2802 727.533 68.0222 726.775 69.5637 727.383L62.6007 745.061C61.0592 744.454 60.3017 742.712 60.9089 741.17L65.673 729.074Z" fill="black"/>
<path d="M64.6547 743.939L70.2129 729.827C70.8397 730.351 71.593 731.006 72.3588 731.727C73.3106 732.624 74.2562 733.601 74.9991 734.544C75.7715 735.524 76.2009 736.314 76.3164 736.848C76.46 737.513 76.4931 738.655 76.3873 740.133C76.2841 741.576 76.0583 743.222 75.7511 744.83C75.4435 746.44 75.0605 747.981 74.652 749.219C74.5199 749.619 74.388 749.979 74.2588 750.293C74.2042 750.091 74.144 749.88 74.0771 749.671C73.8875 749.078 73.5684 748.234 72.935 747.635C71.2395 746.033 68.6127 745.038 66.6122 744.449C65.8956 744.237 65.2252 744.069 64.6547 743.939ZM74.7344 751.896C74.7343 751.897 74.7314 751.892 74.726 751.882C74.7318 751.891 74.7344 751.896 74.7344 751.896Z" fill="black" stroke="black" stroke-width="3"/>
<path d="M72.9336 732.472C72.9336 732.472 76.3065 735.858 76.6432 739.261C76.98 742.664 75.4567 747.438 74.7184 749.312C73.98 751.187 73.5929 747.89 72.9463 746.925C71.0452 744.088 68.3527 744.102 68.3527 744.102L72.9336 732.472Z" fill="#777E5C"/>
<path fill-rule="evenodd" clip-rule="evenodd" d="M664.201 56.4355C654.242 59.4462 637.098 80.9882 638.037 87.0933C638.037 90.6335 646.613 96.8307 653.821 102.039C654.757 102.715 655.669 103.374 656.537 104.009C655.727 115.415 654.449 131.334 653.652 141.019C653.1 147.73 652.672 152.93 652.537 155.093C652.323 158.52 653.537 162.093 658.037 163.593C662.537 163.593 665.466 161.453 666.037 156.593C667.037 148.093 669.037 135.093 672.037 122.593C675.037 110.093 681.037 113.593 682.537 122.593C682.81 124.23 683.132 126.281 683.492 128.57C685.112 138.868 687.492 154.003 689.537 158.093C692.037 163.093 694.037 163.593 698.537 163.093C702.537 161.593 703.537 159.593 703.537 155.093C703.537 153.095 702.552 146.562 701.324 138.427C699.787 128.239 697.871 115.538 697.037 106.086C699.054 106.791 701.615 106.611 704.537 102.593C707.341 98.5877 707.984 97.1492 709.089 94.679L709.089 94.6788C709.363 94.0656 709.666 93.3887 710.037 92.5932C711.904 88.5932 713.037 86.0932 713.037 80.0932C713.037 73.5932 710.831 71.6008 706.037 67.5932C700.896 63.2951 694.971 60.4043 689.537 58.5931C686.456 57.6128 684.317 56.9855 682.536 56.5904C679.789 57.8233 676.743 58.5091 673.537 58.5091C670.199 58.5091 667.035 57.7657 664.201 56.4355ZM693.037 76.5932C693.537 76.5933 697.037 79.0932 698.537 82.5932C699.122 84.9322 697.484 87.9551 695.823 90.962L695.037 90.4549C692.537 88.5932 692.537 76.5931 693.037 76.5932ZM657.537 83.5933C657.537 83.1135 657.547 82.6713 657.555 82.2718C657.609 79.7572 657.626 78.9361 655.037 81.0933C652.359 83.325 653.666 85.1585 654.688 86.5934C654.811 86.7658 656.4 88.3725 656.537 88.5092C657.537 89.5092 657.878 92.2976 657.878 92.2976C657.878 92.2976 657.878 92.2976 657.878 92.2977L657.878 92.2976C657.843 91.4623 657.805 90.5871 657.768 89.725C657.65 86.981 657.537 84.3689 657.537 83.5933ZM657.878 92.2977C657.966 94.404 658.037 96.257 658.037 97.0092L657.878 92.2977Z" fill="white"/>
<path d="M638.037 87.0933H639.037V87.0168L639.025 86.9413L638.037 87.0933ZM664.201 56.4355L664.626 55.5303L664.279 55.3674L663.911 55.4783L664.201 56.4355ZM653.821 102.039L654.407 101.228V101.228L653.821 102.039ZM656.537 104.009L657.535 104.08L657.574 103.529L657.128 103.202L656.537 104.009ZM653.652 141.019L652.656 140.937L653.652 141.019ZM652.537 155.093L651.539 155.031L652.537 155.093ZM658.037 163.593L657.721 164.542L657.875 164.593H658.037V163.593ZM666.037 156.593L667.03 156.71L666.037 156.593ZM672.037 122.593L673.01 122.827H673.01L672.037 122.593ZM682.537 122.593L683.524 122.429L682.537 122.593ZM683.492 128.57L682.505 128.726L683.492 128.57ZM689.537 158.093L690.432 157.646L689.537 158.093ZM698.537 163.093L698.648 164.087L698.771 164.073L698.888 164.03L698.537 163.093ZM701.324 138.427L700.335 138.576L701.324 138.427ZM697.037 106.086L697.367 105.142L695.905 104.631L696.041 106.174L697.037 106.086ZM704.537 102.593L705.346 103.181L705.351 103.174L705.356 103.167L704.537 102.593ZM709.089 94.679L708.194 94.2318L708.185 94.2511L708.176 94.2708L709.089 94.679ZM709.089 94.6788L709.983 95.1261L709.993 95.1068L710.002 95.0871L709.089 94.6788ZM710.037 92.5932L709.131 92.1703V92.1703L710.037 92.5932ZM706.037 67.5932L705.396 68.3604L706.037 67.5932ZM689.537 58.5931L689.853 57.6443L689.84 57.6402L689.537 58.5931ZM682.536 56.5904L682.753 55.6141L682.429 55.5423L682.127 55.6781L682.536 56.5904ZM698.537 82.5932L699.507 82.3506L699.488 82.2729L699.456 82.1993L698.537 82.5932ZM695.823 90.962L695.281 91.8022L696.181 92.3829L696.698 91.4455L695.823 90.962ZM695.037 90.4549L694.44 91.2569L694.467 91.2769L694.495 91.2951L695.037 90.4549ZM657.555 82.2718L658.555 82.293V82.293L657.555 82.2718ZM655.037 81.0933L655.677 81.8615L655.037 81.0933ZM654.688 86.5934L655.503 86.013L655.503 86.013L654.688 86.5934ZM656.537 88.5092L657.244 87.8021L657.244 87.8021L656.537 88.5092ZM657.878 92.2976L658.877 92.2591L658.877 92.2557L657.878 92.2976ZM657.768 89.725L656.769 89.7681L657.768 89.725ZM658.037 97.0092L657.038 97.0429L659.037 97.0092H658.037ZM695.037 105.509L695.552 104.652L695.552 104.652L695.037 105.509ZM693.037 97.5091L692.061 97.2922L692.053 97.3296L692.047 97.3676L693.037 97.5091ZM639.025 86.9413C638.944 86.4148 639.05 85.593 639.431 84.4667C639.803 83.3642 640.405 82.068 641.202 80.6378C642.796 77.7793 645.123 74.4709 647.802 71.2425C650.479 68.0155 653.486 64.8935 656.426 62.4001C659.387 59.8889 662.2 58.0853 664.49 57.3928L663.911 55.4783C661.223 56.2911 658.158 58.3092 655.133 60.8747C652.087 63.4579 648.999 66.6675 646.263 69.9655C643.528 73.262 641.123 76.672 639.455 79.6638C638.622 81.1588 637.96 82.5707 637.536 83.8266C637.12 85.0587 636.895 86.2456 637.049 87.2453L639.025 86.9413ZM654.407 101.228C650.793 98.6168 646.886 95.7931 643.882 93.1854C642.378 91.8807 641.135 90.6586 640.274 89.5697C639.383 88.4412 639.037 87.6203 639.037 87.0933H637.037C637.037 88.3364 637.763 89.6178 638.705 90.8096C639.678 92.0412 641.029 93.3577 642.571 94.6958C645.656 97.3738 649.642 100.253 653.235 102.849L654.407 101.228ZM657.128 103.202C656.257 102.565 655.342 101.904 654.407 101.228L653.235 102.849C654.172 103.526 655.082 104.184 655.947 104.816L657.128 103.202ZM654.649 141.101C655.446 131.415 656.724 115.492 657.535 104.08L655.54 103.938C654.73 115.338 653.453 131.252 652.656 140.937L654.649 141.101ZM653.535 155.156C653.67 153.005 654.096 147.82 654.649 141.101L652.656 140.937C652.104 147.641 651.675 152.854 651.539 155.031L653.535 155.156ZM658.354 162.645C656.322 161.967 655.102 160.853 654.393 159.58C653.673 158.284 653.436 156.739 653.535 155.156L651.539 155.031C651.424 156.874 651.687 158.829 652.645 160.552C653.616 162.296 655.253 163.719 657.721 164.542L658.354 162.645ZM665.044 156.476C664.78 158.724 663.99 160.211 662.869 161.148C661.738 162.094 660.137 162.593 658.037 162.593V164.593C660.438 164.593 662.551 164.022 664.152 162.683C665.763 161.335 666.723 159.322 667.03 156.71L665.044 156.476ZM671.065 122.36C668.053 134.908 666.047 147.948 665.044 156.476L667.03 156.71C668.027 148.238 670.021 135.279 673.01 122.827L671.065 122.36ZM683.524 122.429C683.134 120.092 682.445 118.062 681.548 116.533C680.67 115.035 679.492 113.857 678.057 113.553C676.522 113.227 675.093 113.969 673.945 115.438C672.81 116.89 671.829 119.174 671.065 122.36L673.01 122.827C673.745 119.763 674.639 117.797 675.52 116.67C676.387 115.561 677.114 115.397 677.642 115.509C678.27 115.642 679.061 116.245 679.823 117.545C680.566 118.812 681.19 120.595 681.551 122.758L683.524 122.429ZM684.48 128.415C684.121 126.127 683.797 124.071 683.524 122.429L681.551 122.758C681.823 124.389 682.144 126.434 682.505 128.726L684.48 128.415ZM690.432 157.646C689.974 156.731 689.463 155.114 688.928 152.961C688.398 150.833 687.863 148.257 687.338 145.474C686.288 139.91 685.291 133.567 684.48 128.415L682.505 128.726C683.314 133.871 684.316 140.245 685.372 145.845C685.901 148.645 686.444 151.263 686.987 153.444C687.524 155.601 688.077 157.41 688.643 158.54L690.432 157.646ZM698.427 162.099C696.183 162.349 694.824 162.306 693.734 161.761C692.658 161.223 691.655 160.094 690.432 157.646L688.643 158.54C689.919 161.093 691.167 162.714 692.84 163.55C694.501 164.381 696.392 164.338 698.648 164.087L698.427 162.099ZM702.537 155.093C702.537 157.301 702.284 158.696 701.68 159.704C701.094 160.68 700.083 161.446 698.186 162.157L698.888 164.03C700.991 163.241 702.48 162.257 703.395 160.733C704.29 159.24 704.537 157.385 704.537 155.093H702.537ZM700.335 138.576C700.949 142.646 701.502 146.306 701.9 149.198C702.303 152.122 702.537 154.178 702.537 155.093H704.537C704.537 154.011 704.278 151.801 703.882 148.925C703.481 146.017 702.926 142.343 702.313 138.278L700.335 138.576ZM696.041 106.174C696.878 115.664 698.8 128.398 700.335 138.576L702.313 138.278C700.774 128.079 698.864 115.413 698.033 105.998L696.041 106.174ZM703.728 102.005C702.339 103.915 701.115 104.802 700.105 105.171C699.115 105.532 698.215 105.438 697.367 105.142L696.707 107.03C697.875 107.438 699.264 107.607 700.79 107.05C702.295 106.501 703.813 105.289 705.346 103.181L703.728 102.005ZM708.176 94.2708C707.092 96.6941 706.479 98.0752 703.718 102.02L705.356 103.167C708.203 99.1002 708.876 97.6044 710.002 95.0873L708.176 94.2708ZM708.195 94.2316L708.194 94.2318L709.983 95.1262L709.983 95.1261L708.195 94.2316ZM709.131 92.1703C708.756 92.9739 708.45 93.6574 708.176 94.2706L710.002 95.0871C710.276 94.4737 710.576 93.8035 710.943 93.0161L709.131 92.1703ZM712.037 80.0932C712.037 83.0266 711.76 85.0589 711.273 86.8275C710.782 88.6094 710.068 90.1613 709.131 92.1703L710.943 93.0161C711.872 91.025 712.659 89.3269 713.201 87.3588C713.747 85.3775 714.037 83.1597 714.037 80.0932H712.037ZM705.396 68.3604C707.821 70.3876 709.439 71.7889 710.491 73.4447C711.509 75.0469 712.037 76.9652 712.037 80.0932H714.037C714.037 76.7212 713.463 74.3932 712.179 72.3724C710.929 70.4052 709.047 68.8064 706.678 66.826L705.396 68.3604ZM689.221 59.5418C694.565 61.3231 700.371 64.1602 705.396 68.3604L706.678 66.826C701.42 62.4299 695.377 59.4855 689.853 57.6444L689.221 59.5418ZM682.319 57.5666C684.053 57.9513 686.156 58.5666 689.234 59.546L689.84 57.6402C686.757 56.6589 684.58 56.0197 682.753 55.6141L682.319 57.5666ZM682.127 55.6781C679.506 56.8543 676.599 57.5091 673.537 57.5091V59.5091C676.887 59.5091 680.072 58.7923 682.946 57.5027L682.127 55.6781ZM673.537 57.5091C670.349 57.5091 667.33 56.7994 664.626 55.5303L663.776 57.3408C666.74 58.7321 670.049 59.5091 673.537 59.5091V57.5091ZM699.456 82.1993C698.635 80.2826 697.285 78.6738 696.099 77.5537C695.502 76.9903 694.931 76.5349 694.462 76.2136C694.229 76.0539 694.008 75.9182 693.812 75.8179C693.715 75.768 693.61 75.7193 693.502 75.6808C693.415 75.6495 693.242 75.5932 693.037 75.5932L693.037 77.5932C692.955 77.5932 692.896 77.5812 692.871 77.5757C692.844 77.5694 692.828 77.5637 692.827 77.5634C692.827 77.5633 692.849 77.5717 692.899 77.5971C692.996 77.6471 693.142 77.7341 693.331 77.8635C693.706 78.1203 694.197 78.5086 694.725 79.0077C695.789 80.0126 696.939 81.4038 697.618 82.9871L699.456 82.1993ZM696.698 91.4455C697.522 89.9541 698.383 88.3848 698.956 86.884C699.524 85.397 699.875 83.82 699.507 82.3506L697.567 82.8357C697.784 83.7054 697.608 84.8094 697.088 86.1703C696.573 87.5173 695.785 88.963 694.948 90.4785L696.698 91.4455ZM694.495 91.2951L695.281 91.8022L696.365 90.1218L695.579 89.6147L694.495 91.2951ZM693.037 75.5932C692.483 75.5931 692.207 75.999 692.15 76.0881C692.062 76.2249 692.016 76.3605 691.993 76.4376C691.942 76.6062 691.909 76.8014 691.885 76.984C691.836 77.3643 691.804 77.8787 691.788 78.4702C691.755 79.6609 691.788 81.2539 691.915 82.903C692.042 84.5472 692.267 86.2825 692.629 87.7442C692.81 88.4744 693.032 89.1642 693.308 89.7506C693.577 90.3218 693.937 90.8825 694.44 91.2569L695.634 89.6528C695.512 89.5618 695.326 89.3403 695.118 88.8989C694.917 88.4727 694.733 87.9195 694.57 87.263C694.245 85.9511 694.032 84.3372 693.909 82.7487C693.787 81.165 693.757 79.6417 693.787 78.5243C693.802 77.9617 693.832 77.524 693.869 77.2408C693.878 77.1719 693.886 77.1177 693.894 77.0771C693.902 77.0344 693.907 77.0175 693.907 77.0192C693.906 77.0206 693.902 77.0337 693.893 77.0547C693.885 77.0738 693.867 77.1154 693.834 77.1672C693.806 77.2108 693.56 77.5933 693.037 77.5932L693.037 75.5932ZM656.555 82.2505C656.547 82.6492 656.537 83.1014 656.537 83.5933H658.537C658.537 83.1255 658.546 82.6933 658.555 82.293L656.555 82.2505ZM655.677 81.8615C656.319 81.3269 656.732 81.0352 656.99 80.9019C657.119 80.8351 657.142 80.8443 657.09 80.8497C657.008 80.8583 656.829 80.845 656.662 80.7116C656.525 80.6015 656.5 80.4907 656.511 80.5254C656.52 80.5549 656.538 80.6368 656.551 80.8021C656.578 81.1374 656.569 81.6015 656.555 82.2505L658.555 82.293C658.568 81.6848 658.581 81.1033 658.545 80.6448C658.527 80.4131 658.493 80.1611 658.418 79.9247C658.345 79.6935 658.205 79.3847 657.912 79.1496C657.236 78.6093 656.454 78.9272 656.071 79.1256C655.605 79.3664 655.05 79.781 654.397 80.325L655.677 81.8615ZM655.503 86.013C654.959 85.2497 654.548 84.6376 654.467 84.0126C654.403 83.528 654.521 82.8252 655.677 81.8615L654.397 80.325C652.875 81.593 652.307 82.9228 652.483 84.2716C652.641 85.4801 653.395 86.5021 653.874 87.1737L655.503 86.013ZM657.244 87.8021C657.18 87.7374 656.751 87.3046 656.323 86.8662C656.109 86.6471 655.898 86.4293 655.734 86.2569C655.652 86.1704 655.584 86.0984 655.536 86.0449C655.468 85.9713 655.476 85.975 655.503 86.013L653.874 87.1737C653.932 87.2548 654.016 87.3464 654.059 87.3942C654.121 87.4621 654.199 87.545 654.285 87.6355C654.458 87.8171 654.676 88.0419 654.892 88.2631C655.323 88.7053 655.758 89.1442 655.83 89.2163L657.244 87.8021ZM657.878 92.2976C658.871 92.1762 658.871 92.176 658.871 92.1758C658.871 92.1758 658.871 92.1756 658.871 92.1754C658.871 92.1752 658.871 92.1748 658.871 92.1745C658.87 92.1737 658.87 92.1728 658.87 92.1717C658.87 92.1696 658.87 92.1667 658.869 92.1632C658.868 92.1562 658.867 92.1466 658.865 92.1345C658.862 92.1103 658.858 92.0761 658.851 92.0331C658.839 91.9471 658.82 91.8253 658.795 91.6769C658.744 91.3814 658.665 90.9743 658.551 90.5306C658.439 90.0898 658.287 89.5941 658.087 89.1285C657.893 88.6757 657.624 88.1816 657.244 87.8021L655.83 89.2163C655.951 89.3368 656.099 89.5662 656.25 89.9175C656.395 90.2559 656.516 90.6449 656.614 91.0262C656.711 91.4046 656.779 91.757 656.824 92.0156C656.846 92.1443 656.862 92.2482 656.872 92.3186C656.877 92.3537 656.88 92.3804 656.883 92.3975C656.884 92.4061 656.885 92.4123 656.885 92.4159C656.885 92.4177 656.886 92.4189 656.886 92.4194C656.886 92.4197 656.886 92.4198 656.886 92.4197C656.886 92.4197 656.886 92.4196 656.886 92.4195C656.886 92.4194 656.886 92.4193 656.886 92.4193C656.886 92.4191 656.886 92.419 657.878 92.2976ZM656.878 92.2976C656.878 92.316 656.879 92.3311 656.879 92.341C656.879 92.346 656.88 92.35 656.88 92.3525C656.88 92.3537 656.88 92.3548 656.88 92.3554C656.88 92.3557 656.88 92.356 656.88 92.3561C656.88 92.3562 656.88 92.3563 656.88 92.3563C656.88 92.3563 656.88 92.3563 656.88 92.3563C656.88 92.3563 656.88 92.3563 656.88 92.3563C656.88 92.3563 656.88 92.3563 656.88 92.3564C656.88 92.3567 656.88 92.3548 656.88 92.3525C656.88 92.35 656.879 92.346 656.879 92.3411C656.879 92.3312 656.878 92.3161 656.878 92.2977H658.878C658.878 92.2793 658.878 92.2641 658.877 92.2542C658.877 92.2493 658.877 92.2453 658.877 92.2428C658.877 92.2415 658.877 92.2405 658.876 92.2399C658.876 92.2396 658.876 92.2393 658.876 92.2392C658.876 92.2391 658.876 92.239 658.876 92.239C658.876 92.239 658.876 92.2389 658.876 92.2389C658.876 92.2389 658.876 92.2389 658.876 92.2389C658.876 92.2389 658.876 92.2389 658.876 92.2389C658.876 92.2386 658.877 92.2405 658.877 92.2428C658.877 92.2452 658.877 92.2492 658.877 92.2542C658.878 92.2641 658.878 92.2792 658.878 92.2976H656.878ZM658.877 92.2592L658.877 92.2591L656.879 92.336L656.879 92.3361L658.877 92.2592ZM656.769 89.7681C656.806 90.6303 656.844 91.5049 656.879 92.3394L658.877 92.2557C658.842 91.4197 658.804 90.5439 658.767 89.6819L656.769 89.7681ZM656.537 83.5933C656.537 84.3972 656.652 87.043 656.769 89.7681L658.767 89.6819C658.648 86.9189 658.537 84.3406 658.537 83.5933H656.537ZM656.879 92.3395C656.968 94.4569 657.037 96.2834 657.037 97.0092H659.037C659.037 96.2306 658.965 94.3511 658.877 92.2558L656.879 92.3395ZM659.037 96.9755L658.878 92.264L656.879 92.3314L657.038 97.0429L659.037 96.9755ZM695.552 104.652C694.391 103.954 693.931 103.178 693.762 102.175C693.574 101.058 693.742 99.6445 694.027 97.6505L692.047 97.3676C691.774 99.2791 691.54 101.023 691.79 102.507C692.059 104.107 692.878 105.378 694.522 106.366L695.552 104.652ZM703.728 102.005C702.23 104.066 700.91 105.059 699.824 105.473C698.77 105.876 697.84 105.77 697.003 105.417L696.227 107.261C697.466 107.782 698.932 107.955 700.537 107.342C702.112 106.741 703.715 105.424 705.346 103.181L703.728 102.005ZM697.003 105.417C696.494 105.203 696.016 104.931 695.552 104.652L694.522 106.366C695.004 106.656 695.582 106.989 696.227 107.261L697.003 105.417ZM696.523 105.228L696.101 105.481L697.129 107.197L697.551 106.944L696.523 105.228ZM694.013 97.726C694.396 96.0056 695.526 93.5676 696.698 91.4455L694.948 90.4785C693.761 92.627 692.509 95.2754 692.061 97.2922L694.013 97.726ZM657.432 104.456C658.521 102.278 659.037 99.1138 659.037 97.0092H657.037C657.037 98.9045 656.554 101.74 655.643 103.562L657.432 104.456Z" fill="black"/>
<path d="M694.515 37.5088C694.515 49.1068 685.113 58.5088 673.515 58.5088C661.917 58.5088 652.515 49.1068 652.515 37.5088C652.515 25.9108 661.917 16.5088 673.515 16.5088C685.113 16.5088 694.515 25.9108 694.515 37.5088Z" fill="white" stroke="black" stroke-width="2"/>
<rect width="6.13649" height="5" transform="matrix(-0.994108 -0.108396 -0.108396 0.994108 693.328 96.5439)" fill="black"/>
<path d="M706.855 98.0182L710.039 98.3653L709.497 103.336L705.037 103.009L706.855 98.0182Z" fill="black"/>
<path d="M690.908 92.2558C691.088 90.6087 689.898 89.1278 688.251 88.9482L686.192 107.836C687.839 108.016 689.319 106.826 689.499 105.179L690.908 92.2558Z" fill="black"/>
<path d="M684.896 105.875L686.562 90.6016C686.043 90.6837 685.429 90.8093 684.759 91.0012C682.713 91.5867 680.187 92.7724 678.13 95.1732C676.085 97.5599 675.155 100.543 674.837 103.309C674.627 105.139 674.693 106.81 674.85 108.05C675.072 107.76 675.312 107.455 675.542 107.191C675.977 106.693 676.675 105.97 677.586 105.714C679.789 105.097 682.104 105.309 683.782 105.629C684.185 105.706 684.559 105.79 684.896 105.875ZM675.188 109.732C675.188 109.732 675.187 109.729 675.184 109.724C675.186 109.73 675.188 109.733 675.188 109.732ZM673.769 109.378C673.767 109.38 673.765 109.381 673.765 109.381C673.765 109.381 673.767 109.38 673.769 109.378Z" fill="black" stroke="black" stroke-width="3"/>
<path d="M685.771 91.0127C685.771 91.0127 680.211 90.4385 677.144 96.1916C674.078 101.945 673.81 104.974 674.04 107.965C674.27 110.956 676.379 105.779 678.335 105.126C681.575 104.046 683.32 104.742 683.32 104.742L685.771 91.0127Z" fill="#777E5C"/>
<path d="M695.537 36.5088C695.537 48.6591 685.687 58.5088 673.537 58.5088C661.387 58.5088 651.537 48.6591 651.537 36.5088C651.537 24.3585 661.387 14.5088 673.537 14.5088C685.687 14.5088 695.537 24.3585 695.537 36.5088Z" fill="white"/>
<path d="M694.537 36.5088C694.537 48.1068 685.135 57.5088 673.537 57.5088V59.5088C686.24 59.5088 696.537 49.2113 696.537 36.5088H694.537ZM673.537 57.5088C661.939 57.5088 652.537 48.1068 652.537 36.5088H650.537C650.537 49.2113 660.835 59.5088 673.537 59.5088V57.5088ZM652.537 36.5088C652.537 24.9108 661.939 15.5088 673.537 15.5088V13.5088C660.835 13.5088 650.537 23.8062 650.537 36.5088H652.537ZM673.537 15.5088C685.135 15.5088 694.537 24.9108 694.537 36.5088H696.537C696.537 23.8062 686.24 13.5088 673.537 13.5088V15.5088Z" fill="black"/>
<path d="M701.536 35.009C700.262 36.2837 648.537 34.009 646.037 32.009C644.537 29.509 649.036 28.009 649.036 28.009C649.036 28.009 649.358 21.4155 653.741 15.7984C655.087 14.0732 656.816 12.44 659.037 11.1183C662.334 9.15552 666.716 7.87961 672.536 8.00901C672.874 8.01652 673.208 8.02705 673.537 8.04053C700.475 9.14436 697.536 30.009 697.536 30.009C697.536 30.009 703.537 33.009 701.536 35.009Z" fill="white"/>
<path d="M659.037 11.1183C662.334 9.15552 666.716 7.87961 672.536 8.00901C672.874 8.01652 673.208 8.02705 673.537 8.04053M659.037 11.1183V27.0088L671.537 28.009L673.537 8.04053M659.037 11.1183C656.816 12.44 655.087 14.0732 653.741 15.7984M673.537 8.04053C700.475 9.14436 697.536 30.009 697.536 30.009C697.536 30.009 703.537 33.009 701.536 35.009C700.262 36.2837 648.537 34.009 646.037 32.009C644.537 29.509 649.036 28.009 649.036 28.009C649.036 28.009 649.358 21.4155 653.741 15.7984M684.037 14.0088L678.037 28.009M653.741 15.7984L656.037 26.5088" stroke="black" stroke-width="2" stroke-linejoin="round"/>
</svg>
