<svg width="82" height="152" viewBox="0 0 82 152" fill="none" xmlns="http://www.w3.org/2000/svg">
<path d="M75.8938 28.3647C75.8938 39.8507 66.5825 49.162 55.0965 49.162C43.6105 49.162 34.2992 39.8507 34.2992 28.3647C34.2992 16.8786 43.6105 7.56738 55.0965 7.56738C66.5825 7.56738 75.8938 16.8786 75.8938 28.3647Z" fill="white"/>
<path d="M24.0808 83.6415C19.7024 85.2834 20.2497 84.7361 13.6822 86.9253C13.6822 86.9253 1.64157 89.6618 1.6416 78.7158C2.1889 74.3374 5.47264 74.3374 10.3983 73.7901C27.3395 71.9078 31.1956 62.0154 31.1956 62.0154C30.3156 65.6689 29.8498 69.5999 29.5537 74.3374C29.257 79.0865 29.5537 80.905 24.0808 83.6415Z" fill="white"/>
<path d="M62.9389 47.6326C60.5187 48.6187 57.8711 49.162 55.0965 49.162C50.6401 49.162 48.1619 48.0674 44.3308 46.4255C44.3308 46.4255 41.047 46.4255 37.7632 50.2566C34.2992 55.1822 32.8375 57.9187 31.1956 62.0154C30.3156 65.6689 29.8498 69.5999 29.5537 74.3374C29.257 79.0865 29.5537 80.905 24.0808 83.6415C19.7024 85.2834 20.2497 84.7361 13.6822 86.9253C13.6822 86.9253 8.20912 90.2091 7.11457 96.7766C7.11475 103.891 6.56732 108.27 8.75661 119.763C10.5289 129.067 11.4931 130.162 17.5133 130.162C23.5335 129.614 23.5336 125.783 23.5336 120.31C22.9863 111.006 22.9864 102.797 23.5336 101.703C24.081 100.608 30.2169 98.8681 35.5741 97.8712C43.2363 96.7766 48.7092 96.7766 43.7835 106.081C38.8579 117.027 39.9525 120.31 40.4998 126.878C41.0471 132.351 43.2362 138.919 48.7092 147.128C51.4457 149.864 51.993 151.506 57.466 149.864C61.416 148.408 62.9389 144.391 61.8443 140.013C60.0656 132.898 57.6639 131.594 57.466 125.783C57.1789 117.355 58.5606 112.648 64.9681 105.533C65.5987 107.359 66.9792 108.212 68.9592 108.817C71.8063 109.687 73.8849 108.817 75.5268 106.081C78.2633 97.8712 80.9997 87.4726 78.8106 77.6212C76.0741 65.307 72.243 56.3894 62.9389 47.6326Z" fill="white"/>
<path d="M55.0965 49.162C66.5825 49.162 75.8938 39.8507 75.8938 28.3647C75.8938 16.8787 66.5825 7.56738 55.0965 7.56738C43.6105 7.56738 34.2992 16.8787 34.2992 28.3647C34.2992 39.8507 43.6105 49.162 55.0965 49.162ZM55.0965 49.162C57.8711 49.162 60.5187 48.6187 62.9389 47.6326C72.243 56.3894 76.0741 65.307 78.8106 77.6212C80.9997 87.4726 78.2633 97.8712 75.5268 106.081C73.8849 108.817 71.8062 109.687 68.9592 108.817C66.9792 108.212 65.5987 107.359 64.9681 105.533M55.0965 49.162C50.6401 49.162 48.1619 48.0674 44.3308 46.4255C44.3308 46.4255 41.047 46.4255 37.7632 50.2566C34.2992 55.1822 32.8375 57.9187 31.1956 62.0154M60.7498 63.3915C60.7498 70.5064 64.5808 78.7158 65.6754 85.8307C65.1281 91.3037 64.5808 97.3239 64.5808 102.797C64.5808 103.9 64.7132 104.796 64.9681 105.533M64.9681 105.533C58.5606 112.648 57.1789 117.355 57.466 125.783C57.6639 131.594 60.0656 132.898 61.8444 140.013C62.9389 144.391 61.416 148.408 57.466 149.864C51.993 151.506 51.4457 149.864 48.7092 147.128C43.2362 138.919 41.0471 132.351 40.4998 126.878C39.9525 120.31 38.8579 117.027 43.7835 106.081C48.7092 96.7766 43.2363 96.7766 35.5741 97.8712C30.2169 98.8681 24.081 100.608 23.5336 101.703C22.9864 102.797 22.9863 111.006 23.5336 120.31C23.5336 125.783 23.5335 129.614 17.5133 130.162C11.4931 130.162 10.5289 129.067 8.75661 119.763C6.56732 108.27 7.11475 103.891 7.11457 96.7766C8.20912 90.2091 13.6822 86.9253 13.6822 86.9253M13.6822 86.9253C20.2497 84.7361 19.7024 85.2834 24.0808 83.6415C29.5537 80.905 29.257 79.0865 29.5537 74.3374C29.8498 69.6 30.3156 65.6689 31.1956 62.0154M13.6822 86.9253C13.6822 86.9253 1.64157 89.6618 1.6416 78.7158C2.1889 74.3374 5.47264 74.3374 10.3983 73.7901C27.3395 71.9078 31.1956 62.0154 31.1956 62.0154" stroke="black" stroke-width="2"/>
<path d="M9.67257 60.5166L15.1264 60.0587L17.3112 86.083L11.8574 86.5409L9.67257 60.5166Z" fill="black"/>
<path d="M0 54.3237L3.27464 54.0787L4.00937 63.9027L0.734731 64.1476L0 54.3237Z" fill="black"/>
<path d="M3.43791 56.2618L6.71255 56.0169L7.12073 61.4747L3.8461 61.7196L3.43791 56.2618Z" fill="black"/>
<path d="M6.54928 53.8338L18.5563 52.9358L19.2094 61.6682L7.20237 62.5662L6.54928 53.8338Z" fill="black"/>
<path d="M17.4647 53.0175L21.8309 52.6909L25.4729 57.358L21.0659 57.1387L17.7913 57.3836L17.4647 53.0175Z" fill="black"/>
<path d="M33.3153 18.1238C37.9745 19.9829 71.5186 30.209 78.041 31.6036C83.1661 32.0682 80.3707 28.8145 78.973 27.42C80.8367 10.6866 74.3142 5.10871 64.0645 1.85496C57.8554 0.748755 52.4907 0.590377 47.9703 2.13162C46.2201 2.72839 44.5964 3.57997 43.0994 4.72999C40.3397 6.84989 38.0103 9.98391 36.111 14.4054C31.4524 13.9404 30.5203 16.7291 33.3153 18.1238Z" fill="white"/>
<path d="M63.1327 7.89789L52.4172 17.6592M47.9703 2.13162C52.4907 0.590377 57.8554 0.748755 64.0645 1.85496C74.3142 5.10871 80.8367 10.6866 78.973 27.42C80.3707 28.8145 83.1661 32.0682 78.041 31.6036C71.5186 30.209 37.9745 19.9829 33.3153 18.1238C30.5203 16.7291 31.4524 13.9404 36.111 14.4054C38.0103 9.98391 40.3397 6.84989 43.0994 4.72999M47.9703 2.13162L56.6103 4.64413L47.2924 16.2647L39.3722 13.4758L47.9703 2.13162ZM47.9703 2.13162C46.2201 2.72839 44.5964 3.57997 43.0994 4.72999M43.0994 4.72999L39.3722 10.6868" stroke="black" stroke-width="2" stroke-linejoin="round"/>
</svg>
