<svg width="133" height="137" viewBox="0 0 133 137" fill="none" xmlns="http://www.w3.org/2000/svg">
<path d="M73 11L74 1" stroke="white" stroke-linecap="round"/>
<path d="M48 23L38 19" stroke="white" stroke-linecap="round"/>
<path d="M57 15.0381L52 9.03809" stroke="white" stroke-linecap="round"/>
<path d="M57 10.0381L52 9.03809" stroke="white" stroke-linecap="round"/>
<path d="M57 10.0381L52 3.03809" stroke="white" stroke-linecap="round"/>
<path d="M52.7627 38.1174C52.7627 48.387 58.7934 50.6814 59.7043 51.184C59.7043 51.184 33.1628 65.2557 24.6193 76.8146C17.7923 86.0513 18.5888 96.4144 16.0759 103.953C12.0556 113.501 9.04033 117.019 2.00435 125.563C-0.00609457 129.081 1.26297 130.606 3.51181 133.101C7.02961 136.117 11.7735 136.393 14.5681 133.101C37.1834 106.466 33.1629 107.472 38.691 95.9123C41.8949 87.3688 46.2294 91.8919 47.7371 94.9072C50.7525 101.44 50.2498 100.435 50.7525 107.974C51.0876 112.999 48.7422 118.025 46.732 125.061C45.7269 128.076 48.2397 132.736 52.2602 133.101C57.7883 133.604 57.7883 132.599 59.7986 130.086C62.8139 122.045 64.3215 118.527 65.8293 111.994C68.3421 103.45 64.3215 96.917 63.3165 93.399C60.8037 86.3632 71.0999 82.06 77.3882 74.8043C93.9727 55.6684 123.624 45.1533 131.162 30.579C132.167 28.6358 132.558 25.5394 130.66 23.5432C128.807 21.5952 125.781 21.8773 123.624 23.2598C123.261 23.4924 122.923 23.7561 122.619 24.0456C114.036 32.2193 100.136 40.99 84.4317 46.4138C81.4184 47.7308 77.5817 48.6184 73.6554 49.5085C77.3116 48.6741 80.9169 47.6278 84.4317 46.4138C88.0304 44.841 90.4547 42.6558 90.4547 39.1225C90.4547 37.381 90.1864 35.6955 89.6907 34.0969C87.2633 26.2688 79.383 20.5278 70.8549 20.5278C60.5853 20.5278 52.7627 27.8478 52.7627 38.1174Z" fill="white"/>
<path d="M89.6907 34.0969C90.1864 35.6955 90.4547 37.381 90.4547 39.1225C90.4547 42.6558 88.0304 44.841 84.4317 46.4138C100.136 40.99 114.036 32.2193 122.619 24.0456C122.923 23.7561 123.261 23.4924 123.624 23.2598C123.624 23.2598 124.126 18.5179 123.624 15.5023C123.121 13.9948 118.598 18.015 118.598 18.015C101.511 31.5841 89.6907 34.0969 89.6907 34.0969Z" fill="white"/>
<path d="M73.3677 49.5737C73.4636 49.5521 73.5595 49.5303 73.6554 49.5085M89.6907 34.0969C87.2633 26.2688 79.383 20.5278 70.8549 20.5278C60.5853 20.5278 52.7627 27.8478 52.7627 38.1174C52.7627 48.387 58.7934 50.6814 59.7043 51.184C59.7043 51.184 33.1628 65.2557 24.6193 76.8146C17.7923 86.0513 18.5888 96.4144 16.0759 103.953C12.0556 113.501 9.04033 117.019 2.00435 125.563C-0.00609453 129.081 1.26297 130.606 3.51181 133.101C7.02961 136.117 11.7735 136.393 14.5681 133.101C37.1834 106.466 33.1629 107.472 38.691 95.9123C41.8949 87.3688 46.2294 91.8919 47.7371 94.9072C50.7525 101.44 50.2498 100.435 50.7525 107.974C51.0876 112.999 48.7422 118.025 46.732 125.061C45.7269 128.076 48.2397 132.736 52.2602 133.101C57.7883 133.604 57.7883 132.599 59.7986 130.086C62.8139 122.045 64.3215 118.527 65.8293 111.994C68.3421 103.45 64.3215 96.917 63.3165 93.399C60.8037 86.3632 71.0999 82.06 77.3882 74.8043C93.9727 55.6684 123.624 45.1533 131.162 30.579C132.167 28.6358 132.558 25.5394 130.66 23.5432C128.807 21.5952 125.781 21.8773 123.624 23.2598M89.6907 34.0969C90.1864 35.6955 90.4547 37.381 90.4547 39.1225C90.4547 42.6558 88.0304 44.841 84.4317 46.4138M89.6907 34.0969C89.6907 34.0969 101.511 31.5841 118.598 18.015C118.598 18.015 123.121 13.9948 123.624 15.5023C124.126 18.5179 123.624 23.2598 123.624 23.2598M123.624 23.2598C123.261 23.4924 122.923 23.7561 122.619 24.0456C114.036 32.2193 100.136 40.99 84.4317 46.4138M84.4317 46.4138C81.4184 47.7308 77.5817 48.6184 73.6554 49.5085M84.4317 46.4138C80.9169 47.6278 77.3116 48.6741 73.6554 49.5085" stroke="black" stroke-width="2"/>
<path d="M89.5378 25.9629C85.8986 28.7714 58.9049 46.2078 53.5071 49.075C49.1071 50.7716 50.7535 47.202 51.635 45.6221C45.7902 31.3432 49.7467 25.0512 58.3532 19.3479C63.8184 16.6164 68.2355 15.3267 72.6062 15.5498C73.6463 15.6028 74.6684 15.7527 75.675 16.0084L76.8851 15L86.1402 22.5384L85.767 22.9375C85.8915 23.0852 86.0159 23.2354 86.1402 23.3881C90.1289 21.8083 91.6508 24.0319 89.5378 25.9629Z" fill="white"/>
<path d="M53.5071 49.075L53.8669 50.008L53.9231 49.9864L53.9762 49.9581L53.5071 49.075ZM89.5378 25.9629L90.1488 26.7546L90.1817 26.7292L90.2125 26.7011L89.5378 25.9629ZM86.1402 23.3881L85.3647 24.0195L85.8273 24.5876L86.5084 24.3178L86.1402 23.3881ZM58.3532 19.3479L57.9061 18.4534L57.8516 18.4806L57.8008 18.5143L58.3532 19.3479ZM51.635 45.6221L52.5083 46.1093L52.7429 45.6889L52.5605 45.2433L51.635 45.6221ZM72.6062 15.5498L72.5553 16.5485L72.6062 15.5498ZM77.5515 16.6164L77.183 17.546V17.546L77.5515 16.6164ZM76.8851 15L77.5166 14.2247C77.1456 13.9225 76.6125 13.9254 76.2449 14.2318L76.8851 15ZM70.8543 20.0256L70.2142 19.2574C69.9689 19.4618 69.836 19.771 69.8564 20.0896C69.8768 20.4082 70.0481 20.6979 70.3175 20.8693L70.8543 20.0256ZM81.9107 27.0614L81.3738 27.9051C81.7798 28.1635 82.3123 28.096 82.6411 27.7445L81.9107 27.0614ZM86.1402 22.5384L86.8706 23.2214C87.0598 23.019 87.1566 22.7472 87.1379 22.4708C87.1191 22.1943 86.9865 21.938 86.7717 21.7631L86.1402 22.5384ZM53.9762 49.9581C56.721 48.5002 64.8607 43.3964 72.723 38.3379C80.582 33.2816 88.2864 28.1918 90.1488 26.7546L88.9269 25.1712C87.15 26.5425 79.538 31.5752 71.6409 36.656C63.7471 41.7347 55.691 46.7826 53.038 48.1918L53.9762 49.9581ZM90.2125 26.7011C90.8447 26.1232 91.293 25.4454 91.4394 24.7221C91.5923 23.9663 91.3987 23.2023 90.8254 22.6431C90.2809 22.112 89.5068 21.8731 88.6755 21.8527C87.8358 21.832 86.8569 22.0286 85.7719 22.4583L86.5084 24.3178C87.4178 23.9576 88.125 23.8397 88.6264 23.8521C89.1362 23.8646 89.3585 24.0061 89.4289 24.0748C89.4705 24.1154 89.5105 24.1705 89.4791 24.3254C89.4412 24.5128 89.2874 24.8371 88.8632 25.2248L90.2125 26.7011ZM57.8008 18.5143C53.4353 21.4072 50.0647 24.5642 48.6246 28.9577C47.1843 33.3518 47.7457 38.7603 50.7095 46.0009L52.5605 45.2433C49.6795 38.205 49.2967 33.3281 50.5251 29.5806C51.7537 25.8325 54.6646 22.9919 58.9056 20.1814L57.8008 18.5143ZM50.7617 45.1349C50.5304 45.5495 50.2391 46.1116 50.0069 46.6992C49.7852 47.2603 49.5701 47.9587 49.591 48.6094C49.6019 48.9475 49.6783 49.3423 49.9171 49.6999C50.1691 50.0774 50.5421 50.3232 50.9756 50.4393C51.7544 50.648 52.7376 50.4435 53.8669 50.008L53.1474 48.1419C52.0766 48.5548 51.6156 48.5403 51.4932 48.5075C51.4761 48.5029 51.5341 48.52 51.5804 48.5893C51.6134 48.6388 51.5932 48.6459 51.59 48.5451C51.5827 48.3179 51.6695 47.9338 51.8669 47.4342C52.0538 46.9612 52.2989 46.4846 52.5083 46.1093L50.7617 45.1349ZM72.6572 14.5511C68.0413 14.3155 63.4435 15.6858 57.9061 18.4534L58.8003 20.2424C64.1933 17.5469 68.4297 16.3379 72.5553 16.5485L72.6572 14.5511ZM86.9156 22.7567C86.7878 22.5997 86.6598 22.4452 86.5316 22.293L85.0024 23.582C85.1232 23.7253 85.2439 23.8711 85.3647 24.0195L86.9156 22.7567ZM86.5316 22.293C83.7872 19.0373 80.9403 16.8841 77.9201 15.6867L77.183 17.546C79.8269 18.5941 82.4171 20.515 85.0024 23.582L86.5316 22.293ZM77.9201 15.6867C77.2603 15.4252 76.5942 15.21 75.9212 15.0391L75.4289 16.9776C76.0186 17.1274 76.603 17.3161 77.183 17.546L77.9201 15.6867ZM75.9212 15.0391C74.8478 14.7665 73.7602 14.6073 72.6572 14.5511L72.5553 16.5485C73.5324 16.5983 74.489 16.7389 75.4289 16.9776L75.9212 15.0391ZM76.2449 14.2318L75.0348 15.2401L76.3152 16.7766L77.5252 15.7682L76.2449 14.2318ZM75.0348 15.2401L70.2142 19.2574L71.4945 20.7938L76.3152 16.7766L75.0348 15.2401ZM70.3175 20.8693L81.3738 27.9051L82.4475 26.2178L71.3912 19.1819L70.3175 20.8693ZM82.6411 27.7445L86.4974 23.6205L85.0366 22.2545L81.1803 26.3784L82.6411 27.7445ZM86.4974 23.6205L86.8706 23.2214L85.4098 21.8554L85.0366 22.2545L86.4974 23.6205ZM86.7717 21.7631L77.5166 14.2247L76.2535 15.7753L85.5086 23.3138L86.7717 21.7631ZM67.0491 25.5065L77.1003 28.5218L77.675 26.6062L67.6238 23.5908L67.0491 25.5065Z" fill="black"/>
</svg>
