<svg width="78" height="88" viewBox="0 0 78 88" fill="none" xmlns="http://www.w3.org/2000/svg">
<path fill-rule="evenodd" clip-rule="evenodd" d="M16.546 11V5.5C16.546 2.45781 19.0106 0 22.0613 0C25.1119 0 27.5766 2.45781 27.5766 5.5V11H49.6379V5.5C49.6379 2.45781 52.1025 0 55.1532 0C58.2039 0 60.6685 2.45781 60.6685 5.5V11H68.9415C73.5089 11 77.2145 14.6953 77.2145 19.25V27.5H0V19.25C0 14.6953 3.70561 11 8.27298 11H16.546ZM0 33H77.2145V79.75C77.2145 84.3047 73.5089 88 68.9415 88H8.27298C3.70561 88 0 84.3047 0 79.75V33ZM11.9336 74.9427C12.3993 75.4767 13.002 75.7437 13.7418 75.7437H32.6866C34.303 75.7437 35.1112 74.8927 35.1112 73.1906C35.1112 71.4552 34.303 70.5875 32.6866 70.5875H19.2896L28.947 61.3763C31.0291 59.4072 32.5222 57.605 33.4263 55.9697C34.3304 54.3344 34.7825 52.6323 34.7825 50.8635C34.7825 47.5261 33.8099 44.923 31.8647 43.054C29.9195 41.1517 27.2073 40.2005 23.7279 40.2005C21.2896 40.2005 19.0978 40.7012 17.1527 41.7024C15.2075 42.7036 13.6048 44.1387 12.3445 46.0076C11.8788 46.7418 11.6459 47.4427 11.6459 48.1102C11.6459 49.078 12.0158 49.8623 12.7555 50.463C13.1664 50.8301 13.6185 51.0137 14.1116 51.0137C14.8787 51.0137 15.5636 50.5131 16.1664 49.5119C16.9883 48.1769 18.0294 47.1757 19.2896 46.5082C20.5773 45.8074 22.0567 45.4569 23.7279 45.4569C25.4813 45.4569 26.8511 45.9409 27.8374 46.9087C28.8237 47.8432 29.3168 49.1614 29.3168 50.8635C29.3168 52.1317 29.0976 53.183 28.6593 54.0173C28.2209 54.8517 27.3306 55.903 25.9881 57.1712L12.5911 69.9367C12.1528 70.3372 11.824 70.8044 11.6048 71.3384C11.3856 71.839 11.2761 72.3563 11.2761 72.8903C11.2761 73.6912 11.4952 74.3754 11.9336 74.9427ZM42.7613 74.9427C43.2271 75.4767 43.8298 75.7437 44.5695 75.7437H63.5144C65.1308 75.7437 65.939 74.8927 65.939 73.1906C65.939 71.4552 65.1308 70.5875 63.5144 70.5875H50.1174L59.7747 61.3763C61.8569 59.4072 63.35 57.605 64.2541 55.9697C65.1582 54.3344 65.6102 52.6323 65.6102 50.8635C65.6102 47.5261 64.6377 44.923 62.6925 43.054C60.7473 41.1517 58.035 40.2005 54.5557 40.2005C52.1173 40.2005 49.9256 40.7012 47.9804 41.7024C46.0353 42.7036 44.4325 44.1387 43.1723 46.0076C42.7066 46.7418 42.4737 47.4427 42.4737 48.1102C42.4737 49.078 42.8435 49.8623 43.5832 50.463C43.9942 50.8301 44.4462 51.0137 44.9394 51.0137C45.7065 51.0137 46.3914 50.5131 46.9941 49.5119C47.8161 48.1769 48.8571 47.1757 50.1174 46.5082C51.405 45.8074 52.8844 45.4569 54.5557 45.4569C56.309 45.4569 57.6789 45.9409 58.6652 46.9087C59.6515 47.8432 60.1446 49.1614 60.1446 50.8635C60.1446 52.1317 59.9254 53.183 59.4871 54.0173C59.0487 54.8517 58.1583 55.903 56.8159 57.1712L43.4189 69.9367C42.9805 70.3372 42.6518 70.8044 42.4326 71.3384C42.2134 71.839 42.1038 72.3563 42.1038 72.8903C42.1038 73.6912 42.323 74.3754 42.7613 74.9427Z" fill="#777E5C"/>
</svg>
