<svg width="145" height="145" viewBox="0 0 145 145" fill="none" xmlns="http://www.w3.org/2000/svg">
<path d="M73.0578 44.5248L57.1766 57.5601C54.5352 59.7216 54.0266 63.6122 56.0281 66.3888C58.1445 69.3484 62.2625 69.9303 65.1008 67.6857L81.3922 54.85C82.5406 53.9521 84.1813 54.1516 85.0836 55.3155C85.9859 56.4794 85.7727 58.142 84.6242 59.0565L81.1953 61.75L104 83.032V51.641H103.885L103.245 51.2254L91.3344 43.494C88.8242 41.8646 85.8875 41 82.9016 41C79.325 41 75.8469 42.247 73.0578 44.5248ZM76.7984 65.2083L68.3164 71.8922C63.1484 75.9824 55.6508 74.9183 51.7789 69.5312C48.1367 64.4601 49.0555 57.3772 53.8625 53.4367L67.5125 42.247C65.6094 41.4323 63.5586 41.0166 61.475 41.0166C58.3906 41 55.3883 41.9311 52.8125 43.6603L41 51.641V88.8846H45.6266L60.6219 102.751C63.8375 105.727 68.8086 105.495 71.7453 102.236C72.6477 101.222 73.2547 100.041 73.5664 98.8107L76.3555 101.404C79.5547 104.381 84.5422 104.164 87.4789 100.922C88.2172 100.108 88.7586 99.1598 89.1031 98.1789C92.2859 100.34 96.6172 99.8914 99.2914 96.9319C102.228 93.6897 102.015 88.6352 98.8156 85.659L76.7984 65.2083ZM22.625 51.641C21.1812 51.641 20 52.8381 20 54.3013V88.8846C20 91.8275 22.3461 94.2051 25.25 94.2051H30.5C33.4039 94.2051 35.75 91.8275 35.75 88.8846V51.641H22.625ZM27.875 83.5641C28.5712 83.5641 29.2389 83.8444 29.7312 84.3433C30.2234 84.8422 30.5 85.5188 30.5 86.2243C30.5 86.9299 30.2234 87.6065 29.7312 88.1054C29.2389 88.6043 28.5712 88.8846 27.875 88.8846C27.1788 88.8846 26.5111 88.6043 26.0188 88.1054C25.5266 87.6065 25.25 86.9299 25.25 86.2243C25.25 85.5188 25.5266 84.8422 26.0188 84.3433C26.5111 83.8444 27.1788 83.5641 27.875 83.5641ZM109.25 51.641V88.8846C109.25 91.8275 111.596 94.2051 114.5 94.2051H119.75C122.654 94.2051 125 91.8275 125 88.8846V54.3013C125 52.8381 123.819 51.641 122.375 51.641H109.25ZM114.5 86.2243C114.5 85.5188 114.777 84.8422 115.269 84.3433C115.761 83.8444 116.429 83.5641 117.125 83.5641C117.821 83.5641 118.489 83.8444 118.981 84.3433C119.473 84.8422 119.75 85.5188 119.75 86.2243C119.75 86.9299 119.473 87.6065 118.981 88.1054C118.489 88.6043 117.821 88.8846 117.125 88.8846C116.429 88.8846 115.761 88.6043 115.269 88.1054C114.777 87.6065 114.5 86.9299 114.5 86.2243Z" fill="#777E5C"/>
</svg>
