<svg width="158" height="96" viewBox="0 0 158 96" fill="none" xmlns="http://www.w3.org/2000/svg">
<path d="M79.8394 5.30051L55.9419 24.9024C51.9672 28.1527 51.2019 34.0033 54.2138 38.1787C57.3984 42.6291 63.595 43.5042 67.8659 40.1289L92.3806 20.827C94.1088 19.4769 96.5775 19.7769 97.9353 21.5271C99.2931 23.2772 98.9722 25.7775 97.2441 27.1526C94.5331 29.2808 94.361 33.3262 96.8815 35.6769L103.642 41.9818C112.292 50.0488 126.4 43.9149 126.4 32.087V16.1349C126.4 16.0612 126.34 16.0015 126.267 16.0015C126.241 16.0015 126.216 15.9941 126.194 15.98L125.264 15.3765L107.341 3.75036C103.564 1.30013 99.145 0 94.6519 0C89.27 0 84.0363 1.87518 79.8394 5.30051ZM97.375 47.4559C90.52 41.0928 80.0528 40.668 72.7047 46.4545C64.9281 52.6051 53.6459 51.0049 47.8197 42.9041C42.3391 35.2784 43.7216 24.6274 50.955 18.7018L64.2738 7.79087C67.5621 5.09703 66.6609 0.025002 62.41 0.025002C57.7688 -3.81156e-07 53.2509 1.40013 49.375 4.00038L42.6108 8.5674C35.7261 13.2157 31.6 20.9801 31.6 29.287V67.0031C31.6 69.7666 33.8403 72.0069 36.6038 72.0069C37.8627 72.0069 39.0754 72.4814 39.9999 73.3358L61.1263 92.8589C65.965 97.3344 73.4453 96.9843 77.8644 92.0839C77.9001 92.0437 77.9355 92.0034 77.9706 91.963C79.6613 90.0141 82.9117 89.0773 84.8016 90.8337C89.6156 95.3092 97.1206 94.9841 101.54 90.1087C103.178 88.3021 106.018 87.362 108.415 87.8116C112.295 88.5394 116.441 87.2867 119.315 84.1081C123.734 79.2326 123.413 71.6319 118.599 67.1565L97.375 47.4559ZM3.95 16.0015C1.7775 16.0015 0 17.8017 0 20.0019V72.0069C0 76.4324 3.53031 80.0077 7.9 80.0077H15.8C20.1697 80.0077 23.7 76.4324 23.7 72.0069V35.7515C23.7 24.8439 14.8576 16.0015 3.95 16.0015ZM11.85 64.0061C12.8976 64.0061 13.9023 64.4276 14.6431 65.1778C15.3838 65.9281 15.8 66.9456 15.8 68.0065C15.8 69.0675 15.3838 70.085 14.6431 70.8352C13.9023 71.5855 12.8976 72.0069 11.85 72.0069C10.8024 72.0069 9.7977 71.5855 9.05693 70.8352C8.31616 70.085 7.9 69.0675 7.9 68.0065C7.9 66.9456 8.31616 65.9281 9.05693 65.1778C9.7977 64.4276 10.8024 64.0061 11.85 64.0061ZM154.05 16.0015C143.142 16.0015 134.3 24.8439 134.3 35.7515V72.0069C134.3 76.4324 137.83 80.0077 142.2 80.0077H150.1C154.47 80.0077 158 76.4324 158 72.0069V20.0019C158 17.8017 156.223 16.0015 154.05 16.0015ZM142.2 68.0065C142.2 66.9456 142.616 65.9281 143.357 65.1778C144.098 64.4276 145.102 64.0061 146.15 64.0061C147.198 64.0061 148.202 64.4276 148.943 65.1778C149.684 65.9281 150.1 66.9456 150.1 68.0065C150.1 69.0675 149.684 70.085 148.943 70.8352C148.202 71.5855 147.198 72.0069 146.15 72.0069C145.102 72.0069 144.098 71.5855 143.357 70.8352C142.616 70.085 142.2 69.0675 142.2 68.0065Z" fill="white"/>
</svg>
