<svg width="145" height="145" viewBox="0 0 145 145" fill="none" xmlns="http://www.w3.org/2000/svg">
<path d="M34.25 45.75C34.25 43.4294 35.1719 41.2038 36.8128 39.5628C38.4538 37.9219 40.6794 37 43 37C45.3206 37 47.5462 37.9219 49.1872 39.5628C50.8281 41.2038 51.75 43.4294 51.75 45.75C51.75 48.0707 50.8281 50.2963 49.1872 51.9372C47.5462 53.5781 45.3206 54.5 43 54.5C40.6794 54.5 38.4538 53.5781 36.8128 51.9372C35.1719 50.2963 34.25 48.0707 34.25 45.75ZM33 70.3907C31.4375 72.1407 30.5 74.4688 30.5 77C30.5 79.5313 31.4375 81.8594 33 83.6094V70.3907ZM55.5625 62.6875C50.9219 66.7969 48 72.8125 48 79.5C48 84.8594 49.875 89.7813 53 93.6407V97.0001C53 99.7657 50.7656 102 48 102H38C35.2344 102 33 99.7657 33 97.0001V92.8126C27.0938 90.0001 23 83.9844 23 77C23 67.3282 30.8281 59.5 40.5 59.5H45.5C49.25 59.5 52.7187 60.6719 55.5625 62.6719V62.6875ZM93 97.0001V93.6407C96.125 89.7813 98 84.8594 98 79.5C98 72.8125 95.0781 66.7969 90.4375 62.6719C93.2812 60.6719 96.75 59.5 100.5 59.5H105.5C115.172 59.5 123 67.3282 123 77C123 83.9844 118.906 90.0001 113 92.8126V97.0001C113 99.7657 110.766 102 108 102H98C95.2344 102 93 99.7657 93 97.0001ZM94.25 45.75C94.25 43.4294 95.1719 41.2038 96.8128 39.5628C98.4538 37.9219 100.679 37 103 37C105.321 37 107.546 37.9219 109.187 39.5628C110.828 41.2038 111.75 43.4294 111.75 45.75C111.75 48.0707 110.828 50.2963 109.187 51.9372C107.546 53.5781 105.321 54.5 103 54.5C100.679 54.5 98.4538 53.5781 96.8128 51.9372C95.1719 50.2963 94.25 48.0707 94.25 45.75ZM113 70.3907V83.625C114.562 81.8594 115.5 79.5469 115.5 77.0157C115.5 74.4844 114.562 72.1563 113 70.4063V70.3907ZM73 37C75.6522 37 78.1957 38.0536 80.0711 39.9289C81.9464 41.8043 83 44.3478 83 47C83 49.6522 81.9464 52.1957 80.0711 54.0711C78.1957 55.9465 75.6522 57 73 57C70.3478 57 67.8043 55.9465 65.9289 54.0711C64.0536 52.1957 63 49.6522 63 47C63 44.3478 64.0536 41.8043 65.9289 39.9289C67.8043 38.0536 70.3478 37 73 37ZM60.5 79.5C60.5 82.0313 61.4375 84.3438 63 86.1094V72.8907C61.4375 74.6563 60.5 76.9688 60.5 79.5ZM83 72.8907V86.125C84.5625 84.3594 85.5 82.0469 85.5 79.5157C85.5 76.9844 84.5625 74.6563 83 72.9063V72.8907ZM93 79.5C93 86.4844 88.9062 92.5001 83 95.3126V102C83 104.766 80.7656 107 78 107H68C65.2344 107 63 104.766 63 102V95.3126C57.0938 92.5001 53 86.4844 53 79.5C53 69.8282 60.8281 62 70.5 62H75.5C85.1719 62 93 69.8282 93 79.5Z" fill="#777E5C"/>
</svg>
