<svg width="145" height="145" viewBox="0 0 145 145" fill="none" xmlns="http://www.w3.org/2000/svg">
<path d="M111.108 31.7552C107.434 28.0816 101.496 28.0816 97.8227 31.7552L92.7736 36.7875L109.196 53.2096L114.245 48.1605C117.918 44.487 117.918 38.5488 114.245 34.8752L111.108 31.7552ZM60.919 68.6588C59.8958 69.6821 59.1074 70.9402 58.6545 72.3324L53.6893 87.2281C53.2028 88.6707 53.5886 90.2642 54.6622 91.3546C55.7358 92.4449 57.3293 92.814 58.7887 92.3275L73.6843 87.3623C75.0598 86.9094 76.3179 86.121 77.3579 85.0977L105.421 57.0174L88.9826 40.5785L60.919 68.6588ZM48.1034 38.8508C39.213 38.8508 32 46.0637 32 54.9542V97.8966C32 106.787 39.213 114 48.1034 114H91.0458C99.9363 114 107.149 106.787 107.149 97.8966V81.7932C107.149 78.8241 104.751 76.4254 101.781 76.4254C98.8124 76.4254 96.4136 78.8241 96.4136 81.7932V97.8966C96.4136 100.866 94.0149 103.264 91.0458 103.264H48.1034C45.1343 103.264 42.7356 100.866 42.7356 97.8966V54.9542C42.7356 51.9851 45.1343 49.5864 48.1034 49.5864H64.2068C67.1759 49.5864 69.5746 47.1876 69.5746 44.2186C69.5746 41.2495 67.1759 38.8508 64.2068 38.8508H48.1034Z" fill="#777E5C"/>
</svg>
