<svg width="130" height="130" viewBox="0 0 130 130" fill="none" xmlns="http://www.w3.org/2000/svg">
<path d="M120.989 4.21382C115.37 -1.40461 106.288 -1.40461 100.67 4.21382C96.4072 8.4624 96.4015 15.364 100.657 19.6196L110.342 29.3044C114.607 33.5692 121.521 33.5692 125.786 29.3044C131.405 23.6859 131.405 14.6041 125.786 8.98564L120.989 4.21382ZM44.2291 60.6547C42.6642 62.2196 41.4584 64.1438 40.7657 66.2731L33.1718 89.0547C32.4278 91.261 33.0179 93.6983 34.6598 95.3658C36.3017 97.0334 38.739 97.5978 40.9709 96.8538L63.7525 89.26C65.8562 88.5673 67.7804 87.3615 69.371 85.7965L99.7283 55.4211C106.667 48.4778 106.666 37.2243 99.7245 30.283C92.7803 23.3388 81.521 23.3405 74.5789 30.2868L44.2291 60.6547ZM24.6287 15.0659C11.0316 15.0659 0 26.0975 0 39.6946V105.371C0 118.968 11.0316 130 24.6287 130H90.3054C103.903 130 114.934 118.968 114.934 105.371V80.7425C114.934 76.2016 111.265 72.5329 106.725 72.5329C102.184 72.5329 98.515 76.2016 98.515 80.7425V105.371C98.515 109.912 94.8463 113.581 90.3054 113.581H24.6287C20.0878 113.581 16.4192 109.912 16.4192 105.371V39.6946C16.4192 35.1537 20.0878 31.485 24.6287 31.485H49.2575C53.7984 31.485 57.4671 27.8164 57.4671 23.2754C57.4671 18.7345 53.7984 15.0659 49.2575 15.0659H24.6287Z" fill="white"/>
</svg>
