<svg width="164" height="80" viewBox="0 0 164 80" fill="none" xmlns="http://www.w3.org/2000/svg">
<path d="M28.0822 80C28.0822 73.0455 29.4768 66.1591 32.1864 59.7339C34.8961 53.3088 38.8676 47.4708 43.8744 42.5532C48.8811 37.6356 54.8249 33.7348 61.3666 31.0734C67.9082 28.412 74.9194 27.0423 82 27.0423C89.0806 27.0423 96.0919 28.412 102.633 31.0734C109.175 33.7348 115.119 37.6356 120.126 42.5532C121.168 43.5771 122.166 44.6409 123.116 45.7416L90.6976 60.4499C90.522 60.3713 90.3453 60.2951 90.1674 60.2212C87.578 59.1453 84.8027 58.5916 82 58.5916C79.1973 58.5916 76.422 59.1453 73.8326 60.2212C71.2432 61.297 68.8904 62.874 66.9086 64.8619C64.9268 66.8499 63.3547 69.21 62.2821 71.8074C61.2096 74.4047 60.6575 77.1886 60.6575 80H28.0822Z" fill="white"/>
<path d="M102.478 73.9675C103.05 75.9229 103.342 77.9542 103.342 80H135.918C135.918 73.0455 134.523 66.1591 131.814 59.734C130.62 56.9048 129.183 54.1894 127.519 51.6164L102.478 73.9675Z" fill="white"/>
<path d="M0 80C0 69.4943 2.12099 59.0914 6.24188 49.3853C10.3628 39.6793 16.4028 30.8601 24.0172 23.4314C27.6511 19.8862 31.6096 16.6908 35.8366 13.8817L46.4726 29.2999C43.5676 31.3482 40.8372 33.6487 38.3144 36.1793C32.5775 41.9339 28.0267 48.7656 24.922 56.2844C21.8172 63.8032 20.2192 71.8617 20.2192 80H0Z" fill="white"/>
<path d="M53.1357 25.2077L42.5521 9.86552C45.1639 8.46726 47.8569 7.20623 50.62 6.08963C60.5687 2.06926 71.2316 0 82 0C92.7684 0 103.431 2.06926 113.38 6.08964C116.143 7.20624 118.836 8.46727 121.448 9.86552L110.864 25.2077C109.166 24.3074 107.424 23.4855 105.643 22.7455C98.1469 19.6311 90.1132 18.0282 82 18.0282C73.8868 18.0282 65.8531 19.6311 58.3575 22.7455C56.5765 23.4855 54.8341 24.3074 53.1357 25.2077Z" fill="white"/>
<path d="M117.527 29.2999C120.432 31.3482 123.163 33.6487 125.686 36.1793C127.571 38.0706 129.328 40.0782 130.948 42.1882L145.458 35.6052L133.711 46.0899C135.807 49.3057 137.605 52.7178 139.078 56.2844C142.183 63.8032 143.781 71.8617 143.781 80H164C164 69.4943 161.879 59.0914 157.758 49.3853C153.637 39.6793 147.597 30.8601 139.983 23.4315C136.349 19.8862 132.39 16.6908 128.163 13.8817L117.527 29.2999Z" fill="white"/>
</svg>
