<svg width="145" height="146" viewBox="0 0 145 146" fill="none" xmlns="http://www.w3.org/2000/svg">
<path d="M36.1781 101.051C36.1781 96.2839 37.1305 91.5632 38.981 87.1586C40.8315 82.7541 43.5437 78.752 46.963 75.3809C50.3822 72.0098 54.4414 69.3358 58.9089 67.5113C63.3763 65.6869 68.1645 64.7479 73 64.7479C77.8355 64.7479 82.6237 65.6869 87.0911 67.5113C91.5586 69.3358 95.6178 72.0098 99.037 75.3809C99.749 76.0828 100.43 76.8121 101.079 77.5666L78.9398 87.6495C78.8199 87.5956 78.6992 87.5433 78.5777 87.4926C76.8094 86.7551 74.9141 86.3755 73 86.3755C71.0859 86.3755 69.1906 86.7551 67.4223 87.4926C65.6539 88.2302 64.0471 89.3112 62.6937 90.674C61.3402 92.0367 60.2666 93.6546 59.5341 95.4352C58.8017 97.2157 58.4247 99.1241 58.4247 101.051H36.1781Z" fill="#777E5C"/>
<path d="M86.9847 96.916C87.3757 98.2565 87.5753 99.6489 87.5753 101.051H109.822C109.822 96.2839 108.869 91.5632 107.019 87.1586C106.204 85.2192 105.222 83.3578 104.086 81.5939L86.9847 96.916Z" fill="#777E5C"/>
<path d="M17 101.051C17 93.8495 18.4485 86.7181 21.2627 80.0645C24.077 73.4108 28.2019 67.3651 33.402 62.2726C35.8837 59.8423 38.587 57.6518 41.4738 55.7261L48.7374 66.2956C46.7535 67.6997 44.8888 69.2767 43.1659 71.0115C39.248 74.9564 36.1402 79.6397 34.0199 84.7939C31.8995 89.9482 30.8082 95.4724 30.8082 101.051H17Z" fill="#777E5C"/>
<path d="M53.2878 63.4903L46.06 52.9729C47.8436 52.0144 49.6827 51.15 51.5697 50.3845C58.364 47.6285 65.646 46.21 73 46.21C80.354 46.21 87.636 47.6285 94.4303 50.3845C96.3173 51.15 98.1564 52.0144 99.94 52.9729L92.7122 63.4903C91.5523 62.8731 90.3624 62.3097 89.1461 61.8024C84.0272 59.6674 78.5407 58.5686 73 58.5686C67.4593 58.5686 61.9729 59.6674 56.8539 61.8024C55.6376 62.3097 54.4477 62.8731 53.2878 63.4903Z" fill="#777E5C"/>
<path d="M97.2626 66.2956C99.2465 67.6997 101.111 69.2767 102.834 71.0115C104.122 72.308 105.322 73.6842 106.428 75.1307L116.337 70.6179L108.315 77.8054C109.746 80.0099 110.974 82.3489 111.98 84.7939C114.1 89.9482 115.192 95.4724 115.192 101.051H129C129 93.8495 127.552 86.7181 124.737 80.0645C121.923 73.4108 117.798 67.3651 112.598 62.2726C110.116 59.8423 107.413 57.6518 104.526 55.7261L97.2626 66.2956Z" fill="#777E5C"/>
</svg>
