<svg width="1317" height="661" viewBox="0 0 1317 661" fill="none" xmlns="http://www.w3.org/2000/svg">
<ellipse cx="1125.68" cy="392.186" rx="39.2366" ry="80.0532" fill="black"/>
<ellipse cx="1131.28" cy="392.188" rx="30.8287" ry="62.899" fill="white"/>
<ellipse cx="1065.41" cy="489.395" rx="15.4144" ry="31.4495" fill="black"/>
<ellipse cx="1066.77" cy="489.677" rx="10.8472" ry="20.7082" fill="white"/>
<path d="M1213.95 410.77L1274.21 383.609V380.75L1141.09 369.314L1072.42 397.904L1141.79 404.21L1211.15 410.515L1213.95 410.77Z" fill="white"/>
<path d="M1141.09 217.784V317.851V369.314L1274.21 380.75V226.362L1141.09 217.784Z" fill="white"/>
<path d="M1310.64 212.066C1296.41 216.533 1274.21 226.362 1274.21 226.362M1274.21 226.362L1141.09 217.784V317.851V369.314M1274.21 226.362V380.75M1274.21 383.609L1213.95 410.77L1211.15 410.515M1274.21 383.609V435.072C1274.21 435.072 1220.96 495.112 1188.73 506.548C1199.94 469.38 1211.15 410.515 1211.15 410.515M1274.21 383.609V380.75M1072.42 397.904C1072.42 397.904 1064.85 495.112 1068.22 495.112C1071.58 495.112 1118.2 447.461 1141.09 423.636L1141.79 404.21M1072.42 397.904L1141.79 404.21M1072.42 397.904L1141.09 369.314M1211.15 410.515L1141.79 404.21M1141.09 369.314L1274.21 380.75" stroke="black" stroke-width="5"/>
<path d="M1248.42 204.341C1248.42 237.18 1222.33 263.802 1190.14 263.802C1182.71 263.802 1175.6 262.384 1169.07 259.799C1147.29 251.183 1131.85 229.601 1131.85 204.341C1131.85 171.502 1157.94 144.881 1190.14 144.881C1222.33 144.881 1248.42 171.502 1248.42 204.341Z" fill="white"/>
<path d="M1144.04 324.536C1144.87 310.992 1146.18 299.753 1148.64 289.307C1153.25 277.595 1155.64 272.257 1165.35 258.174C1165.35 258.174 1125.68 297.84 1117.27 314.994C1108.86 332.148 1122.87 353.266 1122.87 353.266L1131.61 357.396L1138.66 345.39L1148.64 328.376L1144.04 324.536Z" fill="white"/>
<path d="M1230.77 246.967C1220.27 257.385 1205.94 263.802 1190.14 263.802C1179.25 263.802 1176.67 263.092 1169.07 259.799C1167.81 259.3 1166.57 258.758 1165.35 258.174C1155.64 272.257 1153.25 277.595 1148.64 289.307C1146.18 299.753 1144.87 310.992 1144.04 324.536L1148.64 328.376C1148.64 328.376 1150.02 326.037 1150.9 324.536C1151.5 323.514 1154.39 325.937 1157.63 328.989C1160.83 332.01 1164.36 335.648 1166.31 337.169C1167.01 337.71 1167.5 337.984 1167.71 337.866C1170.79 336.154 1169.1 332.04 1173.32 330.719C1177.3 329.47 1183.13 335.007 1183.13 335.007L1180.33 345.014C1180.33 345.014 1187.04 347.397 1191.08 351.137C1191.8 351.805 1192.44 352.517 1192.94 353.266C1197.61 360.303 1198 366.23 1190.14 373.604C1187.82 375.779 1184.94 376.986 1181.73 377.461C1177.49 378.085 1172.67 377.44 1167.71 376.059C1162.53 374.611 1157.21 372.356 1152.3 369.907C1148.16 367.842 1144.32 365.638 1141.09 363.665C1135.37 360.169 1131.61 357.396 1131.61 357.396L1122.87 353.266C1116.28 355.519 1114.4 355.481 1099.56 360.526C1099.56 360.526 1084.22 369.914 1081.15 388.691C1081.16 409.033 1079.62 421.551 1085.76 454.41C1090.72 481.011 1093.43 484.141 1110.3 484.141C1127.17 482.576 1127.17 471.623 1127.17 455.975C1125.64 429.374 1125.64 405.904 1127.17 402.774C1128.7 399.645 1137.29 389.32 1152.3 386.47C1173.77 383.341 1169.12 385.041 1162.11 390.759C1156.5 392.188 1146.69 397.906 1142.49 407.913C1141.09 416.49 1139.69 432.215 1142.49 465.094C1143.89 473.671 1153.7 487.966 1167.71 489.396C1177.52 489.396 1185.93 475.1 1188.73 462.235C1190.14 439.362 1192.94 417.339 1199.94 405.903L1243.23 380.752C1242.62 389.266 1242.21 397.795 1242.21 405.903C1242.21 409.056 1242.58 411.618 1243.3 413.727C1245.06 418.945 1248.93 421.386 1254.48 423.115C1262.46 425.602 1268.29 423.115 1272.89 415.292C1280.56 391.821 1288.23 362.09 1282.09 333.925C1274.42 298.718 1256.85 272.003 1230.77 246.967Z" fill="white"/>
<path d="M1131.61 357.396C1131.61 357.396 1135.37 360.169 1141.09 363.665L1146.05 353.266C1145.48 352.427 1141.09 347.884 1138.66 345.39L1131.61 357.396Z" fill="white"/>
<path d="M1150.9 324.536C1150.02 326.037 1148.64 328.376 1148.64 328.376L1138.66 345.39C1141.09 347.884 1145.48 352.427 1146.05 353.266L1153.05 338.583L1157.63 328.989C1154.39 325.937 1151.5 323.514 1150.9 324.536Z" fill="white"/>
<path d="M1141.09 363.665C1144.32 365.638 1148.16 367.842 1152.3 369.907L1161.53 348.335L1153.05 338.583L1146.05 353.266L1141.09 363.665Z" fill="white"/>
<path d="M1166.31 337.169C1164.36 335.648 1160.83 332.01 1157.63 328.989L1153.05 338.583L1161.53 348.335L1166.31 337.169Z" fill="white"/>
<path d="M1180.33 345.014L1183.13 335.007C1183.13 335.007 1177.3 329.47 1173.32 330.719C1169.1 332.04 1170.79 336.154 1167.71 337.866C1167.5 337.984 1167.01 337.71 1166.31 337.169L1161.53 348.335L1152.3 369.907C1157.21 372.356 1162.53 374.611 1167.71 376.059L1175.1 357.88L1180.33 345.014Z" fill="white"/>
<path d="M1167.71 376.059C1172.67 377.44 1177.49 378.085 1181.73 377.461L1184.62 369.316L1175.1 357.88L1167.71 376.059Z" fill="white"/>
<path d="M1191.08 351.137C1187.04 347.397 1180.33 345.014 1180.33 345.014L1175.1 357.88L1184.62 369.316L1191.08 351.137Z" fill="white"/>
<path d="M1190.14 373.604C1198 366.23 1197.61 360.303 1192.94 353.266C1192.44 352.517 1191.8 351.805 1191.08 351.137L1184.62 369.316L1181.73 377.461C1184.94 376.986 1187.82 375.779 1190.14 373.604Z" fill="white"/>
<path d="M1190.14 263.802C1222.33 263.802 1248.42 237.18 1248.42 204.341C1248.42 171.502 1222.33 144.881 1190.14 144.881C1157.94 144.881 1131.85 171.502 1131.85 204.341C1131.85 229.601 1147.29 251.183 1169.07 259.799M1190.14 263.802C1197.91 263.802 1220.96 256.384 1230.77 246.967M1190.14 263.802C1205.94 263.802 1220.27 257.385 1230.77 246.967M1190.14 263.802C1179.25 263.802 1176.67 263.092 1169.07 259.799M1190.14 263.802C1182.71 263.802 1175.6 262.384 1169.07 259.799M1230.77 246.967C1256.85 272.003 1274.42 298.718 1282.09 333.925C1288.23 362.09 1280.56 391.821 1272.89 415.292C1268.29 423.115 1262.46 425.602 1254.48 423.115C1248.93 421.386 1245.06 418.945 1243.3 413.727C1242.58 411.618 1242.21 409.056 1242.21 405.903C1242.21 397.795 1242.62 389.266 1243.23 380.752M1231.47 293.241C1231.47 313.583 1242.21 337.054 1245.28 357.396C1244.54 364.935 1243.8 372.837 1243.23 380.752M1122.87 353.266C1116.28 355.519 1114.4 355.481 1099.56 360.526C1099.56 360.526 1084.22 369.914 1081.15 388.691C1081.16 409.033 1079.62 421.551 1085.76 454.41C1090.72 481.011 1093.43 484.141 1110.3 484.141C1127.17 482.576 1127.17 471.623 1127.17 455.975C1125.64 429.374 1125.64 405.904 1127.17 402.774C1128.7 399.645 1137.29 389.32 1152.3 386.47C1173.77 383.341 1169.12 385.041 1162.11 390.759C1156.5 392.188 1146.69 397.906 1142.49 407.913C1141.09 416.49 1139.69 432.215 1142.49 465.094C1143.89 473.671 1153.7 487.966 1167.71 489.396C1177.52 489.396 1185.93 475.1 1188.73 462.235C1190.14 439.362 1192.94 417.339 1199.94 405.903L1243.23 380.752M1122.87 353.266C1124.46 352.723 1120.49 354.177 1122.87 353.266ZM1122.87 353.266C1122.87 353.266 1108.86 332.148 1117.27 314.994C1125.68 297.84 1165.35 258.174 1165.35 258.174M1122.87 353.266L1131.61 357.396M1165.35 258.174C1155.64 272.257 1153.25 277.595 1148.64 289.307C1146.18 299.753 1144.87 310.992 1144.04 324.536L1148.64 328.376M1165.35 258.174C1166.57 258.758 1167.81 259.3 1169.07 259.799M1165.35 258.174C1166.73 258.775 1167.95 259.315 1169.07 259.799M1180.33 345.014L1183.13 335.007C1183.13 335.007 1177.3 329.47 1173.32 330.719C1169.1 332.04 1170.79 336.154 1167.71 337.866C1167.5 337.984 1167.01 337.71 1166.31 337.169M1180.33 345.014C1180.33 345.014 1187.04 347.397 1191.08 351.137M1180.33 345.014L1175.1 357.88M1131.61 357.396C1131.61 357.396 1135.37 360.169 1141.09 363.665M1131.61 357.396L1138.66 345.39M1148.64 328.376C1148.64 328.376 1150.02 326.037 1150.9 324.536C1151.5 323.514 1154.39 325.937 1157.63 328.989M1148.64 328.376L1138.66 345.39M1157.63 328.989C1160.83 332.01 1164.36 335.648 1166.31 337.169M1157.63 328.989L1153.05 338.583M1141.09 363.665C1144.32 365.638 1148.16 367.842 1152.3 369.907M1141.09 363.665L1146.05 353.266M1152.3 369.907C1157.21 372.356 1162.53 374.611 1167.71 376.059M1152.3 369.907L1161.53 348.335M1166.31 337.169L1161.53 348.335M1167.71 376.059C1172.67 377.44 1177.49 378.085 1181.73 377.461M1167.71 376.059L1175.1 357.88M1191.08 351.137C1191.8 351.805 1192.44 352.517 1192.94 353.266C1197.61 360.303 1198 366.23 1190.14 373.604C1187.82 375.779 1184.94 376.986 1181.73 377.461M1191.08 351.137L1184.62 369.316M1181.73 377.461L1184.62 369.316M1184.62 369.316L1175.1 357.88M1161.53 348.335L1153.05 338.583M1153.05 338.583L1146.05 353.266M1146.05 353.266C1145.48 352.427 1141.09 347.884 1138.66 345.39M1138.29 345.014C1138.4 345.133 1138.53 345.258 1138.66 345.39" stroke="black" stroke-width="2"/>
<path d="M1124.69 192.351C1138.62 194.301 1236.76 199.58 1255.45 198.959C1269.7 196.719 1259.9 189.615 1255.16 186.708C1248.93 138.992 1227.43 128.005 1197.35 126.034C1179.71 127.239 1165.01 130.494 1153.76 137.883C1149.4 140.744 1145.56 144.225 1142.26 148.447C1136.19 156.23 1131.97 166.531 1129.78 180.108C1116.8 182.025 1116.15 190.405 1124.69 192.351Z" fill="white"/>
<path d="M1198.89 143.444L1176.34 177.908M1153.76 137.883C1165.01 130.494 1179.71 127.239 1197.35 126.034C1227.43 128.005 1248.93 138.992 1255.16 186.708C1259.9 189.615 1269.7 196.719 1255.45 198.959C1236.76 199.58 1138.62 194.301 1124.69 192.351C1116.15 190.405 1116.8 182.025 1129.78 180.108C1131.97 166.531 1136.19 156.23 1142.26 148.447M1153.76 137.883L1178.96 138.906L1161.45 177.568L1138.03 175.282L1153.76 137.883ZM1153.76 137.883C1149.4 140.744 1145.56 144.225 1142.26 148.447M1142.26 148.447L1136.15 167.543" stroke="black" stroke-width="2" stroke-linejoin="round"/>
<ellipse cx="1191.53" cy="506.543" rx="15.4144" ry="31.4495" fill="black"/>
<ellipse cx="1193.97" cy="507.427" rx="9.86105" ry="20.7082" fill="white"/>
<ellipse cx="1195.95" cy="509.399" rx="5.91663" ry="12.8194" fill="black"/>
<ellipse cx="1277.01" cy="420.776" rx="39.2366" ry="80.0532" fill="black"/>
<ellipse cx="1280.75" cy="422.623" rx="29.5831" ry="60.1524" fill="white"/>
<ellipse cx="1285.67" cy="423.61" rx="14.7916" ry="33.5276" fill="black"/>
<path d="M75.7305 391H71.4336V361.703H75.7305V374.672H90.8477V361.703H95.1445V391H90.8477V378.441H75.7305V391ZM118.191 388.676C115.77 390.486 113.107 391.391 110.203 391.391C108.133 391.391 106.277 390.935 104.637 390.023C102.996 389.112 101.701 387.868 100.75 386.293C99.7995 384.717 99.3242 382.94 99.3242 380.961C99.3242 379.073 99.7604 377.387 100.633 375.902C101.505 374.405 102.697 373.227 104.207 372.367C105.717 371.508 107.43 371.078 109.344 371.078C111.323 371.078 113.061 371.547 114.559 372.484C116.069 373.422 117.241 374.73 118.074 376.41C118.921 378.077 119.344 380.01 119.344 382.211V382.836H103.66C103.895 383.852 104.337 384.743 104.988 385.512C105.639 386.267 106.447 386.859 107.41 387.289C108.374 387.706 109.461 387.914 110.672 387.914C112.833 387.914 114.819 387.211 116.629 385.805L118.191 388.676ZM103.484 380.062H115.613C115.483 378.969 115.145 378.018 114.598 377.211C114.051 376.391 113.341 375.753 112.469 375.297C111.609 374.828 110.639 374.594 109.559 374.594C108.465 374.594 107.482 374.828 106.609 375.297C105.737 375.753 105.027 376.391 104.48 377.211C103.947 378.031 103.615 378.982 103.484 380.062ZM125.672 391H120.418L128.777 380.941L120.984 371.469H126.336L131.453 377.992L136.492 371.469H141.746L134.07 380.863L142.43 391H137.059L131.414 383.793L125.672 391ZM157.254 390.512C155.887 391.098 154.565 391.391 153.289 391.391C152.013 391.391 150.893 391.117 149.93 390.57C148.979 390.023 148.23 389.255 147.684 388.266C147.15 387.263 146.883 386.111 146.883 384.809V375.043H143.465V371.469H147.078V366.586H150.887V371.469H156.59V375.043H150.887V384.066C150.887 385.212 151.193 386.124 151.805 386.801C152.43 387.465 153.23 387.797 154.207 387.797C155.027 387.797 155.841 387.549 156.648 387.055L157.254 390.512ZM170.066 391.391C168.113 391.391 166.355 390.948 164.793 390.062C163.23 389.177 162 387.973 161.102 386.449C160.203 384.913 159.754 383.174 159.754 381.234C159.754 379.307 160.203 377.582 161.102 376.059C162 374.522 163.23 373.311 164.793 372.426C166.355 371.527 168.113 371.078 170.066 371.078C172.033 371.078 173.79 371.527 175.34 372.426C176.889 373.311 178.107 374.522 178.992 376.059C179.891 377.582 180.34 379.307 180.34 381.234C180.34 383.174 179.891 384.913 178.992 386.449C178.107 387.973 176.889 389.177 175.34 390.062C173.79 390.948 172.033 391.391 170.066 391.391ZM170.047 387.797C171.232 387.797 172.286 387.51 173.211 386.938C174.148 386.352 174.884 385.57 175.418 384.594C175.965 383.604 176.238 382.478 176.238 381.215C176.238 379.978 175.965 378.871 175.418 377.895C174.884 376.905 174.148 376.124 173.211 375.551C172.286 374.965 171.232 374.672 170.047 374.672C168.875 374.672 167.82 374.965 166.883 375.551C165.945 376.124 165.203 376.905 164.656 377.895C164.122 378.871 163.855 379.978 163.855 381.215C163.855 382.478 164.122 383.604 164.656 384.594C165.203 385.57 165.945 386.352 166.883 386.938C167.82 387.51 168.875 387.797 170.047 387.797ZM188.523 391H184.52V371.469H188.016L188.172 375.18C188.849 373.891 189.78 372.888 190.965 372.172C192.163 371.443 193.536 371.078 195.086 371.078C195.464 371.078 195.841 371.104 196.219 371.156C196.609 371.195 197 371.26 197.391 371.352L196.883 374.965C196.128 374.77 195.385 374.672 194.656 374.672C193.445 374.672 192.378 374.965 191.453 375.551C190.529 376.124 189.806 376.918 189.285 377.934C188.777 378.949 188.523 380.121 188.523 381.449V391ZM209.988 391V361.703H213.992V374.184C215.438 372.113 217.632 371.078 220.574 371.078C223.113 371.078 225.099 371.846 226.531 373.383C227.964 374.919 228.68 377.061 228.68 379.809V391H224.676V380.785C224.676 378.845 224.207 377.341 223.27 376.273C222.345 375.206 221.049 374.672 219.383 374.672C217.703 374.672 216.382 375.219 215.418 376.312C214.467 377.393 213.992 378.884 213.992 380.785V391H209.988ZM250.242 391H246.785L246.551 388.5C245.835 389.411 244.93 390.121 243.836 390.629C242.742 391.137 241.531 391.391 240.203 391.391C238.81 391.391 237.566 391.117 236.473 390.57C235.379 390.023 234.52 389.275 233.895 388.324C233.27 387.374 232.957 386.293 232.957 385.082C232.957 383.806 233.296 382.686 233.973 381.723C234.65 380.746 235.574 379.984 236.746 379.438C237.918 378.878 239.253 378.598 240.75 378.598C241.688 378.598 242.638 378.708 243.602 378.93C244.578 379.151 245.457 379.464 246.238 379.867V379.145C246.238 378.194 245.991 377.38 245.496 376.703C245.014 376.013 244.35 375.486 243.504 375.121C242.671 374.757 241.746 374.574 240.73 374.574C239.832 374.574 238.914 374.73 237.977 375.043C237.052 375.355 236.18 375.837 235.359 376.488L234.148 373.227C235.333 372.523 236.564 371.99 237.84 371.625C239.129 371.26 240.392 371.078 241.629 371.078C243.4 371.078 244.923 371.43 246.199 372.133C247.488 372.836 248.484 373.839 249.188 375.141C249.891 376.43 250.242 377.953 250.242 379.711V391ZM240.984 387.992C241.909 387.992 242.762 387.803 243.543 387.426C244.324 387.035 244.956 386.488 245.438 385.785C245.932 385.069 246.199 384.236 246.238 383.285V383.012C245.574 382.517 244.826 382.133 243.992 381.859C243.172 381.573 242.332 381.43 241.473 381.43C240.158 381.43 239.064 381.742 238.191 382.367C237.319 382.992 236.883 383.793 236.883 384.77C236.883 385.382 237.059 385.935 237.41 386.43C237.775 386.911 238.263 387.296 238.875 387.582C239.5 387.855 240.203 387.992 240.984 387.992ZM259.5 391H255.496V371.469H258.992L259.148 375.18C259.826 373.891 260.757 372.888 261.941 372.172C263.139 371.443 264.513 371.078 266.062 371.078C266.44 371.078 266.818 371.104 267.195 371.156C267.586 371.195 267.977 371.26 268.367 371.352L267.859 374.965C267.104 374.77 266.362 374.672 265.633 374.672C264.422 374.672 263.354 374.965 262.43 375.551C261.505 376.124 260.783 376.918 260.262 377.934C259.754 378.949 259.5 380.121 259.5 381.449V391ZM286.473 391H282.469V375.043H279.051V371.469H282.469V367.66C282.469 366.384 282.749 365.258 283.309 364.281C283.882 363.292 284.663 362.517 285.652 361.957C286.655 361.397 287.807 361.117 289.109 361.117C289.917 361.117 290.73 361.228 291.551 361.449C292.371 361.671 293.178 362.016 293.973 362.484L292.449 365.629C292.02 365.316 291.57 365.089 291.102 364.945C290.646 364.789 290.19 364.711 289.734 364.711C288.784 364.711 288.003 365.049 287.391 365.727C286.779 366.404 286.473 367.309 286.473 368.441V371.469H292.449V375.043H286.473V391ZM305.223 369.496C303.96 369.496 302.944 369.125 302.176 368.383C301.408 367.628 301.023 366.638 301.023 365.414C301.023 364.177 301.408 363.188 302.176 362.445C302.944 361.69 303.96 361.312 305.223 361.312C306.486 361.312 307.501 361.69 308.27 362.445C309.038 363.188 309.422 364.177 309.422 365.414C309.422 366.638 309.038 367.628 308.27 368.383C307.501 369.125 306.486 369.496 305.223 369.496ZM305.223 367.758C305.926 367.758 306.486 367.543 306.902 367.113C307.332 366.684 307.547 366.117 307.547 365.414C307.547 364.698 307.332 364.125 306.902 363.695C306.486 363.266 305.926 363.051 305.223 363.051C304.52 363.051 303.96 363.266 303.543 363.695C303.126 364.125 302.918 364.698 302.918 365.414C302.918 366.117 303.126 366.684 303.543 367.113C303.96 367.543 304.52 367.758 305.223 367.758ZM313.406 391H309.949L309.715 388.5C308.999 389.411 308.094 390.121 307 390.629C305.906 391.137 304.695 391.391 303.367 391.391C301.974 391.391 300.73 391.117 299.637 390.57C298.543 390.023 297.684 389.275 297.059 388.324C296.434 387.374 296.121 386.293 296.121 385.082C296.121 383.806 296.46 382.686 297.137 381.723C297.814 380.746 298.738 379.984 299.91 379.438C301.082 378.878 302.417 378.598 303.914 378.598C304.852 378.598 305.802 378.708 306.766 378.93C307.742 379.151 308.621 379.464 309.402 379.867V379.145C309.402 378.194 309.155 377.38 308.66 376.703C308.178 376.013 307.514 375.486 306.668 375.121C305.835 374.757 304.91 374.574 303.895 374.574C302.996 374.574 302.078 374.73 301.141 375.043C300.216 375.355 299.344 375.837 298.523 376.488L297.312 373.227C298.497 372.523 299.728 371.99 301.004 371.625C302.293 371.26 303.556 371.078 304.793 371.078C306.564 371.078 308.087 371.43 309.363 372.133C310.652 372.836 311.648 373.839 312.352 375.141C313.055 376.43 313.406 377.953 313.406 379.711V391ZM304.109 387.992C305.073 387.992 305.952 387.777 306.746 387.348C307.553 386.918 308.198 386.339 308.68 385.609C309.161 384.867 309.402 384.047 309.402 383.148V383.012C308.79 382.517 308.074 382.133 307.254 381.859C306.434 381.573 305.581 381.43 304.695 381.43C303.341 381.43 302.228 381.742 301.355 382.367C300.483 382.992 300.047 383.793 300.047 384.77C300.047 385.382 300.223 385.935 300.574 386.43C300.939 386.911 301.421 387.296 302.02 387.582C302.632 387.855 303.328 387.992 304.109 387.992ZM336.082 388.676C333.66 390.486 330.997 391.391 328.094 391.391C326.023 391.391 324.168 390.935 322.527 390.023C320.887 389.112 319.591 387.868 318.641 386.293C317.69 384.717 317.215 382.94 317.215 380.961C317.215 379.073 317.651 377.387 318.523 375.902C319.396 374.405 320.587 373.227 322.098 372.367C323.608 371.508 325.32 371.078 327.234 371.078C329.214 371.078 330.952 371.547 332.449 372.484C333.96 373.422 335.132 374.73 335.965 376.41C336.811 378.077 337.234 380.01 337.234 382.211V382.836H321.551C321.785 383.852 322.228 384.743 322.879 385.512C323.53 386.267 324.337 386.859 325.301 387.289C326.264 387.706 327.352 387.914 328.562 387.914C330.724 387.914 332.71 387.211 334.52 385.805L336.082 388.676ZM321.375 380.062H333.504C333.374 378.969 333.035 378.018 332.488 377.211C331.941 376.391 331.232 375.753 330.359 375.297C329.5 374.828 328.53 374.594 327.449 374.594C326.355 374.594 325.372 374.828 324.5 375.297C323.628 375.753 322.918 376.391 322.371 377.211C321.837 378.031 321.505 378.982 321.375 380.062ZM352.957 390.512C351.59 391.098 350.268 391.391 348.992 391.391C347.716 391.391 346.596 391.117 345.633 390.57C344.682 390.023 343.934 389.255 343.387 388.266C342.853 387.263 342.586 386.111 342.586 384.809V375.043H339.168V371.469H342.781V366.586H346.59V371.469H352.293V375.043H346.59V384.066C346.59 385.212 346.896 386.124 347.508 386.801C348.133 387.465 348.934 387.797 349.91 387.797C350.73 387.797 351.544 387.549 352.352 387.055L352.957 390.512ZM383.855 388.676C381.434 390.486 378.771 391.391 375.867 391.391C373.797 391.391 371.941 390.935 370.301 390.023C368.66 389.112 367.365 387.868 366.414 386.293C365.464 384.717 364.988 382.94 364.988 380.961C364.988 379.073 365.424 377.387 366.297 375.902C367.169 374.405 368.361 373.227 369.871 372.367C371.382 371.508 373.094 371.078 375.008 371.078C376.987 371.078 378.725 371.547 380.223 372.484C381.733 373.422 382.905 374.73 383.738 376.41C384.585 378.077 385.008 380.01 385.008 382.211V382.836H369.324C369.559 383.852 370.001 384.743 370.652 385.512C371.303 386.267 372.111 386.859 373.074 387.289C374.038 387.706 375.125 387.914 376.336 387.914C378.497 387.914 380.483 387.211 382.293 385.805L383.855 388.676ZM369.148 380.062H381.277C381.147 378.969 380.809 378.018 380.262 377.211C379.715 376.391 379.005 375.753 378.133 375.297C377.273 374.828 376.303 374.594 375.223 374.594C374.129 374.594 373.146 374.828 372.273 375.297C371.401 375.753 370.691 376.391 370.145 377.211C369.611 378.031 369.279 378.982 369.148 380.062ZM407.898 391H403.895V380.395C403.895 378.663 403.419 377.283 402.469 376.254C401.531 375.225 400.268 374.711 398.68 374.711C397.039 374.711 395.717 375.258 394.715 376.352C393.712 377.445 393.211 378.897 393.211 380.707V391H389.207V371.469H392.586L392.723 374.613C393.439 373.467 394.376 372.595 395.535 371.996C396.694 371.384 398.055 371.078 399.617 371.078C402.182 371.078 404.201 371.853 405.672 373.402C407.156 374.952 407.898 377.087 407.898 379.809V391ZM438.992 391H435.535L435.301 388.5C434.585 389.411 433.68 390.121 432.586 390.629C431.492 391.137 430.281 391.391 428.953 391.391C427.56 391.391 426.316 391.117 425.223 390.57C424.129 390.023 423.27 389.275 422.645 388.324C422.02 387.374 421.707 386.293 421.707 385.082C421.707 383.806 422.046 382.686 422.723 381.723C423.4 380.746 424.324 379.984 425.496 379.438C426.668 378.878 428.003 378.598 429.5 378.598C430.438 378.598 431.388 378.708 432.352 378.93C433.328 379.151 434.207 379.464 434.988 379.867V379.145C434.988 378.194 434.741 377.38 434.246 376.703C433.764 376.013 433.1 375.486 432.254 375.121C431.421 374.757 430.496 374.574 429.48 374.574C428.582 374.574 427.664 374.73 426.727 375.043C425.802 375.355 424.93 375.837 424.109 376.488L422.898 373.227C424.083 372.523 425.314 371.99 426.59 371.625C427.879 371.26 429.142 371.078 430.379 371.078C432.15 371.078 433.673 371.43 434.949 372.133C436.238 372.836 437.234 373.839 437.938 375.141C438.641 376.43 438.992 377.953 438.992 379.711V391ZM429.734 387.992C430.659 387.992 431.512 387.803 432.293 387.426C433.074 387.035 433.706 386.488 434.188 385.785C434.682 385.069 434.949 384.236 434.988 383.285V383.012C434.324 382.517 433.576 382.133 432.742 381.859C431.922 381.573 431.082 381.43 430.223 381.43C428.908 381.43 427.814 381.742 426.941 382.367C426.069 382.992 425.633 383.793 425.633 384.77C425.633 385.382 425.809 385.935 426.16 386.43C426.525 386.911 427.013 387.296 427.625 387.582C428.25 387.855 428.953 387.992 429.734 387.992ZM448.25 391H444.246V371.469H447.742L447.898 375.18C448.576 373.891 449.507 372.888 450.691 372.172C451.889 371.443 453.263 371.078 454.812 371.078C455.19 371.078 455.568 371.104 455.945 371.156C456.336 371.195 456.727 371.26 457.117 371.352L456.609 374.965C455.854 374.77 455.112 374.672 454.383 374.672C453.172 374.672 452.104 374.965 451.18 375.551C450.255 376.124 449.533 376.918 449.012 377.934C448.504 378.949 448.25 380.121 448.25 381.449V391ZM463.719 391H460.184V361.703H464.188V373.969C465.073 373.057 466.108 372.348 467.293 371.84C468.491 371.332 469.793 371.078 471.199 371.078C473.087 371.078 474.767 371.521 476.238 372.406C477.71 373.292 478.868 374.503 479.715 376.039C480.574 377.562 481.004 379.294 481.004 381.234C481.004 383.161 480.574 384.893 479.715 386.43C478.868 387.966 477.71 389.177 476.238 390.062C474.767 390.948 473.087 391.391 471.199 391.391C469.715 391.391 468.348 391.111 467.098 390.551C465.861 389.978 464.799 389.197 463.914 388.207L463.719 391ZM470.555 387.797C471.766 387.797 472.846 387.51 473.797 386.938C474.76 386.365 475.516 385.583 476.062 384.594C476.622 383.604 476.902 382.484 476.902 381.234C476.902 379.984 476.622 378.865 476.062 377.875C475.516 376.885 474.76 376.104 473.797 375.531C472.846 374.958 471.766 374.672 470.555 374.672C469.396 374.672 468.348 374.932 467.41 375.453C466.486 375.974 465.737 376.69 465.164 377.602C464.591 378.513 464.266 379.555 464.188 380.727V381.723C464.266 382.882 464.585 383.923 465.145 384.848C465.717 385.759 466.466 386.482 467.391 387.016C468.328 387.536 469.383 387.797 470.555 387.797ZM502.605 388.676C500.184 390.486 497.521 391.391 494.617 391.391C492.547 391.391 490.691 390.935 489.051 390.023C487.41 389.112 486.115 387.868 485.164 386.293C484.214 384.717 483.738 382.94 483.738 380.961C483.738 379.073 484.174 377.387 485.047 375.902C485.919 374.405 487.111 373.227 488.621 372.367C490.132 371.508 491.844 371.078 493.758 371.078C495.737 371.078 497.475 371.547 498.973 372.484C500.483 373.422 501.655 374.73 502.488 376.41C503.335 378.077 503.758 380.01 503.758 382.211V382.836H488.074C488.309 383.852 488.751 384.743 489.402 385.512C490.053 386.267 490.861 386.859 491.824 387.289C492.788 387.706 493.875 387.914 495.086 387.914C497.247 387.914 499.233 387.211 501.043 385.805L502.605 388.676ZM487.898 380.062H500.027C499.897 378.969 499.559 378.018 499.012 377.211C498.465 376.391 497.755 375.753 496.883 375.297C496.023 374.828 495.053 374.594 493.973 374.594C492.879 374.594 491.896 374.828 491.023 375.297C490.151 375.753 489.441 376.391 488.895 377.211C488.361 378.031 488.029 378.982 487.898 380.062ZM510.301 365.805C509.689 365.805 509.174 365.59 508.758 365.16C508.341 364.73 508.133 364.21 508.133 363.598C508.133 362.986 508.341 362.471 508.758 362.055C509.174 361.625 509.689 361.41 510.301 361.41C510.913 361.41 511.427 361.625 511.844 362.055C512.273 362.471 512.488 362.986 512.488 363.598C512.488 364.21 512.273 364.73 511.844 365.16C511.427 365.59 510.913 365.805 510.301 365.805ZM502.723 400.863V397.699C502.931 397.738 503.133 397.764 503.328 397.777C503.51 397.79 503.686 397.797 503.855 397.797C505.197 397.797 506.271 397.328 507.078 396.391C507.885 395.466 508.289 394.21 508.289 392.621V371.469H512.312V392.797C512.312 395.492 511.701 397.556 510.477 398.988C509.266 400.434 507.534 401.156 505.281 401.156C504.891 401.156 504.48 401.13 504.051 401.078C503.621 401.026 503.178 400.954 502.723 400.863ZM537.293 391H533.758L533.543 388.207C532.658 389.197 531.59 389.978 530.34 390.551C529.103 391.111 527.742 391.391 526.258 391.391C524.383 391.391 522.703 390.948 521.219 390.062C519.734 389.177 518.562 387.966 517.703 386.43C516.857 384.893 516.434 383.161 516.434 381.234C516.434 379.294 516.857 377.562 517.703 376.039C518.562 374.503 519.734 373.292 521.219 372.406C522.703 371.521 524.383 371.078 526.258 371.078C527.664 371.078 528.966 371.332 530.164 371.84C531.375 372.348 532.417 373.057 533.289 373.969V361.703H537.293V391ZM526.922 387.797C528.107 387.797 529.174 387.523 530.125 386.977C531.089 386.43 531.857 385.688 532.43 384.75C533.003 383.812 533.289 382.745 533.289 381.547V380.883C533.289 379.685 533.003 378.617 532.43 377.68C531.857 376.742 531.089 376.007 530.125 375.473C529.174 374.939 528.107 374.672 526.922 374.672C525.711 374.672 524.624 374.958 523.66 375.531C522.697 376.104 521.935 376.885 521.375 377.875C520.815 378.852 520.535 379.965 520.535 381.215C520.535 382.465 520.815 383.585 521.375 384.574C521.935 385.564 522.697 386.352 523.66 386.938C524.624 387.51 525.711 387.797 526.922 387.797ZM541.551 389.301L542.527 385.707C542.97 386.15 543.497 386.54 544.109 386.879C544.734 387.217 545.392 387.484 546.082 387.68C546.785 387.862 547.475 387.953 548.152 387.953C549.22 387.953 550.079 387.725 550.73 387.27C551.382 386.814 551.707 386.208 551.707 385.453C551.707 384.893 551.525 384.431 551.16 384.066C550.809 383.689 550.333 383.363 549.734 383.09C549.148 382.816 548.517 382.549 547.84 382.289C546.967 381.964 546.095 381.586 545.223 381.156C544.363 380.727 543.641 380.154 543.055 379.438C542.469 378.721 542.176 377.777 542.176 376.605C542.176 375.486 542.462 374.516 543.035 373.695C543.608 372.862 544.409 372.217 545.438 371.762C546.466 371.306 547.651 371.078 548.992 371.078C551.076 371.078 553.139 371.599 555.184 372.641L554.012 376.059C553.595 375.759 553.1 375.492 552.527 375.258C551.954 375.023 551.368 374.841 550.77 374.711C550.171 374.568 549.617 374.496 549.109 374.496C548.263 374.496 547.579 374.685 547.059 375.062C546.551 375.44 546.297 375.948 546.297 376.586C546.297 376.977 546.421 377.335 546.668 377.66C546.915 377.973 547.306 378.285 547.84 378.598C548.387 378.897 549.122 379.236 550.047 379.613C550.932 379.965 551.818 380.368 552.703 380.824C553.589 381.28 554.324 381.872 554.91 382.602C555.509 383.331 555.809 384.288 555.809 385.473C555.809 386.645 555.496 387.68 554.871 388.578C554.246 389.464 553.374 390.154 552.254 390.648C551.147 391.143 549.858 391.391 548.387 391.391C545.952 391.391 543.673 390.694 541.551 389.301ZM558.699 389.301L559.676 385.707C560.118 386.15 560.646 386.54 561.258 386.879C561.883 387.217 562.54 387.484 563.23 387.68C563.934 387.862 564.624 387.953 565.301 387.953C566.368 387.953 567.228 387.725 567.879 387.27C568.53 386.814 568.855 386.208 568.855 385.453C568.855 384.893 568.673 384.431 568.309 384.066C567.957 383.689 567.482 383.363 566.883 383.09C566.297 382.816 565.665 382.549 564.988 382.289C564.116 381.964 563.243 381.586 562.371 381.156C561.512 380.727 560.789 380.154 560.203 379.438C559.617 378.721 559.324 377.777 559.324 376.605C559.324 375.486 559.611 374.516 560.184 373.695C560.757 372.862 561.557 372.217 562.586 371.762C563.615 371.306 564.799 371.078 566.141 371.078C568.224 371.078 570.288 371.599 572.332 372.641L571.16 376.059C570.743 375.759 570.249 375.492 569.676 375.258C569.103 375.023 568.517 374.841 567.918 374.711C567.319 374.568 566.766 374.496 566.258 374.496C565.411 374.496 564.728 374.685 564.207 375.062C563.699 375.44 563.445 375.948 563.445 376.586C563.445 376.977 563.569 377.335 563.816 377.66C564.064 377.973 564.454 378.285 564.988 378.598C565.535 378.897 566.271 379.236 567.195 379.613C568.081 379.965 568.966 380.368 569.852 380.824C570.737 381.28 571.473 381.872 572.059 382.602C572.658 383.331 572.957 384.288 572.957 385.473C572.957 386.645 572.645 387.68 572.02 388.578C571.395 389.464 570.522 390.154 569.402 390.648C568.296 391.143 567.007 391.391 565.535 391.391C563.1 391.391 560.822 390.694 558.699 389.301ZM581.219 391H577.215V361.703H581.219V381.449L582.879 379.457L590.418 371.469H595.438L587.371 380.023L596.57 391H591.395L584.598 382.758L581.219 386.234V391ZM615.867 391H612.41L612.176 388.5C611.46 389.411 610.555 390.121 609.461 390.629C608.367 391.137 607.156 391.391 605.828 391.391C604.435 391.391 603.191 391.117 602.098 390.57C601.004 390.023 600.145 389.275 599.52 388.324C598.895 387.374 598.582 386.293 598.582 385.082C598.582 383.806 598.921 382.686 599.598 381.723C600.275 380.746 601.199 379.984 602.371 379.438C603.543 378.878 604.878 378.598 606.375 378.598C607.312 378.598 608.263 378.708 609.227 378.93C610.203 379.151 611.082 379.464 611.863 379.867V379.145C611.863 378.194 611.616 377.38 611.121 376.703C610.639 376.013 609.975 375.486 609.129 375.121C608.296 374.757 607.371 374.574 606.355 374.574C605.457 374.574 604.539 374.73 603.602 375.043C602.677 375.355 601.805 375.837 600.984 376.488L599.773 373.227C600.958 372.523 602.189 371.99 603.465 371.625C604.754 371.26 606.017 371.078 607.254 371.078C609.025 371.078 610.548 371.43 611.824 372.133C613.113 372.836 614.109 373.839 614.812 375.141C615.516 376.43 615.867 377.953 615.867 379.711V391ZM606.609 387.992C607.534 387.992 608.387 387.803 609.168 387.426C609.949 387.035 610.581 386.488 611.062 385.785C611.557 385.069 611.824 384.236 611.863 383.285V383.012C611.199 382.517 610.451 382.133 609.617 381.859C608.797 381.573 607.957 381.43 607.098 381.43C605.783 381.43 604.689 381.742 603.816 382.367C602.944 382.992 602.508 383.793 602.508 384.77C602.508 385.382 602.684 385.935 603.035 386.43C603.4 386.911 603.888 387.296 604.5 387.582C605.125 387.855 605.828 387.992 606.609 387.992ZM640.535 391H637L636.785 388.207C635.9 389.197 634.832 389.978 633.582 390.551C632.345 391.111 630.984 391.391 629.5 391.391C627.625 391.391 625.945 390.948 624.461 390.062C622.977 389.177 621.805 387.966 620.945 386.43C620.099 384.893 619.676 383.161 619.676 381.234C619.676 379.294 620.099 377.562 620.945 376.039C621.805 374.503 622.977 373.292 624.461 372.406C625.945 371.521 627.625 371.078 629.5 371.078C630.906 371.078 632.208 371.332 633.406 371.84C634.617 372.348 635.659 373.057 636.531 373.969V361.703H640.535V391ZM630.164 387.797C631.349 387.797 632.417 387.523 633.367 386.977C634.331 386.43 635.099 385.688 635.672 384.75C636.245 383.812 636.531 382.745 636.531 381.547V380.883C636.531 379.685 636.245 378.617 635.672 377.68C635.099 376.742 634.331 376.007 633.367 375.473C632.417 374.939 631.349 374.672 630.164 374.672C628.953 374.672 627.866 374.958 626.902 375.531C625.939 376.104 625.177 376.885 624.617 377.875C624.057 378.852 623.777 379.965 623.777 381.215C623.777 382.465 624.057 383.585 624.617 384.574C625.177 385.564 625.939 386.352 626.902 386.938C627.866 387.51 628.953 387.797 630.164 387.797ZM663.582 388.676C661.16 390.486 658.497 391.391 655.594 391.391C653.523 391.391 651.668 390.935 650.027 390.023C648.387 389.112 647.091 387.868 646.141 386.293C645.19 384.717 644.715 382.94 644.715 380.961C644.715 379.073 645.151 377.387 646.023 375.902C646.896 374.405 648.087 373.227 649.598 372.367C651.108 371.508 652.82 371.078 654.734 371.078C656.714 371.078 658.452 371.547 659.949 372.484C661.46 373.422 662.632 374.73 663.465 376.41C664.311 378.077 664.734 380.01 664.734 382.211V382.836H649.051C649.285 383.852 649.728 384.743 650.379 385.512C651.03 386.267 651.837 386.859 652.801 387.289C653.764 387.706 654.852 387.914 656.062 387.914C658.224 387.914 660.21 387.211 662.02 385.805L663.582 388.676ZM648.875 380.062H661.004C660.874 378.969 660.535 378.018 659.988 377.211C659.441 376.391 658.732 375.753 657.859 375.297C657 374.828 656.03 374.594 654.949 374.594C653.855 374.594 652.872 374.828 652 375.297C651.128 375.753 650.418 376.391 649.871 377.211C649.337 378.031 649.005 378.982 648.875 380.062ZM670.984 395.688H668.152L669.676 387.406H673.152L670.984 395.688ZM104.344 439.301L105.32 435.707C105.763 436.15 106.29 436.54 106.902 436.879C107.527 437.217 108.185 437.484 108.875 437.68C109.578 437.862 110.268 437.953 110.945 437.953C112.013 437.953 112.872 437.725 113.523 437.27C114.174 436.814 114.5 436.208 114.5 435.453C114.5 434.893 114.318 434.431 113.953 434.066C113.602 433.689 113.126 433.363 112.527 433.09C111.941 432.816 111.31 432.549 110.633 432.289C109.76 431.964 108.888 431.586 108.016 431.156C107.156 430.727 106.434 430.154 105.848 429.438C105.262 428.721 104.969 427.777 104.969 426.605C104.969 425.486 105.255 424.516 105.828 423.695C106.401 422.862 107.202 422.217 108.23 421.762C109.259 421.306 110.444 421.078 111.785 421.078C113.868 421.078 115.932 421.599 117.977 422.641L116.805 426.059C116.388 425.759 115.893 425.492 115.32 425.258C114.747 425.023 114.161 424.841 113.562 424.711C112.964 424.568 112.41 424.496 111.902 424.496C111.056 424.496 110.372 424.685 109.852 425.062C109.344 425.44 109.09 425.948 109.09 426.586C109.09 426.977 109.214 427.335 109.461 427.66C109.708 427.973 110.099 428.285 110.633 428.598C111.18 428.897 111.915 429.236 112.84 429.613C113.725 429.965 114.611 430.368 115.496 430.824C116.382 431.28 117.117 431.872 117.703 432.602C118.302 433.331 118.602 434.288 118.602 435.473C118.602 436.645 118.289 437.68 117.664 438.578C117.039 439.464 116.167 440.154 115.047 440.648C113.94 441.143 112.651 441.391 111.18 441.391C108.745 441.391 106.466 440.694 104.344 439.301ZM130.984 419.496C129.721 419.496 128.706 419.125 127.938 418.383C127.169 417.628 126.785 416.638 126.785 415.414C126.785 414.177 127.169 413.188 127.938 412.445C128.706 411.69 129.721 411.312 130.984 411.312C132.247 411.312 133.263 411.69 134.031 412.445C134.799 413.188 135.184 414.177 135.184 415.414C135.184 416.638 134.799 417.628 134.031 418.383C133.263 419.125 132.247 419.496 130.984 419.496ZM130.984 417.758C131.688 417.758 132.247 417.543 132.664 417.113C133.094 416.684 133.309 416.117 133.309 415.414C133.309 414.698 133.094 414.125 132.664 413.695C132.247 413.266 131.688 413.051 130.984 413.051C130.281 413.051 129.721 413.266 129.305 413.695C128.888 414.125 128.68 414.698 128.68 415.414C128.68 416.117 128.888 416.684 129.305 417.113C129.721 417.543 130.281 417.758 130.984 417.758ZM139.168 441H135.711L135.477 438.5C134.76 439.411 133.855 440.121 132.762 440.629C131.668 441.137 130.457 441.391 129.129 441.391C127.736 441.391 126.492 441.117 125.398 440.57C124.305 440.023 123.445 439.275 122.82 438.324C122.195 437.374 121.883 436.293 121.883 435.082C121.883 433.806 122.221 432.686 122.898 431.723C123.576 430.746 124.5 429.984 125.672 429.438C126.844 428.878 128.178 428.598 129.676 428.598C130.613 428.598 131.564 428.708 132.527 428.93C133.504 429.151 134.383 429.464 135.164 429.867V429.145C135.164 428.194 134.917 427.38 134.422 426.703C133.94 426.013 133.276 425.486 132.43 425.121C131.596 424.757 130.672 424.574 129.656 424.574C128.758 424.574 127.84 424.73 126.902 425.043C125.978 425.355 125.105 425.837 124.285 426.488L123.074 423.227C124.259 422.523 125.49 421.99 126.766 421.625C128.055 421.26 129.318 421.078 130.555 421.078C132.326 421.078 133.849 421.43 135.125 422.133C136.414 422.836 137.41 423.839 138.113 425.141C138.816 426.43 139.168 427.953 139.168 429.711V441ZM129.871 437.992C130.835 437.992 131.714 437.777 132.508 437.348C133.315 436.918 133.96 436.339 134.441 435.609C134.923 434.867 135.164 434.047 135.164 433.148V433.012C134.552 432.517 133.836 432.133 133.016 431.859C132.195 431.573 131.342 431.43 130.457 431.43C129.103 431.43 127.99 431.742 127.117 432.367C126.245 432.992 125.809 433.793 125.809 434.77C125.809 435.382 125.984 435.935 126.336 436.43C126.701 436.911 127.182 437.296 127.781 437.582C128.393 437.855 129.09 437.992 129.871 437.992ZM173.367 441H169.832L169.617 438.207C168.732 439.197 167.664 439.978 166.414 440.551C165.177 441.111 163.816 441.391 162.332 441.391C160.457 441.391 158.777 440.948 157.293 440.062C155.809 439.177 154.637 437.966 153.777 436.43C152.931 434.893 152.508 433.161 152.508 431.234C152.508 429.294 152.931 427.562 153.777 426.039C154.637 424.503 155.809 423.292 157.293 422.406C158.777 421.521 160.457 421.078 162.332 421.078C163.738 421.078 165.04 421.332 166.238 421.84C167.449 422.348 168.491 423.057 169.363 423.969V411.703H173.367V441ZM162.996 437.797C164.181 437.797 165.249 437.523 166.199 436.977C167.163 436.43 167.931 435.688 168.504 434.75C169.077 433.812 169.363 432.745 169.363 431.547V430.883C169.363 429.685 169.077 428.617 168.504 427.68C167.931 426.742 167.163 426.007 166.199 425.473C165.249 424.939 164.181 424.672 162.996 424.672C161.785 424.672 160.698 424.958 159.734 425.531C158.771 426.104 158.009 426.885 157.449 427.875C156.889 428.852 156.609 429.965 156.609 431.215C156.609 432.465 156.889 433.585 157.449 434.574C158.009 435.564 158.771 436.352 159.734 436.938C160.698 437.51 161.785 437.797 162.996 437.797ZM196.414 438.676C193.992 440.486 191.329 441.391 188.426 441.391C186.355 441.391 184.5 440.935 182.859 440.023C181.219 439.112 179.923 437.868 178.973 436.293C178.022 434.717 177.547 432.94 177.547 430.961C177.547 429.073 177.983 427.387 178.855 425.902C179.728 424.405 180.919 423.227 182.43 422.367C183.94 421.508 185.652 421.078 187.566 421.078C189.546 421.078 191.284 421.547 192.781 422.484C194.292 423.422 195.464 424.73 196.297 426.41C197.143 428.077 197.566 430.01 197.566 432.211V432.836H181.883C182.117 433.852 182.56 434.743 183.211 435.512C183.862 436.267 184.669 436.859 185.633 437.289C186.596 437.706 187.684 437.914 188.895 437.914C191.056 437.914 193.042 437.211 194.852 435.805L196.414 438.676ZM181.707 430.062H193.836C193.706 428.969 193.367 428.018 192.82 427.211C192.273 426.391 191.564 425.753 190.691 425.297C189.832 424.828 188.862 424.594 187.781 424.594C186.688 424.594 185.704 424.828 184.832 425.297C183.96 425.753 183.25 426.391 182.703 427.211C182.169 428.031 181.837 428.982 181.707 430.062ZM220.457 441H216.453V430.395C216.453 428.663 215.978 427.283 215.027 426.254C214.09 425.225 212.827 424.711 211.238 424.711C209.598 424.711 208.276 425.258 207.273 426.352C206.271 427.445 205.77 428.897 205.77 430.707V441H201.766V421.469H205.145L205.281 424.613C205.997 423.467 206.935 422.595 208.094 421.996C209.253 421.384 210.613 421.078 212.176 421.078C214.741 421.078 216.759 421.853 218.23 423.402C219.715 424.952 220.457 427.087 220.457 429.809V441ZM235.242 441V411.703H239.246V424.184C240.691 422.113 242.885 421.078 245.828 421.078C248.367 421.078 250.353 421.846 251.785 423.383C253.217 424.919 253.934 427.061 253.934 429.809V441H249.93V430.785C249.93 428.845 249.461 427.341 248.523 426.273C247.599 425.206 246.303 424.672 244.637 424.672C242.957 424.672 241.635 425.219 240.672 426.312C239.721 427.393 239.246 428.884 239.246 430.785V441H235.242ZM276.609 438.676C274.188 440.486 271.525 441.391 268.621 441.391C266.551 441.391 264.695 440.935 263.055 440.023C261.414 439.112 260.118 437.868 259.168 436.293C258.217 434.717 257.742 432.94 257.742 430.961C257.742 429.073 258.178 427.387 259.051 425.902C259.923 424.405 261.115 423.227 262.625 422.367C264.135 421.508 265.848 421.078 267.762 421.078C269.741 421.078 271.479 421.547 272.977 422.484C274.487 423.422 275.659 424.73 276.492 426.41C277.339 428.077 277.762 430.01 277.762 432.211V432.836H262.078C262.312 433.852 262.755 434.743 263.406 435.512C264.057 436.267 264.865 436.859 265.828 437.289C266.792 437.706 267.879 437.914 269.09 437.914C271.251 437.914 273.237 437.211 275.047 435.805L276.609 438.676ZM261.902 430.062H274.031C273.901 428.969 273.562 428.018 273.016 427.211C272.469 426.391 271.759 425.753 270.887 425.297C270.027 424.828 269.057 424.594 267.977 424.594C266.883 424.594 265.9 424.828 265.027 425.297C264.155 425.753 263.445 426.391 262.898 427.211C262.365 428.031 262.033 428.982 261.902 430.062ZM285.965 441H281.961V421.469H285.457L285.613 425.18C286.29 423.891 287.221 422.888 288.406 422.172C289.604 421.443 290.978 421.078 292.527 421.078C292.905 421.078 293.283 421.104 293.66 421.156C294.051 421.195 294.441 421.26 294.832 421.352L294.324 424.965C293.569 424.77 292.827 424.672 292.098 424.672C290.887 424.672 289.819 424.965 288.895 425.551C287.97 426.124 287.247 426.918 286.727 427.934C286.219 428.949 285.965 430.121 285.965 431.449V441ZM306.062 439.301L307.039 435.707C307.482 436.15 308.009 436.54 308.621 436.879C309.246 437.217 309.904 437.484 310.594 437.68C311.297 437.862 311.987 437.953 312.664 437.953C313.732 437.953 314.591 437.725 315.242 437.27C315.893 436.814 316.219 436.208 316.219 435.453C316.219 434.893 316.036 434.431 315.672 434.066C315.32 433.689 314.845 433.363 314.246 433.09C313.66 432.816 313.029 432.549 312.352 432.289C311.479 431.964 310.607 431.586 309.734 431.156C308.875 430.727 308.152 430.154 307.566 429.438C306.98 428.721 306.688 427.777 306.688 426.605C306.688 425.486 306.974 424.516 307.547 423.695C308.12 422.862 308.921 422.217 309.949 421.762C310.978 421.306 312.163 421.078 313.504 421.078C315.587 421.078 317.651 421.599 319.695 422.641L318.523 426.059C318.107 425.759 317.612 425.492 317.039 425.258C316.466 425.023 315.88 424.841 315.281 424.711C314.682 424.568 314.129 424.496 313.621 424.496C312.775 424.496 312.091 424.685 311.57 425.062C311.062 425.44 310.809 425.948 310.809 426.586C310.809 426.977 310.932 427.335 311.18 427.66C311.427 427.973 311.818 428.285 312.352 428.598C312.898 428.897 313.634 429.236 314.559 429.613C315.444 429.965 316.329 430.368 317.215 430.824C318.1 431.28 318.836 431.872 319.422 432.602C320.021 433.331 320.32 434.288 320.32 435.473C320.32 436.645 320.008 437.68 319.383 438.578C318.758 439.464 317.885 440.154 316.766 440.648C315.659 441.143 314.37 441.391 312.898 441.391C310.464 441.391 308.185 440.694 306.062 439.301ZM326.648 415.805C326.036 415.805 325.522 415.59 325.105 415.16C324.689 414.73 324.48 414.21 324.48 413.598C324.48 412.986 324.689 412.471 325.105 412.055C325.522 411.625 326.036 411.41 326.648 411.41C327.273 411.41 327.794 411.625 328.211 412.055C328.641 412.471 328.855 412.986 328.855 413.598C328.855 414.21 328.641 414.73 328.211 415.16C327.794 415.59 327.273 415.805 326.648 415.805ZM328.641 441H324.637V421.469H328.641V441ZM353.758 441H350.223L350.008 438.207C349.122 439.197 348.055 439.978 346.805 440.551C345.568 441.111 344.207 441.391 342.723 441.391C340.848 441.391 339.168 440.948 337.684 440.062C336.199 439.177 335.027 437.966 334.168 436.43C333.322 434.893 332.898 433.161 332.898 431.234C332.898 429.294 333.322 427.562 334.168 426.039C335.027 424.503 336.199 423.292 337.684 422.406C339.168 421.521 340.848 421.078 342.723 421.078C344.129 421.078 345.431 421.332 346.629 421.84C347.84 422.348 348.882 423.057 349.754 423.969V411.703H353.758V441ZM343.387 437.797C344.572 437.797 345.639 437.523 346.59 436.977C347.553 436.43 348.322 435.688 348.895 434.75C349.467 433.812 349.754 432.745 349.754 431.547V430.883C349.754 429.685 349.467 428.617 348.895 427.68C348.322 426.742 347.553 426.007 346.59 425.473C345.639 424.939 344.572 424.672 343.387 424.672C342.176 424.672 341.089 424.958 340.125 425.531C339.161 426.104 338.4 426.885 337.84 427.875C337.28 428.852 337 429.965 337 431.215C337 432.465 337.28 433.585 337.84 434.574C338.4 435.564 339.161 436.352 340.125 436.938C341.089 437.51 342.176 437.797 343.387 437.797ZM376.805 438.676C374.383 440.486 371.72 441.391 368.816 441.391C366.746 441.391 364.891 440.935 363.25 440.023C361.609 439.112 360.314 437.868 359.363 436.293C358.413 434.717 357.938 432.94 357.938 430.961C357.938 429.073 358.374 427.387 359.246 425.902C360.118 424.405 361.31 423.227 362.82 422.367C364.331 421.508 366.043 421.078 367.957 421.078C369.936 421.078 371.674 421.547 373.172 422.484C374.682 423.422 375.854 424.73 376.688 426.41C377.534 428.077 377.957 430.01 377.957 432.211V432.836H362.273C362.508 433.852 362.951 434.743 363.602 435.512C364.253 436.267 365.06 436.859 366.023 437.289C366.987 437.706 368.074 437.914 369.285 437.914C371.447 437.914 373.432 437.211 375.242 435.805L376.805 438.676ZM362.098 430.062H374.227C374.096 428.969 373.758 428.018 373.211 427.211C372.664 426.391 371.954 425.753 371.082 425.297C370.223 424.828 369.253 424.594 368.172 424.594C367.078 424.594 366.095 424.828 365.223 425.297C364.35 425.753 363.641 426.391 363.094 427.211C362.56 428.031 362.228 428.982 362.098 430.062ZM395.223 441H391.688V411.703H395.691V423.969C396.577 423.057 397.612 422.348 398.797 421.84C399.995 421.332 401.297 421.078 402.703 421.078C404.591 421.078 406.271 421.521 407.742 422.406C409.214 423.292 410.372 424.503 411.219 426.039C412.078 427.562 412.508 429.294 412.508 431.234C412.508 433.161 412.078 434.893 411.219 436.43C410.372 437.966 409.214 439.177 407.742 440.062C406.271 440.948 404.591 441.391 402.703 441.391C401.219 441.391 399.852 441.111 398.602 440.551C397.365 439.978 396.303 439.197 395.418 438.207L395.223 441ZM402.059 437.797C403.27 437.797 404.35 437.51 405.301 436.938C406.264 436.365 407.02 435.583 407.566 434.594C408.126 433.604 408.406 432.484 408.406 431.234C408.406 429.984 408.126 428.865 407.566 427.875C407.02 426.885 406.264 426.104 405.301 425.531C404.35 424.958 403.27 424.672 402.059 424.672C400.9 424.672 399.852 424.932 398.914 425.453C397.99 425.974 397.241 426.69 396.668 427.602C396.095 428.513 395.77 429.555 395.691 430.727V431.723C395.77 432.882 396.089 433.923 396.648 434.848C397.221 435.759 397.97 436.482 398.895 437.016C399.832 437.536 400.887 437.797 402.059 437.797ZM420.945 441H416.688V410.922H420.945V441ZM428.641 415.805C428.029 415.805 427.514 415.59 427.098 415.16C426.681 414.73 426.473 414.21 426.473 413.598C426.473 412.986 426.681 412.471 427.098 412.055C427.514 411.625 428.029 411.41 428.641 411.41C429.266 411.41 429.786 411.625 430.203 412.055C430.633 412.471 430.848 412.986 430.848 413.598C430.848 414.21 430.633 414.73 430.203 415.16C429.786 415.59 429.266 415.805 428.641 415.805ZM430.633 441H426.629V421.469H430.633V441ZM454.91 421.469L446.785 441H442.898L434.773 421.469H439.07L444.871 436.879L450.672 421.469H454.91ZM475.828 438.676C473.406 440.486 470.743 441.391 467.84 441.391C465.77 441.391 463.914 440.935 462.273 440.023C460.633 439.112 459.337 437.868 458.387 436.293C457.436 434.717 456.961 432.94 456.961 430.961C456.961 429.073 457.397 427.387 458.27 425.902C459.142 424.405 460.333 423.227 461.844 422.367C463.354 421.508 465.066 421.078 466.98 421.078C468.96 421.078 470.698 421.547 472.195 422.484C473.706 423.422 474.878 424.73 475.711 426.41C476.557 428.077 476.98 430.01 476.98 432.211V432.836H461.297C461.531 433.852 461.974 434.743 462.625 435.512C463.276 436.267 464.083 436.859 465.047 437.289C466.01 437.706 467.098 437.914 468.309 437.914C470.47 437.914 472.456 437.211 474.266 435.805L475.828 438.676ZM461.121 430.062H473.25C473.12 428.969 472.781 428.018 472.234 427.211C471.688 426.391 470.978 425.753 470.105 425.297C469.246 424.828 468.276 424.594 467.195 424.594C466.102 424.594 465.118 424.828 464.246 425.297C463.374 425.753 462.664 426.391 462.117 427.211C461.583 428.031 461.251 428.982 461.121 430.062ZM485.184 441H481.18V421.469H484.676L484.832 425.18C485.509 423.891 486.44 422.888 487.625 422.172C488.823 421.443 490.197 421.078 491.746 421.078C492.124 421.078 492.501 421.104 492.879 421.156C493.27 421.195 493.66 421.26 494.051 421.352L493.543 424.965C492.788 424.77 492.046 424.672 491.316 424.672C490.105 424.672 489.038 424.965 488.113 425.551C487.189 426.124 486.466 426.918 485.945 427.934C485.438 428.949 485.184 430.121 485.184 431.449V441ZM510.906 441H506.648V410.922H510.906V441ZM518.602 415.805C517.99 415.805 517.475 415.59 517.059 415.16C516.642 414.73 516.434 414.21 516.434 413.598C516.434 412.986 516.642 412.471 517.059 412.055C517.475 411.625 517.99 411.41 518.602 411.41C519.227 411.41 519.747 411.625 520.164 412.055C520.594 412.471 520.809 412.986 520.809 413.598C520.809 414.21 520.594 414.73 520.164 415.16C519.747 415.59 519.227 415.805 518.602 415.805ZM520.594 441H516.59V421.469H520.594V441ZM534.5 441.078C532.664 441.078 531.017 440.642 529.559 439.77C528.1 438.897 526.948 437.706 526.102 436.195C525.268 434.685 524.852 432.979 524.852 431.078C524.852 429.164 525.268 427.458 526.102 425.961C526.948 424.451 528.1 423.259 529.559 422.387C531.017 421.514 532.671 421.078 534.52 421.078C535.978 421.078 537.319 421.358 538.543 421.918C539.78 422.478 540.828 423.246 541.688 424.223L541.883 421.469H545.418V440.473C545.418 442.66 544.969 444.548 544.07 446.137C543.185 447.738 541.928 448.975 540.301 449.848C538.673 450.72 536.746 451.156 534.52 451.156C531.382 451.156 528.615 450.134 526.219 448.09L527.918 444.848C529.676 446.658 531.798 447.562 534.285 447.562C535.73 447.562 536.98 447.263 538.035 446.664C539.103 446.065 539.93 445.225 540.516 444.145C541.115 443.077 541.414 441.814 541.414 440.355V438.227C540.555 439.112 539.533 439.809 538.348 440.316C537.163 440.824 535.88 441.078 534.5 441.078ZM535.164 437.523C536.31 437.523 537.352 437.263 538.289 436.742C539.24 436.221 539.995 435.512 540.555 434.613C541.128 433.702 541.414 432.667 541.414 431.508V430.629C541.414 429.47 541.128 428.441 540.555 427.543C539.995 426.645 539.24 425.935 538.289 425.414C537.352 424.893 536.31 424.633 535.164 424.633C533.966 424.633 532.898 424.919 531.961 425.492C531.023 426.052 530.281 426.82 529.734 427.797C529.188 428.76 528.914 429.854 528.914 431.078C528.914 432.302 529.188 433.402 529.734 434.379C530.281 435.355 531.023 436.124 531.961 436.684C532.898 437.243 533.966 437.523 535.164 437.523ZM568.289 438.676C565.867 440.486 563.204 441.391 560.301 441.391C558.23 441.391 556.375 440.935 554.734 440.023C553.094 439.112 551.798 437.868 550.848 436.293C549.897 434.717 549.422 432.94 549.422 430.961C549.422 429.073 549.858 427.387 550.73 425.902C551.603 424.405 552.794 423.227 554.305 422.367C555.815 421.508 557.527 421.078 559.441 421.078C561.421 421.078 563.159 421.547 564.656 422.484C566.167 423.422 567.339 424.73 568.172 426.41C569.018 428.077 569.441 430.01 569.441 432.211V432.836H553.758C553.992 433.852 554.435 434.743 555.086 435.512C555.737 436.267 556.544 436.859 557.508 437.289C558.471 437.706 559.559 437.914 560.77 437.914C562.931 437.914 564.917 437.211 566.727 435.805L568.289 438.676ZM553.582 430.062H565.711C565.581 428.969 565.242 428.018 564.695 427.211C564.148 426.391 563.439 425.753 562.566 425.297C561.707 424.828 560.737 424.594 559.656 424.594C558.562 424.594 557.579 424.828 556.707 425.297C555.835 425.753 555.125 426.391 554.578 427.211C554.044 428.031 553.712 428.982 553.582 430.062ZM587.43 441H583.172V410.922H587.43V441ZM595.125 415.805C594.513 415.805 593.999 415.59 593.582 415.16C593.165 414.73 592.957 414.21 592.957 413.598C592.957 412.986 593.165 412.471 593.582 412.055C593.999 411.625 594.513 411.41 595.125 411.41C595.75 411.41 596.271 411.625 596.688 412.055C597.117 412.471 597.332 412.986 597.332 413.598C597.332 414.21 597.117 414.73 596.688 415.16C596.271 415.59 595.75 415.805 595.125 415.805ZM597.117 441H593.113V421.469H597.117V441ZM622.234 441H618.699L618.484 438.207C617.599 439.197 616.531 439.978 615.281 440.551C614.044 441.111 612.684 441.391 611.199 441.391C609.324 441.391 607.645 440.948 606.16 440.062C604.676 439.177 603.504 437.966 602.645 436.43C601.798 434.893 601.375 433.161 601.375 431.234C601.375 429.294 601.798 427.562 602.645 426.039C603.504 424.503 604.676 423.292 606.16 422.406C607.645 421.521 609.324 421.078 611.199 421.078C612.605 421.078 613.908 421.332 615.105 421.84C616.316 422.348 617.358 423.057 618.23 423.969V411.703H622.234V441ZM611.863 437.797C613.048 437.797 614.116 437.523 615.066 436.977C616.03 436.43 616.798 435.688 617.371 434.75C617.944 433.812 618.23 432.745 618.23 431.547V430.883C618.23 429.685 617.944 428.617 617.371 427.68C616.798 426.742 616.03 426.007 615.066 425.473C614.116 424.939 613.048 424.672 611.863 424.672C610.652 424.672 609.565 424.958 608.602 425.531C607.638 426.104 606.876 426.885 606.316 427.875C605.757 428.852 605.477 429.965 605.477 431.215C605.477 432.465 605.757 433.585 606.316 434.574C606.876 435.564 607.638 436.352 608.602 436.938C609.565 437.51 610.652 437.797 611.863 437.797ZM639.969 440.512C638.602 441.098 637.28 441.391 636.004 441.391C634.728 441.391 633.608 441.117 632.645 440.57C631.694 440.023 630.945 439.255 630.398 438.266C629.865 437.263 629.598 436.111 629.598 434.809V425.043H626.18V421.469H629.793V416.586H633.602V421.469H639.305V425.043H633.602V434.066C633.602 435.212 633.908 436.124 634.52 436.801C635.145 437.465 635.945 437.797 636.922 437.797C637.742 437.797 638.556 437.549 639.363 437.055L639.969 440.512ZM296.707 491H292.703V475.043H289.285V471.469H292.703V467.66C292.703 466.384 292.983 465.258 293.543 464.281C294.116 463.292 294.897 462.517 295.887 461.957C296.889 461.397 298.042 461.117 299.344 461.117C300.151 461.117 300.965 461.228 301.785 461.449C302.605 461.671 303.413 462.016 304.207 462.484L302.684 465.629C302.254 465.316 301.805 465.089 301.336 464.945C300.88 464.789 300.424 464.711 299.969 464.711C299.018 464.711 298.237 465.049 297.625 465.727C297.013 466.404 296.707 467.309 296.707 468.441V471.469H302.684V475.043H296.707V491ZM316.395 491.391C314.441 491.391 312.684 490.948 311.121 490.062C309.559 489.177 308.328 487.973 307.43 486.449C306.531 484.913 306.082 483.174 306.082 481.234C306.082 479.307 306.531 477.582 307.43 476.059C308.328 474.522 309.559 473.311 311.121 472.426C312.684 471.527 314.441 471.078 316.395 471.078C318.361 471.078 320.118 471.527 321.668 472.426C323.217 473.311 324.435 474.522 325.32 476.059C326.219 477.582 326.668 479.307 326.668 481.234C326.668 483.174 326.219 484.913 325.32 486.449C324.435 487.973 323.217 489.177 321.668 490.062C320.118 490.948 318.361 491.391 316.395 491.391ZM316.375 487.797C317.56 487.797 318.615 487.51 319.539 486.938C320.477 486.352 321.212 485.57 321.746 484.594C322.293 483.604 322.566 482.478 322.566 481.215C322.566 479.978 322.293 478.871 321.746 477.895C321.212 476.905 320.477 476.124 319.539 475.551C318.615 474.965 317.56 474.672 316.375 474.672C315.203 474.672 314.148 474.965 313.211 475.551C312.273 476.124 311.531 476.905 310.984 477.895C310.451 478.871 310.184 479.978 310.184 481.215C310.184 482.478 310.451 483.604 310.984 484.594C311.531 485.57 312.273 486.352 313.211 486.938C314.148 487.51 315.203 487.797 316.375 487.797ZM334.852 491H330.848V471.469H334.344L334.5 475.18C335.177 473.891 336.108 472.888 337.293 472.172C338.491 471.443 339.865 471.078 341.414 471.078C341.792 471.078 342.169 471.104 342.547 471.156C342.938 471.195 343.328 471.26 343.719 471.352L343.211 474.965C342.456 474.77 341.714 474.672 340.984 474.672C339.773 474.672 338.706 474.965 337.781 475.551C336.857 476.124 336.134 476.918 335.613 477.934C335.105 478.949 334.852 480.121 334.852 481.449V491ZM345.418 489.301L346.395 485.707C346.837 486.15 347.365 486.54 347.977 486.879C348.602 487.217 349.259 487.484 349.949 487.68C350.652 487.862 351.342 487.953 352.02 487.953C353.087 487.953 353.947 487.725 354.598 487.27C355.249 486.814 355.574 486.208 355.574 485.453C355.574 484.893 355.392 484.431 355.027 484.066C354.676 483.689 354.201 483.363 353.602 483.09C353.016 482.816 352.384 482.549 351.707 482.289C350.835 481.964 349.962 481.586 349.09 481.156C348.23 480.727 347.508 480.154 346.922 479.438C346.336 478.721 346.043 477.777 346.043 476.605C346.043 475.486 346.329 474.516 346.902 473.695C347.475 472.862 348.276 472.217 349.305 471.762C350.333 471.306 351.518 471.078 352.859 471.078C354.943 471.078 357.007 471.599 359.051 472.641L357.879 476.059C357.462 475.759 356.967 475.492 356.395 475.258C355.822 475.023 355.236 474.841 354.637 474.711C354.038 474.568 353.484 474.496 352.977 474.496C352.13 474.496 351.447 474.685 350.926 475.062C350.418 475.44 350.164 475.948 350.164 476.586C350.164 476.977 350.288 477.335 350.535 477.66C350.783 477.973 351.173 478.285 351.707 478.598C352.254 478.897 352.99 479.236 353.914 479.613C354.799 479.965 355.685 480.368 356.57 480.824C357.456 481.28 358.191 481.872 358.777 482.602C359.376 483.331 359.676 484.288 359.676 485.473C359.676 486.645 359.363 487.68 358.738 488.578C358.113 489.464 357.241 490.154 356.121 490.648C355.014 491.143 353.725 491.391 352.254 491.391C349.819 491.391 347.54 490.694 345.418 489.301ZM366.004 465.805C365.392 465.805 364.878 465.59 364.461 465.16C364.044 464.73 363.836 464.21 363.836 463.598C363.836 462.986 364.044 462.471 364.461 462.055C364.878 461.625 365.392 461.41 366.004 461.41C366.629 461.41 367.15 461.625 367.566 462.055C367.996 462.471 368.211 462.986 368.211 463.598C368.211 464.21 367.996 464.73 367.566 465.16C367.15 465.59 366.629 465.805 366.004 465.805ZM367.996 491H363.992V471.469H367.996V491ZM392.391 491H388.387V480.395C388.387 478.663 387.911 477.283 386.961 476.254C386.023 475.225 384.76 474.711 383.172 474.711C381.531 474.711 380.21 475.258 379.207 476.352C378.204 477.445 377.703 478.897 377.703 480.707V491H373.699V471.469H377.078L377.215 474.613C377.931 473.467 378.868 472.595 380.027 471.996C381.186 471.384 382.547 471.078 384.109 471.078C386.674 471.078 388.693 471.853 390.164 473.402C391.648 474.952 392.391 477.087 392.391 479.809V491ZM401.648 491H397.645V461.703H401.648V481.449L403.309 479.457L410.848 471.469H415.867L407.801 480.023L417 491H411.824L405.027 482.758L401.648 486.234V491ZM437.605 488.676C435.184 490.486 432.521 491.391 429.617 491.391C427.547 491.391 425.691 490.935 424.051 490.023C422.41 489.112 421.115 487.868 420.164 486.293C419.214 484.717 418.738 482.94 418.738 480.961C418.738 479.073 419.174 477.387 420.047 475.902C420.919 474.405 422.111 473.227 423.621 472.367C425.132 471.508 426.844 471.078 428.758 471.078C430.737 471.078 432.475 471.547 433.973 472.484C435.483 473.422 436.655 474.73 437.488 476.41C438.335 478.077 438.758 480.01 438.758 482.211V482.836H423.074C423.309 483.852 423.751 484.743 424.402 485.512C425.053 486.267 425.861 486.859 426.824 487.289C427.788 487.706 428.875 487.914 430.086 487.914C432.247 487.914 434.233 487.211 436.043 485.805L437.605 488.676ZM422.898 480.062H435.027C434.897 478.969 434.559 478.018 434.012 477.211C433.465 476.391 432.755 475.753 431.883 475.297C431.023 474.828 430.053 474.594 428.973 474.594C427.879 474.594 426.896 474.828 426.023 475.297C425.151 475.753 424.441 476.391 423.895 477.211C423.361 478.031 423.029 478.982 422.898 480.062ZM454.48 490.512C453.113 491.098 451.792 491.391 450.516 491.391C449.24 491.391 448.12 491.117 447.156 490.57C446.206 490.023 445.457 489.255 444.91 488.266C444.376 487.263 444.109 486.111 444.109 484.809V475.043H440.691V471.469H444.305V466.586H448.113V471.469H453.816V475.043H448.113V484.066C448.113 485.212 448.419 486.124 449.031 486.801C449.656 487.465 450.457 487.797 451.434 487.797C452.254 487.797 453.068 487.549 453.875 487.055L454.48 490.512Z" fill="white"/>
<path d="M265.488 307H238.633V265.374H147.812V244.5L238.755 123.895H265.488V241.814H287.827V265.374H265.488V307ZM175.645 241.814H238.633V158.196L175.645 241.814ZM369.248 310.662C356.064 310.662 344.712 306.959 335.19 299.554C325.669 292.067 318.345 281.243 313.218 267.083C308.091 252.841 305.527 235.589 305.527 215.325C305.527 195.143 308.091 177.972 313.218 163.812C318.345 149.651 325.669 138.868 335.19 131.463C344.712 123.976 356.064 120.232 369.248 120.232C382.432 120.232 393.743 123.976 403.184 131.463C412.705 138.868 420.029 149.651 425.156 163.812C430.365 177.972 432.969 195.143 432.969 215.325C432.969 235.589 430.405 252.841 425.278 267.083C420.151 281.243 412.827 292.067 403.306 299.554C393.784 306.959 382.432 310.662 369.248 310.662ZM369.248 286.98C380.641 286.98 389.512 280.714 395.859 268.182C402.288 255.568 405.503 237.949 405.503 215.325C405.503 192.701 402.288 175.164 395.859 162.713C389.512 150.18 380.641 143.914 369.248 143.914C357.855 143.914 348.944 150.18 342.515 162.713C336.167 175.164 332.993 192.701 332.993 215.325C332.993 237.949 336.167 255.568 342.515 268.182C348.944 280.714 357.855 286.98 369.248 286.98ZM568.223 307H541.367V265.374H450.547V244.5L541.489 123.895H568.223V241.814H590.562V265.374H568.223V307ZM478.379 241.814H541.367V158.196L478.379 241.814Z" fill="white"/>
<path d="M59.0507 112.34L110.19 84.2547V28.0845L59.0507 -0.000556946L7.9113 28.0845V84.2547L59.0507 112.34Z" fill="#777E5C"/>
<path d="M726.693 573.502L782.72 557.226L794.951 502.403L751.153 463.857L695.126 480.133L682.895 534.956L726.693 573.502Z" fill="#777E5C"/>
<path d="M655.634 647.295L711.662 631.019L723.892 576.196L680.095 537.65L624.067 553.926L611.837 608.749L655.634 647.295Z" fill="white"/>
</svg>
